<?xml version="1.0" encoding="UTF-8" standalone="no"?>
<!-- Created with Inkscape (http://www.inkscape.org/) -->

<svg
   width="500.00003"
   height="500.00003"
   viewBox="0 0 132.29167 132.29167"
   version="1.1"
   id="svg1"
   xml:space="preserve"
   inkscape:version="1.3 (0e150ed6c4, 2023-07-21)"
   sodipodi:docname="blender-off.svg"
   xmlns:inkscape="http://www.inkscape.org/namespaces/inkscape"
   xmlns:sodipodi="http://sodipodi.sourceforge.net/DTD/sodipodi-0.dtd"
   xmlns="http://www.w3.org/2000/svg"
   xmlns:svg="http://www.w3.org/2000/svg"><sodipodi:namedview
     id="namedview1"
     pagecolor="#505050"
     bordercolor="#eeeeee"
     borderopacity="1"
     inkscape:showpageshadow="0"
     inkscape:pageopacity="0"
     inkscape:pagecheckerboard="0"
     inkscape:deskcolor="#505050"
     inkscape:document-units="px"
     inkscape:zoom="1.0242632"
     inkscape:cx="296.79871"
     inkscape:cy="353.91294"
     inkscape:window-width="1920"
     inkscape:window-height="1009"
     inkscape:window-x="-8"
     inkscape:window-y="-8"
     inkscape:window-maximized="1"
     inkscape:current-layer="layer1" /><defs
     id="defs1">&#10;	&#10;	&#10;	&#10;	&#10;	&#10;	&#10;	&#10;	&#10;	&#10;	&#10;</defs><g
     inkscape:label="Layer 1"
     inkscape:groupmode="layer"
     id="layer1"
     transform="translate(-294.66385,-97.099258)"><g
       id="g15"
       style="stroke-width:1.98437493;stroke-dasharray:none;opacity:0.33"><path
         id="path14"
         style="fill:none;fill-opacity:0.63843;stroke:#ffe6cc;stroke-width:1.98437493;stroke-linecap:round;stroke-linejoin:round;stroke-opacity:1;stroke-dasharray:none"
         inkscape:transform-center-x="33.862073"
         inkscape:transform-center-y="-1.4615439"
         d="m 402.07403,187.17775 c -0.009,-7.88379 -3.20713,-15.41019 -8.7719,-20.99477 l -30.10741,-30.21446 c -2.07215,-2.07952 -5.44147,-2.07584 -7.51732,0 -2.07584,2.07586 -2.07584,5.44148 0,7.51733 l 13.92484,13.92481 h -39.94927 c -2.93569,0 -5.31554,2.37987 -5.31554,5.31556 0,2.93569 2.37985,5.31555 5.31554,5.31555 h 19.69329 l -28.24883,28.24882 c -2.07585,2.07585 -2.07585,5.4415 0,7.51735 0.93866,0.93866 2.14104,1.45288 3.36864,1.54264 m 18.25444,-15.64836 c 1.3088,15.37757 14.15328,27.22418 29.58644,27.2426 m 1.7e-4,-10.6309 c 10.56851,0 19.13599,-8.56747 19.13599,-19.13598 0,-10.56851 -8.56748,-19.13599 -19.13599,-19.13599"
         sodipodi:nodetypes="csssscssscssccccsc" /><path
         id="path15"
         style="fill:none;fill-opacity:0.63843;stroke:#cce6ff;stroke-width:1.98437493;stroke-linecap:round;stroke-linejoin:round;stroke-opacity:1;stroke-dasharray:none"
         d="m 372.30712,195.68281 c -4.69711,0 -8.50487,-3.80776 -8.50487,-8.50487 0,-4.69712 3.80776,-8.5049 8.50487,-8.5049 4.69713,0 8.5049,3.80777 8.5049,8.5049"
         sodipodi:nodetypes="cssc" /></g><g
       id="g13"
       transform="translate(-23.151135,31.08855)"
       style="fill:#ffffff;fill-opacity:1;stroke:none;stroke-opacity:1;stroke-width:0.79374997;stroke-dasharray:none;opacity:1"><path
         style="fill:#ffffff;fill-opacity:1;fill-rule:evenodd;stroke:none;stroke-width:0.79374997;stroke-linecap:round;stroke-linejoin:round;stroke-miterlimit:4;stroke-dasharray:none;stroke-dashoffset:0;stroke-opacity:1"
         d="m 335.01286,82.069124 h 1.32188 c 0.7306,0 1.32264,0.592261 1.32292,1.322922 l 10e-4,2.645844 c 2.8e-4,0.730661 -0.5923,1.322922 -1.32292,1.322922 h -1.32292 z m -5.29167,7.937504 h 7.93751 c 2.92243,0 5.29177,-2.369136 5.29167,-5.29166 -4e-5,-1.582843 -0.69896,-2.999045 -1.8004,-3.968746 1.10114,-0.969722 1.80036,-2.385144 1.8004,-3.967718 10e-5,-2.922525 -2.36924,-5.292709 -5.29167,-5.292709 h -7.93751 z m 5.29167,-15.874989 h 1.32292 c 0.73062,0 1.3232,0.592241 1.32292,1.322922 l -0.001,2.645825 c -2.8e-4,0.730653 -0.59232,1.324514 -1.32292,1.323934 l -1.32188,-10e-4 z"
         id="path2659-7-2"
         inkscape:connector-curvature="0"
         sodipodi:nodetypes="csssscccsscsscccsssscc" /><path
         sodipodi:nodetypes="ccccccc"
         inkscape:connector-curvature="0"
         id="path2260-6"
         d="m 345.59627,71.485835 -4e-5,18.520753 h 13.22909 v -2.645816 h -7.93746 l 6e-5,-15.874937 z"
         style="fill:#ffffff;fill-opacity:1;fill-rule:evenodd;stroke:none;stroke-width:0.79374997;stroke-linecap:round;stroke-linejoin:round;stroke-miterlimit:4;stroke-dasharray:none;stroke-dashoffset:0;stroke-opacity:1" /><path
         sodipodi:nodetypes="cssssccssccsss"
         inkscape:connector-curvature="0"
         id="path2620-1"
         d="m 393.22125,71.485835 h 7.93753 c 2.92251,0 5.29163,2.369144 5.29163,5.291689 v 7.937424 c 0,2.922524 -2.36912,5.29164 -5.29163,5.29164 h -7.93753 z m 7.93747,3.968746 c 0,-0.730661 -0.59224,-1.322942 -1.3229,-1.322942 h -1.32288 v 13.229173 h 1.32288 c 0.73066,0 1.3229,-0.592301 1.3229,-1.322942 z"
         style="fill:#ffffff;fill-opacity:1;fill-rule:evenodd;stroke:none;stroke-width:0.79374997;stroke-linecap:round;stroke-linejoin:round;stroke-miterlimit:4;stroke-dasharray:none;stroke-dashoffset:0;stroke-opacity:1" /><path
         sodipodi:nodetypes="ccccccccccccc"
         inkscape:connector-curvature="0"
         id="path2493-5"
         d="m 366.76285,82.069124 h 7.93745 V 79.4233 h -7.93745 v -5.291621 h 7.93745 v -2.645844 h -13.22908 l -6e-5,18.520753 h 13.22908 v -2.645816 h -7.93745 z"
         style="fill:#ffffff;fill-opacity:1;fill-rule:evenodd;stroke:none;stroke-width:0.79374997;stroke-linecap:round;stroke-linejoin:round;stroke-miterlimit:4;stroke-dasharray:none;stroke-dashoffset:0;stroke-opacity:1" /><path
         style="fill:#ffffff;fill-opacity:1;fill-rule:evenodd;stroke:none;stroke-width:0.79374997;stroke-linecap:round;stroke-linejoin:round;stroke-miterlimit:4;stroke-dasharray:none;stroke-dashoffset:0;stroke-opacity:1"
         d="m 382.63791,75.454541 c 0,-0.730601 0.5923,-1.322902 1.3229,-1.322902 0.73063,0 1.32291,0.592301 1.32291,1.322902 v 14.552047 h 5.29164 l 4e-5,-13.229104 c 0,-2.922525 -2.36914,-5.291629 -5.29166,-5.291629 h -2.64587 c -2.9225,0 -5.29165,2.369104 -5.29165,5.291629 l 4e-5,13.229104 h 5.29165 z"
         id="path927-3"
         inkscape:connector-curvature="0"
         sodipodi:nodetypes="sssccssssccs" /><path
         sodipodi:nodetypes="csssscccsscccccccc"
         inkscape:connector-curvature="0"
         id="path931-7"
         d="m 430.26289,79.42332 h 1.32296 c 0.73064,0 1.3229,-0.592261 1.3229,-1.322914 v -2.645885 c 0,-0.730581 -0.5923,-1.322902 -1.3229,-1.322902 h -1.32288 z m -5.29161,-7.937485 h 7.93751 c 2.9225,0 5.29167,2.369144 5.29167,5.291629 0,2.036495 -1.15038,3.804237 -2.83673,4.688959 l 2.83669,8.540185 h -5.02709 l -2.64578,-7.937504 h -0.26458 v 7.937504 h -5.29165 z"
         style="fill:#ffffff;fill-opacity:1;fill-rule:evenodd;stroke:none;stroke-width:0.79374997;stroke-linecap:round;stroke-linejoin:round;stroke-miterlimit:4;stroke-dasharray:none;stroke-dashoffset:0;stroke-opacity:1" /><path
         sodipodi:nodetypes="ccccccccccccc"
         inkscape:connector-curvature="0"
         id="path1"
         d="m 414.38796,82.069124 h 7.93745 V 79.4233 h -7.93745 v -5.291621 h 7.93745 v -2.645844 h -13.22908 l -6e-5,18.520753 h 13.22908 v -2.645816 h -7.93745 z"
         style="fill:#ffffff;fill-opacity:1;fill-rule:evenodd;stroke:none;stroke-width:0.79374997;stroke-linecap:round;stroke-linejoin:round;stroke-miterlimit:4;stroke-dasharray:none;stroke-dashoffset:0;stroke-opacity:1" /></g></g></svg>
