<?xml version="1.0" encoding="UTF-8" standalone="no"?>
<!-- Created with Inkscape (http://www.inkscape.org/) -->

<svg
   width="500.00003"
   height="500.00003"
   viewBox="0 0 132.29167 132.29167"
   version="1.1"
   id="svg1"
   xml:space="preserve"
   inkscape:version="1.3 (0e150ed6c4, 2023-07-21)"
   sodipodi:docname="CSS-off.svg"
   xmlns:inkscape="http://www.inkscape.org/namespaces/inkscape"
   xmlns:sodipodi="http://sodipodi.sourceforge.net/DTD/sodipodi-0.dtd"
   xmlns="http://www.w3.org/2000/svg"
   xmlns:svg="http://www.w3.org/2000/svg"><sodipodi:namedview
     id="namedview1"
     pagecolor="#505050"
     bordercolor="#eeeeee"
     borderopacity="1"
     inkscape:showpageshadow="0"
     inkscape:pageopacity="0"
     inkscape:pagecheckerboard="0"
     inkscape:deskcolor="#505050"
     inkscape:document-units="px"
     inkscape:zoom="1.4485269"
     inkscape:cx="212.97499"
     inkscape:cy="216.42677"
     inkscape:window-width="1920"
     inkscape:window-height="1009"
     inkscape:window-x="-8"
     inkscape:window-y="-8"
     inkscape:window-maximized="1"
     inkscape:current-layer="g1"
     showgrid="false" /><defs
     id="defs1">&#10;	&#10;	&#10;	&#10;	&#10;	&#10;	&#10;	&#10;	&#10;	&#10;	&#10;</defs><g
     inkscape:label="Layer 1"
     inkscape:groupmode="layer"
     id="layer1"
     transform="translate(-156.77647,-97.099258)"><g
       id="g1"><path
         id="path22-1-5-0-1-3-4-47"
         style="fill:none;fill-opacity:1;stroke:#cce0ff;stroke-width:1.32291662;stroke-linecap:round;stroke-linejoin:round;stroke-dasharray:none;stroke-opacity:1;paint-order:markers stroke fill;opacity:0.33"
         d="m 222.92229,150.26554 c 1.94711,0 3.52559,1.57848 3.52559,3.52558 v 7.0511 c 0,1.9471 -1.57848,3.52558 -3.52559,3.52558 h -3.52556 v 7.05114 h 3.52556 c 1.94711,0 3.52559,1.57848 3.52559,3.52558 v 7.0511 c 0,1.9471 -1.57846,3.52558 -3.52559,3.52558 m -3.52556,-7.05111 h -14.10227 c 0,7.78841 6.31382,14.10225 14.10227,14.10225 h 7.05115 m 14.10228,-14.10225 c 0,-4.21404 -1.8486,-7.99536 -4.77881,-10.5795 m -16.37462,-10.5739 h -14.10227 c 0,-7.78845 6.31381,-14.1023 14.10227,-14.1023 h 7.05115 c 7.78845,0 14.10228,6.31385 14.10228,14.1023 m 16.76799,-24.18299 h -63.63231 c -2.43214,0 -5.15937,2.72723 -5.15937,5.15939 v 31.03608 c 0,21.95451 25.19817,41.78521 34.39584,41.78521"
         sodipodi:nodetypes="csssccssscccscccccssccsssc" /><g
         id="g26"
         transform="matrix(1.999995,0,0,1.999995,344.36576,-550.54798)"
         style="fill:#ffffff;fill-opacity:1;stroke:none"><path
           id="path22-1-5-0-1"
           style="fill:#ffffff;fill-opacity:1;stroke:none;stroke-width:0.264583;stroke-linecap:round;stroke-linejoin:round;stroke-dasharray:none;stroke-opacity:1;paint-order:markers stroke fill"
           d="m -52.122916,336.55002 h -1.322917 c -1.461252,0 -2.645834,-1.18458 -2.645834,-2.64583 h 2.645832 v 0.66147 c 0,0.36531 0.296149,0.66145 0.66146,0.66145 0.365312,0 0.661461,-0.29614 0.661461,-0.66145 v -1.32294 c 0,-0.36531 -0.296149,-0.66144 -0.661459,-0.66145 l -0.66146,-2e-5 c -1.461252,-4e-5 -2.645834,-1.18458 -2.645834,-2.64583 0,-1.46125 1.184582,-2.64583 2.645834,-2.64583 h 1.322917 c 1.461252,0 2.645834,1.18458 2.645834,2.64583 h -2.645832 v -0.66147 c 0,-0.36531 -0.296149,-0.66145 -0.661461,-0.66145 -0.365311,0 -0.66146,0.29614 -0.66146,0.66145 v 1.32294 c 0,0.36531 0.296149,0.66144 0.661459,0.66145 l 0.66146,2e-5 c 1.461252,4e-5 2.645834,1.18458 2.645834,2.64583 0,1.46125 -1.184582,2.64583 -2.645834,2.64583 z"
           sodipodi:nodetypes="ssccszsssszssccszsssszs" /><path
           id="path22-1-5-0-1-3"
           style="fill:#ffffff;fill-opacity:1;stroke:none;stroke-width:0.264583;stroke-linecap:round;stroke-linejoin:round;stroke-dasharray:none;stroke-opacity:1;paint-order:markers stroke fill"
           d="m -60.060418,336.55002 h -1.322917 c -1.461252,0 -2.645834,-1.18458 -2.645834,-2.64583 h 2.645832 v 0.66147 c 0,0.36531 0.296149,0.66145 0.66146,0.66145 0.365312,0 0.661461,-0.29614 0.661461,-0.66145 v -1.32294 c 0,-0.36531 -0.296149,-0.66144 -0.661459,-0.66145 l -0.66146,-2e-5 c -1.461252,-4e-5 -2.645834,-1.18458 -2.645834,-2.64583 0,-1.46125 1.184582,-2.64583 2.645834,-2.64583 h 1.322917 c 1.461252,0 2.645834,1.18458 2.645834,2.64583 h -2.645832 v -0.66147 c 0,-0.36531 -0.296149,-0.66145 -0.661461,-0.66145 -0.365311,0 -0.66146,0.29614 -0.66146,0.66145 v 1.32294 c 0,0.36531 0.296149,0.66144 0.661459,0.66145 l 0.66146,2e-5 c 1.461252,4e-5 2.645834,1.18458 2.645834,2.64583 0,1.46125 -1.184582,2.64583 -2.645834,2.64583 z"
           sodipodi:nodetypes="ssccszsssszssccszsssszs" /><path
           id="path22-1-5-0-1-3-5"
           style="fill:#ffffff;fill-opacity:1;stroke:none;stroke-width:0.264583;stroke-linecap:round;stroke-linejoin:round;stroke-dasharray:none;stroke-opacity:1;paint-order:markers stroke fill"
           d="m -65.352086,333.90419 c 0,1.46125 -1.184582,2.64583 -2.645834,2.64583 h -1.322917 c -1.461252,0 -2.645834,-1.18458 -2.645834,-2.64583 v -3.96877 c 0,-1.46125 1.184582,-2.64583 2.645834,-2.64583 h 1.322917 c 1.461252,0 2.645834,1.18458 2.645834,2.64583 h -2.645832 v -0.66147 c 0,-0.36531 -0.296149,-0.66145 -0.661461,-0.66145 -0.365311,0 -0.66146,0.29614 -0.66146,0.66145 v 5.29171 c 0,0.36531 0.296149,0.66145 0.66146,0.66145 0.365312,0 0.661461,-0.29614 0.661461,-0.66145 v -0.66147 z"
           sodipodi:nodetypes="cssssssccszsszscc" /></g></g></g></svg>
