<?xml version="1.0" encoding="UTF-8" standalone="no"?>
<!-- Created with Inkscape (http://www.inkscape.org/) -->

<svg
   width="210mm"
   height="297mm"
   viewBox="0 0 210 297"
   version="1.1"
   id="svg1"
   xml:space="preserve"
   inkscape:version="1.3 (0e150ed6c4, 2023-07-21)"
   sodipodi:docname="dessin.svg"
   xmlns:inkscape="http://www.inkscape.org/namespaces/inkscape"
   xmlns:sodipodi="http://sodipodi.sourceforge.net/DTD/sodipodi-0.dtd"
   xmlns="http://www.w3.org/2000/svg"
   xmlns:svg="http://www.w3.org/2000/svg"><sodipodi:namedview
     id="namedview1"
     pagecolor="#505050"
     bordercolor="#eeeeee"
     borderopacity="1"
     inkscape:showpageshadow="0"
     inkscape:pageopacity="0"
     inkscape:pagecheckerboard="0"
     inkscape:deskcolor="#505050"
     inkscape:document-units="mm"
     inkscape:zoom="1.4485269"
     inkscape:cx="256.12227"
     inkscape:cy="482.90438"
     inkscape:window-width="1920"
     inkscape:window-height="1009"
     inkscape:window-x="-8"
     inkscape:window-y="131"
     inkscape:window-maximized="1"
     inkscape:current-layer="layer1" /><defs
     id="defs1">&#10;	&#10;	&#10;	&#10;	&#10;	&#10;	&#10;	&#10;	&#10;	&#10;	&#10;</defs><g
     inkscape:label="Layer 1"
     inkscape:groupmode="layer"
     id="layer1"><path
       id="circle22-4"
       style="fill:#ffffff;stroke:none;stroke-width:5.575;stroke-linecap:round;stroke-linejoin:round;paint-order:markers stroke fill"
       d="m -37.190735,303.89749 a 2.6458333,2.6458333 0 0 1 -2.645833,2.64584 2.6458333,2.6458333 0 0 1 -2.645834,-2.64584 2.6458333,2.6458333 0 0 1 2.645834,-2.64583 2.6458333,2.6458333 0 0 1 2.645833,2.64583 z" /><path
       id="path13-1-2"
       style="fill:#ffffff;stroke:none;stroke-width:4.20033;stroke-linecap:round;stroke-linejoin:round;paint-order:markers stroke fill"
       d="m -46.096113,283.99147 h 1.322917 v 1.32292 h -1.322917 z" /><path
       id="path13-1-2-0"
       style="fill:#ffffff;stroke:none;stroke-width:4.20033;stroke-linecap:round;stroke-linejoin:round;paint-order:markers stroke fill"
       d="m -50.064864,287.96023 h 1.322917 v 1.32292 h -1.322917 z"
       sodipodi:nodetypes="ccccc" /><path
       id="path21-0"
       style="fill:#ffffff;stroke:none;stroke-width:8.40066;stroke-linecap:round;stroke-linejoin:round;paint-order:markers stroke fill"
       d="m -48.741947,280.02271 h 2.645834 v 2.64584 h -2.645834 z" /><path
       id="path22-2-10"
       style="fill:#ffffff;stroke:none;stroke-width:8.40066;stroke-linecap:round;stroke-linejoin:round;paint-order:markers stroke fill"
       d="m -48.741947,286.63731 h 2.645834 v 2.64584 h -2.645834 z" /><path
       id="path21-20-9"
       style="fill:#ffffff;stroke:none;stroke-width:8.40066;stroke-linecap:round;stroke-linejoin:round;paint-order:markers stroke fill"
       d="m -44.773196,280.02271 h 2.645834 v 2.64584 h -2.645834 z" /><path
       id="path22-2-1-9"
       style="fill:#ffffff;stroke:none;stroke-width:8.40066;stroke-linecap:round;stroke-linejoin:round;paint-order:markers stroke fill"
       d="m -44.773196,286.63731 h 2.645834 v 2.64584 h -2.645834 z" /><g
       id="g27"
       transform="matrix(1.999995,0,0,1.999995,225.43145,-514.36804)"><g
         id="g29"
         transform="translate(0,7.9375197)"><path
           id="path22-1-0"
           style="fill:#ffffff;stroke:none;stroke-width:0.264583;stroke-linecap:round;stroke-linejoin:round;stroke-dasharray:none;stroke-opacity:1;paint-order:markers stroke fill"
           d="m -60.194099,306.55374 c -1.46125,0 -2.645833,1.18459 -2.645833,2.64584 v 6.61458 h 2.645833 v -7.27604 c 0,-0.36531 0.296149,-0.66146 0.661458,-0.66146 0.36531,0 0.661459,0.29615 0.661459,0.66146 v 7.27604 h 2.645833 v -7.27604 c 0,-0.36531 0.296149,-0.66146 0.661458,-0.66146 0.36531,0 0.661459,0.29615 0.661459,0.66146 v 7.27604 h 2.645833 v -6.61458 c 0,-1.46125 -1.184583,-2.64584 -2.645833,-2.64584 h -1.322917 c -0.481873,0 -0.933259,0.12942 -1.3224,0.3545 -0.38931,-0.22535 -0.84125,-0.3545 -1.323433,-0.3545 z"
           sodipodi:nodetypes="ssccsssccsssccssscss" /><path
           id="path13-1-2-3"
           style="fill:#ffffff;stroke:none;stroke-width:4.20033;stroke-linecap:round;stroke-linejoin:round;paint-order:markers stroke fill"
           d="m -48.287826,314.49124 h 3.968751 v 1.32292 h -6.614585 v -9.26044 h 2.645834 z"
           sodipodi:nodetypes="ccccccc" /><path
           id="path13-1-2-3-3"
           style="fill:#ffffff;stroke:none;stroke-width:4.20033;stroke-linecap:round;stroke-linejoin:round;paint-order:markers stroke fill"
           d="m -70.777456,306.55372 v 1.32292 h 1.984375 v 7.93752 h 2.645834 v -7.93752 h 1.984376 v -1.32292 z"
           sodipodi:nodetypes="ccccccccc" /><path
           id="path13-1-2-3-6"
           style="fill:#ffffff;stroke:none;stroke-width:4.20033;stroke-linecap:round;stroke-linejoin:round;paint-order:markers stroke fill"
           d="m -76.069146,311.8454 h 1.322917 v 3.96876 h 2.645834 v -9.26044 h -2.645834 v 3.96876 h -1.322917 v -3.96876 h -2.645834 v 9.26044 h 2.645834 z"
           sodipodi:nodetypes="ccccccccccccc" /></g></g><path
       id="path22-1-3"
       style="fill:#ffffff;stroke:none;stroke-width:1.39375;stroke-linecap:round;stroke-linejoin:round;paint-order:markers stroke fill"
       d="m -44.773196,282.00709 a 0.66145831,0.66145831 0 0 1 -0.661458,0.66145 0.66145831,0.66145831 0 0 1 -0.661459,-0.66145 0.66145831,0.66145831 0 0 1 0.661459,-0.66146 0.66145831,0.66145831 0 0 1 0.661458,0.66146 z" /><path
       id="path22-1-5-0"
       style="fill:#ffffff;stroke:none;stroke-width:1.05833;stroke-linecap:round;stroke-linejoin:round;stroke-dasharray:none;stroke-opacity:1;paint-order:markers stroke fill"
       d="m 105.04352,191.34207 h -5.291664 c -5.845,0 -10.583324,-4.73831 -10.583324,-10.58331 h 10.583324 v 2.64588 c 0,1.46124 1.184584,2.6458 2.645844,2.6458 1.46124,0 2.64582,-1.18456 2.64582,-2.6458 v -5.29175 c 0,-1.46124 -1.18458,-2.64576 -2.64582,-2.6458 l -2.645844,-8e-5 c -5.845,-1.6e-4 -10.58332,-4.73831 -10.58332,-10.58331 0,-5.84499 4.73832,-10.5833 10.58332,-10.5833 h 5.291664 c 5.84501,0 10.58332,4.73831 10.58332,10.5833 h -10.58332 v -2.64587 c 0,-1.46124 -1.18458,-2.6458 -2.64584,-2.6458 -1.46124,0 -2.645824,1.18456 -2.645824,2.6458 v 5.29175 c 0,1.46124 1.184584,2.64576 2.645824,2.6458 l 2.64584,8e-5 c 5.84499,1.6e-4 10.58332,4.73831 10.58332,10.5833 0,5.845 -4.73833,10.58331 -10.58332,10.58331 z"
       sodipodi:nodetypes="ssccszsssszssccszsssszs" /><g
       id="g26"
       transform="matrix(1.999995,0,0,1.999995,223.84124,-539.96464)"><path
         id="path22-1-5-0-1"
         style="fill:#ffffff;stroke:none;stroke-width:0.264583;stroke-linecap:round;stroke-linejoin:round;stroke-dasharray:none;stroke-opacity:1;paint-order:markers stroke fill"
         d="m -52.122916,336.55002 h -1.322917 c -1.461252,0 -2.645834,-1.18458 -2.645834,-2.64583 h 2.645832 v 0.66147 c 0,0.36531 0.296149,0.66145 0.66146,0.66145 0.365312,0 0.661461,-0.29614 0.661461,-0.66145 v -1.32294 c 0,-0.36531 -0.296149,-0.66144 -0.661459,-0.66145 l -0.66146,-2e-5 c -1.461252,-4e-5 -2.645834,-1.18458 -2.645834,-2.64583 0,-1.46125 1.184582,-2.64583 2.645834,-2.64583 h 1.322917 c 1.461252,0 2.645834,1.18458 2.645834,2.64583 h -2.645832 v -0.66147 c 0,-0.36531 -0.296149,-0.66145 -0.661461,-0.66145 -0.365311,0 -0.66146,0.29614 -0.66146,0.66145 v 1.32294 c 0,0.36531 0.296149,0.66144 0.661459,0.66145 l 0.66146,2e-5 c 1.461252,4e-5 2.645834,1.18458 2.645834,2.64583 0,1.46125 -1.184582,2.64583 -2.645834,2.64583 z"
         sodipodi:nodetypes="ssccszsssszssccszsssszs" /><path
         id="path22-1-5-0-1-3"
         style="fill:#ffffff;stroke:none;stroke-width:0.264583;stroke-linecap:round;stroke-linejoin:round;stroke-dasharray:none;stroke-opacity:1;paint-order:markers stroke fill"
         d="m -60.060418,336.55002 h -1.322917 c -1.461252,0 -2.645834,-1.18458 -2.645834,-2.64583 h 2.645832 v 0.66147 c 0,0.36531 0.296149,0.66145 0.66146,0.66145 0.365312,0 0.661461,-0.29614 0.661461,-0.66145 v -1.32294 c 0,-0.36531 -0.296149,-0.66144 -0.661459,-0.66145 l -0.66146,-2e-5 c -1.461252,-4e-5 -2.645834,-1.18458 -2.645834,-2.64583 0,-1.46125 1.184582,-2.64583 2.645834,-2.64583 h 1.322917 c 1.461252,0 2.645834,1.18458 2.645834,2.64583 h -2.645832 v -0.66147 c 0,-0.36531 -0.296149,-0.66145 -0.661461,-0.66145 -0.365311,0 -0.66146,0.29614 -0.66146,0.66145 v 1.32294 c 0,0.36531 0.296149,0.66144 0.661459,0.66145 l 0.66146,2e-5 c 1.461252,4e-5 2.645834,1.18458 2.645834,2.64583 0,1.46125 -1.184582,2.64583 -2.645834,2.64583 z"
         sodipodi:nodetypes="ssccszsssszssccszsssszs" /><path
         id="path22-1-5-0-1-3-5"
         style="fill:#ffffff;stroke:none;stroke-width:0.264583;stroke-linecap:round;stroke-linejoin:round;stroke-dasharray:none;stroke-opacity:1;paint-order:markers stroke fill"
         d="m -65.352086,333.90419 c 0,1.46125 -1.184582,2.64583 -2.645834,2.64583 h -1.322917 c -1.461252,0 -2.645834,-1.18458 -2.645834,-2.64583 v -3.96877 c 0,-1.46125 1.184582,-2.64583 2.645834,-2.64583 h 1.322917 c 1.461252,0 2.645834,1.18458 2.645834,2.64583 h -2.645832 v -0.66147 c 0,-0.36531 -0.296149,-0.66145 -0.661461,-0.66145 -0.365311,0 -0.66146,0.29614 -0.66146,0.66145 v 5.29171 c 0,0.36531 0.296149,0.66145 0.66146,0.66145 0.365312,0 0.661461,-0.29614 0.661461,-0.66145 v -0.66147"
         sodipodi:nodetypes="cssssssccszsszsc" /></g><path
       id="path22-1-5-0-1-3-4-47"
       style="fill:#ffffff;stroke:none;stroke-width:1.05833;stroke-linecap:round;stroke-linejoin:round;stroke-dasharray:none;stroke-opacity:1;paint-order:markers stroke fill"
       d="m 99.751854,154.30044 c -5.845,0 -10.58332,4.73835 -10.58332,10.58334 h 10.58332 v -2.64583 c 0,-1.46124 1.184576,-2.64584 2.645816,-2.64584 1.46124,0 2.64584,1.1846 2.64584,2.64584 v 5.29163 c 0,1.46124 -1.1846,2.64584 -2.64584,2.64584 h -2.645816 v 5.29167 h 2.645816 c 1.46124,0 2.64584,1.1846 2.64584,2.64584 v 5.29163 c 0,1.46124 -1.18458,2.64584 -2.64584,2.64584 -1.46122,0 -2.645816,-1.1846 -2.645816,-2.64584 v -2.6458 h -10.58332 c 0,5.84496 4.73833,10.58331 10.58332,10.58331 h 5.291656 c 5.84499,0 10.58332,-4.73835 10.58332,-10.58331 0,-3.16251 -1.38732,-6.00027 -3.58635,-7.93959 2.19819,-1.93923 3.58635,-4.77359 3.58635,-7.93539 0,-5.84499 -4.73833,-10.58334 -10.58332,-10.58334 z"
       sodipodi:nodetypes="sccsssssccsssssccssscsss" /><path
       id="path22-1-5-0-1-3-4-4"
       style="fill:#ffffff;stroke:none;stroke-width:1.05833;stroke-linecap:round;stroke-linejoin:round;stroke-dasharray:none;stroke-opacity:1;paint-order:markers stroke fill"
       d="m 115.62684,180.75876 c 0,5.845 -4.73833,10.58331 -10.58332,10.58331 h -5.291664 c -5.845,0 -10.583324,-4.73831 -10.583324,-10.58331 h 10.583324 v 2.64588 c 0,1.46124 1.184584,2.6458 2.645844,2.6458 1.46124,0 2.64582,-1.18456 2.64582,-2.6458 v -10.58351 c 0,-1.46123 -1.18458,-2.64579 -2.64582,-2.64579 -1.46126,0 -2.645844,1.18456 -2.645844,2.64579 v 2.64588 H 89.168532 V 154.3004 h 26.458308 v 5.29163 H 99.751856 v 5.29167 h 5.291664 c 5.84499,0 10.58332,4.73832 10.58332,10.58331 z"
       sodipodi:nodetypes="sssccszsszscccccccsss" /><g
       id="g28"
       transform="matrix(1.999995,0,0,1.999995,192.62048,-568.01041)"><path
         id="path22-1-5-0-1-3-4"
         style="fill:#ffffff;stroke:none;stroke-width:0.264583;stroke-linecap:round;stroke-linejoin:round;stroke-dasharray:none;stroke-opacity:1;paint-order:markers stroke fill"
         d="m -40.481246,350.57294 h -1.322917 c -1.461252,0 -2.645834,-1.18458 -2.645834,-2.64583 h 2.645832 v 0.66147 c 0,0.36531 0.296149,0.66145 0.66146,0.66145 0.365312,0 0.661461,-0.29614 0.661461,-0.66145 v -1.32294 c 0,-0.36531 -0.296149,-0.66144 -0.661459,-0.66145 l -0.66146,-2e-5 c -1.461252,-4e-5 -2.645834,-1.18458 -2.645834,-2.64583 0,-1.46125 1.184582,-2.64583 2.645834,-2.64583 h 1.322917 c 1.461252,0 2.645834,1.18458 2.645834,2.64583 h -2.645832 v -0.66147 c 0,-0.36531 -0.296149,-0.66145 -0.661461,-0.66145 -0.365311,0 -0.66146,0.29614 -0.66146,0.66145 v 1.32294 c 0,0.36531 0.296149,0.66144 0.661459,0.66145 l 0.66146,2e-5 c 1.461252,4e-5 2.645834,1.18458 2.645834,2.64583 0,1.46125 -1.184582,2.64583 -2.645834,2.64583 z"
         sodipodi:nodetypes="ssccszsssszssccszsssszs" /><path
         id="path22-1-5-0-1-3-5-1"
         style="fill:#ffffff;stroke:none;stroke-width:0.264583;stroke-linecap:round;stroke-linejoin:round;stroke-dasharray:none;stroke-opacity:1;paint-order:markers stroke fill"
         d="m -52.387499,347.92711 c 0,1.46125 1.184582,2.64583 2.645834,2.64583 h 1.322917 c 1.461252,0 2.645834,-1.18458 2.645834,-2.64583 v -6.6146 h -2.645834 l 2e-6,7.27607 c 0,0.36531 -0.296149,0.66145 -0.66146,0.66145 -0.365312,0 -0.661461,-0.29614 -0.661461,-0.66145 v -0.66147"
         sodipodi:nodetypes="csssccszsc" /></g><path
       style="fill:none;fill-opacity:1;stroke:#ffa0c8;stroke-width:1.29065;stroke-linecap:round;stroke-linejoin:round;stroke-dasharray:none;stroke-opacity:1"
       d="M 115.75595,133.1337 H 68.001884 c -1.825256,0 -3.871951,2.0467 -3.871951,3.87196 v 23.29163 c 0,16.47619 18.910443,31.35852 25.813005,31.35852"
       id="path1"
       sodipodi:nodetypes="csssc" /></g></svg>
