<?xml version="1.0" encoding="UTF-8" standalone="no"?>
<!-- Created with Inkscape (http://www.inkscape.org/) -->

<svg
   width="500.00003"
   height="500.00003"
   viewBox="0 0 132.29167 132.29167"
   version="1.1"
   id="svg1"
   xml:space="preserve"
   inkscape:version="1.3 (0e150ed6c4, 2023-07-21)"
   sodipodi:docname="figma-off.svg"
   xmlns:inkscape="http://www.inkscape.org/namespaces/inkscape"
   xmlns:sodipodi="http://sodipodi.sourceforge.net/DTD/sodipodi-0.dtd"
   xmlns="http://www.w3.org/2000/svg"
   xmlns:svg="http://www.w3.org/2000/svg"><sodipodi:namedview
     id="namedview1"
     pagecolor="#505050"
     bordercolor="#eeeeee"
     borderopacity="1"
     inkscape:showpageshadow="0"
     inkscape:pageopacity="0"
     inkscape:pagecheckerboard="0"
     inkscape:deskcolor="#505050"
     inkscape:document-units="px"
     inkscape:zoom="1.0242632"
     inkscape:cx="-158.65063"
     inkscape:cy="99.095623"
     inkscape:window-width="1920"
     inkscape:window-height="1009"
     inkscape:window-x="-8"
     inkscape:window-y="131"
     inkscape:window-maximized="1"
     inkscape:current-layer="layer1" /><defs
     id="defs1">&#10;	&#10;	&#10;	&#10;	&#10;	&#10;	&#10;	&#10;	&#10;	&#10;	&#10;</defs><g
     inkscape:label="Layer 1"
     inkscape:groupmode="layer"
     id="layer1"
     transform="translate(-294.66385,-97.099258)"><g
       id="g15"
       transform="translate(151.186,91.286826)"
       style="opacity:0.33"><path
         id="circle5"
         style="fill:none;fill-opacity:1;stroke:#ccd9ff;stroke-width:1.98437;stroke-linecap:round;stroke-linejoin:round;stroke-dasharray:none;stroke-opacity:1"
         d="m 223.53514,97.538221 c -7.16238,3e-6 -12.96864,-5.806253 -12.96864,-12.968634 0,-7.162381 5.80626,-12.968638 12.96864,-12.968635 7.16238,3e-6 12.96863,5.806258 12.96863,12.968635"
         sodipodi:nodetypes="cssc" /><path
         id="circle8"
         style="fill:none;fill-opacity:1;stroke:#ccffd9;stroke-width:1.98437;stroke-linecap:round;stroke-linejoin:round;stroke-dasharray:none;stroke-opacity:1"
         d="m 195.48119,125.32759 c -7.16238,0 -12.96864,-5.80625 -12.96864,-12.96863 0,-7.16238 5.80626,-12.968656 12.96864,-12.968656 h 12.96863"
         sodipodi:nodetypes="cssc" /><path
         id="path12"
         style="fill:none;fill-opacity:1;stroke:#f2ccff;stroke-width:1.98437;stroke-linecap:round;stroke-linejoin:round;stroke-dasharray:none;stroke-opacity:1"
         d="m 195.48119,97.538219 c -7.16238,0 -12.96864,-5.80625 -12.96864,-12.96863 0,-7.16238 5.80626,-12.968635 12.96864,-12.968635 h 12.96863"
         sodipodi:nodetypes="cssc" /><path
         id="path13"
         style="fill:none;fill-opacity:1;stroke:#ffcccc;stroke-width:1.98437;stroke-linecap:round;stroke-linejoin:round;stroke-dasharray:none;stroke-opacity:1"
         d="m 195.48119,69.74887 c -7.16238,0 -12.96864,-5.80625 -12.96864,-12.96863 0,-7.16238 5.80626,-12.968635 12.96864,-12.968635 h 12.96863"
         sodipodi:nodetypes="cssc" /><path
         id="path14"
         style="fill:none;fill-opacity:1;stroke:#ffe6cc;stroke-width:1.98437;stroke-linecap:round;stroke-linejoin:round;stroke-dasharray:none;stroke-opacity:1"
         d="m 236.50377,56.78024 c 0,-7.16238 -5.80626,-12.968635 -12.96864,-12.968635 H 210.5665 V 69.74887"
         sodipodi:nodetypes="cscc" /></g><g
       id="g14"
       transform="translate(173.0375,110.91155)"
       style="stroke:#ffffff;stroke-opacity:1;fill:none;opacity:0.33;stroke-width:0.79374997;stroke-dasharray:none"><path
         sodipodi:nodetypes="ssccsssccsssccssscss"
         inkscape:connector-curvature="0"
         id="path2501"
         d="m 194.38687,-7.1464883 c -2.92254,0 -5.29174,2.3691389 -5.29174,5.2916375 V 11.374239 h 5.29174 V -3.1777702 c 0,-0.7306196 0.592,-1.3228993 1.32268,-1.3228993 0.7306,0 1.32292,0.5922797 1.32292,1.3228993 V 11.374239 h 5.29174 V -3.1777702 c 0,-0.7306196 0.59225,-1.3228993 1.32295,-1.3228993 0.7306,0 1.3229,0.5922797 1.3229,1.3228993 V 11.374239 h 5.29172 V -1.8548508 c 0,-2.9224986 -2.36918,-5.2916375 -5.29172,-5.2916375 h -2.64585 c -0.9642,0 -1.86738,0.2592399 -2.64586,0.7097597 -0.77854,-0.4505198 -1.68144,-0.7097597 -2.64562,-0.7097597 z"
         style="fill:none;fill-opacity:1;fill-rule:evenodd;stroke:#ffffff;stroke-width:0.79374997;stroke-linecap:round;stroke-linejoin:round;stroke-miterlimit:4;stroke-dasharray:none;stroke-dashoffset:0;stroke-opacity:1" /><path
         sodipodi:nodetypes="cssscccccsssscccc"
         inkscape:connector-curvature="0"
         id="path2244"
         d="m 220.8451,3.4367627 v -6.6145289 c 0,-0.7306396 -0.5923,-1.3229193 -1.3229,-1.3229193 -0.73066,0 -1.3229,0.5922797 -1.3229,1.3229193 v 6.6145289 z m -2.6458,2.6458388 v 5.2916375 h -5.29164 l -4e-5,-13.2290858 c 0,-2.9224986 2.36914,-5.2916375 5.29162,-5.2916375 h 2.6459 c 2.9225,0 5.29163,2.3691389 5.29163,5.2916375 l -6e-5,13.2290858 H 220.8451 V 6.0826015 Z"
         style="fill:none;fill-opacity:1;fill-rule:evenodd;stroke:#ffffff;stroke-width:0.79374997;stroke-linecap:round;stroke-linejoin:round;stroke-miterlimit:4;stroke-dasharray:none;stroke-dashoffset:0;stroke-opacity:1" /><path
         style="fill:none;fill-opacity:1;fill-rule:evenodd;stroke:#ffffff;stroke-width:0.79374997;stroke-linecap:round;stroke-linejoin:round;stroke-miterlimit:4;stroke-dasharray:none;stroke-dashoffset:0;stroke-opacity:1"
         d="m 154.69929,3.4367827 h 7.93743 V 0.79096398 h -7.93743 V -4.5006495 h 7.93743 v -2.6458388 h -13.22905 l -6e-5,18.5207273 h 5.29164 z"
         id="path955-3"
         inkscape:connector-curvature="0"
         sodipodi:nodetypes="ccccccccccc" /><path
         style="fill:none;fill-opacity:1;fill-rule:evenodd;stroke:#ffffff;stroke-width:0.79374997;stroke-linecap:round;stroke-linejoin:round;stroke-miterlimit:4;stroke-dasharray:none;stroke-dashoffset:0;stroke-opacity:1"
         d="m 181.15762,-1.8548508 v -1.3229394 c 0,-0.7306196 -0.59224,-1.3228993 -1.32292,-1.3228993 -0.73058,0 -1.32286,0.5922797 -1.32286,1.3228993 V 7.4055209 c 0,0.7306396 0.59228,1.3229193 1.32286,1.3229193 h 1.32292 V 3.4367827 H 179.8347 V 0.79096398 h 6.61459 V 11.374239 h -7.93753 c -2.92248,0 -5.29164,-2.3691389 -5.29164,-5.2916375 v -7.9374523 c 0,-2.9224986 2.36916,-5.2916375 5.29164,-5.2916375 h 2.6459 c 2.92249,0 5.29163,2.3691389 5.29163,5.2916375 z"
         id="path957"
         inkscape:connector-curvature="0"
         sodipodi:nodetypes="csssssccccccssssscc" /><path
         sodipodi:nodetypes="ccccc"
         inkscape:connector-curvature="0"
         id="path979"
         d="m 170.5742,-7.1464903 h -5.29164 l 6e-5,18.5207293 h 5.29166 z"
         style="fill:none;fill-opacity:1;fill-rule:evenodd;stroke:#ffffff;stroke-width:0.79374997;stroke-linecap:round;stroke-linejoin:round;stroke-miterlimit:4;stroke-dasharray:none;stroke-dashoffset:0;stroke-opacity:1" /></g></g></svg>
