<?xml version="1.0" encoding="UTF-8" standalone="no"?>
<!-- Created with Inkscape (http://www.inkscape.org/) -->

<svg
   width="500.00003"
   height="500.00003"
   viewBox="0 0 132.29167 132.29167"
   version="1.1"
   id="svg1"
   xml:space="preserve"
   inkscape:version="1.3 (0e150ed6c4, 2023-07-21)"
   sodipodi:docname="git.svg"
   xmlns:inkscape="http://www.inkscape.org/namespaces/inkscape"
   xmlns:sodipodi="http://sodipodi.sourceforge.net/DTD/sodipodi-0.dtd"
   xmlns="http://www.w3.org/2000/svg"
   xmlns:svg="http://www.w3.org/2000/svg"><sodipodi:namedview
     id="namedview1"
     pagecolor="#505050"
     bordercolor="#eeeeee"
     borderopacity="1"
     inkscape:showpageshadow="0"
     inkscape:pageopacity="0"
     inkscape:pagecheckerboard="0"
     inkscape:deskcolor="#505050"
     inkscape:document-units="px"
     inkscape:zoom="1.4485269"
     inkscape:cx="331.02595"
     inkscape:cy="243.35068"
     inkscape:window-width="1920"
     inkscape:window-height="1009"
     inkscape:window-x="-8"
     inkscape:window-y="-8"
     inkscape:window-maximized="1"
     inkscape:current-layer="layer1" /><defs
     id="defs1">&#10;	&#10;	&#10;	&#10;	&#10;	&#10;	&#10;	&#10;	&#10;	&#10;	&#10;<filter
   inkscape:collect="always"
   style="color-interpolation-filters:sRGB"
   id="filter1"
   x="-0.068904129"
   y="-0.068904021"
   width="1.1378083"
   height="1.137808"><feGaussianBlur
     inkscape:collect="always"
     stdDeviation="1.8985533"
     id="feGaussianBlur1" /></filter><filter
   inkscape:collect="always"
   style="color-interpolation-filters:sRGB"
   id="filter2"
   x="-0.032904101"
   y="-0.032904049"
   width="1.0658082"
   height="1.0658081"><feGaussianBlur
     inkscape:collect="always"
     stdDeviation="0.47463832"
     id="feGaussianBlur2" /></filter></defs><g
     inkscape:label="Layer 1"
     inkscape:groupmode="layer"
     id="layer1"
     transform="translate(-294.66385,-97.099258)"><path
       id="path1"
       style="opacity:1;fill:none;fill-opacity:1;stroke:#ffa333;stroke-width:3.96875;stroke-linecap:round;stroke-linejoin:round;stroke-dasharray:none;stroke-opacity:1;paint-order:markers stroke fill;filter:url(#filter2)"
       d="m 409.45276,173.81755 -44.99484,-44.99486 c -1.71979,-1.71979 -5.57669,-1.7198 -7.29646,-1e-5 l -11.22426,11.22433 c -1.71975,1.71977 -1.71977,5.57694 0,7.29671 l 11.68301,11.68301 c 0.97681,-0.53974 2.07347,-0.83015 3.18947,-0.83148 3.68192,-0.004 6.6713,2.98486 6.66678,6.66678 m -0.83148,3.18947 7.85882,7.85908 c 0.97676,-0.53992 2.07341,-0.83062 3.18947,-0.83199 3.68212,-0.005 6.66692,2.98527 6.66678,6.66729 m -6.66678,6.66678 c -3.68202,1.4e-4 -6.67181,-2.98466 -6.66729,-6.66678 10e-4,-1.11606 0.29207,-2.21271 0.83199,-3.18947 l -7.85882,-7.85908 m -1.31878,21.53409 c 2.84214,0.83095 4.79593,3.43694 4.79609,6.39806 m -6.66678,6.66677 c -3.68191,0 -6.66685,-2.98486 -6.66678,-6.66677 5e-5,-2.96132 1.95376,-5.56758 4.79609,-6.39858 v -20.97029 c -2.84233,-0.831 -4.80028,-3.43726 -4.79609,-6.39858 0.002,-1.11601 0.29174,-2.21266 0.83148,-3.18947 l -11.68301,-11.68301 c -1.71977,-1.71977 -5.57695,-1.71976 -7.29671,0 l -20.17965,20.17965 c -1.71978,1.71978 -1.71979,5.57692 0,7.29671 l 44.99467,44.99467"
       sodipodi:nodetypes="csssscscccsccscccccsccscssssc" /><path
       id="path2"
       style="opacity:1;fill:none;fill-opacity:1;stroke:#ffa333;stroke-width:3.96875;stroke-linecap:round;stroke-linejoin:round;stroke-dasharray:none;stroke-opacity:1;paint-order:markers stroke fill;filter:url(#filter1)"
       d="m 409.45276,173.81755 -44.99484,-44.99486 c -1.71979,-1.71979 -5.57669,-1.7198 -7.29646,-1e-5 l -11.22426,11.22433 c -1.71975,1.71977 -1.71977,5.57694 0,7.29671 l 11.68301,11.68301 c 0.97681,-0.53974 2.07347,-0.83015 3.18947,-0.83148 3.68192,-0.004 6.6713,2.98486 6.66678,6.66678 m -0.83148,3.18947 7.85882,7.85908 c 0.97676,-0.53992 2.07341,-0.83062 3.18947,-0.83199 3.68212,-0.005 6.66692,2.98527 6.66678,6.66729 m -6.66678,6.66678 c -3.68202,1.4e-4 -6.67181,-2.98466 -6.66729,-6.66678 10e-4,-1.11606 0.29207,-2.21271 0.83199,-3.18947 l -7.85882,-7.85908 m -1.31878,21.53409 c 2.84214,0.83095 4.79593,3.43694 4.79609,6.39806 m -6.66678,6.66677 c -3.68191,0 -6.66685,-2.98486 -6.66678,-6.66677 5e-5,-2.96132 1.95376,-5.56758 4.79609,-6.39858 v -20.97029 c -2.84233,-0.831 -4.80028,-3.43726 -4.79609,-6.39858 0.002,-1.11601 0.29174,-2.21266 0.83148,-3.18947 l -11.68301,-11.68301 c -1.71977,-1.71977 -5.57695,-1.71976 -7.29671,0 l -20.17965,20.17965 c -1.71978,1.71978 -1.71979,5.57692 0,7.29671 l 44.99467,44.99467"
       sodipodi:nodetypes="csssscscccsccscccccsccscssssc" /><path
       id="path8"
       style="opacity:1;fill:none;fill-opacity:1;stroke:#ffe8cc;stroke-width:2.64583;stroke-linecap:round;stroke-linejoin:round;stroke-dasharray:none;stroke-opacity:1;paint-order:markers stroke fill"
       d="m 409.45276,173.81755 -44.99484,-44.99486 c -1.71979,-1.71979 -5.57669,-1.7198 -7.29646,-1e-5 l -11.22426,11.22433 c -1.71975,1.71977 -1.71977,5.57694 0,7.29671 l 11.68301,11.68301 c 0.97681,-0.53974 2.07347,-0.83015 3.18947,-0.83148 3.68192,-0.004 6.6713,2.98486 6.66678,6.66678 m -0.83148,3.18947 7.85882,7.85908 c 0.97676,-0.53992 2.07341,-0.83062 3.18947,-0.83199 3.68212,-0.005 6.66692,2.98527 6.66678,6.66729 m -6.66678,6.66678 c -3.68202,1.4e-4 -6.67181,-2.98466 -6.66729,-6.66678 10e-4,-1.11606 0.29207,-2.21271 0.83199,-3.18947 l -7.85882,-7.85908 m -1.31878,21.53409 c 2.84214,0.83095 4.79593,3.43694 4.79609,6.39806 m -6.66678,6.66677 c -3.68191,0 -6.66685,-2.98486 -6.66678,-6.66677 5e-5,-2.96132 1.95376,-5.56758 4.79609,-6.39858 v -20.97029 c -2.84233,-0.831 -4.80028,-3.43726 -4.79609,-6.39858 0.002,-1.11601 0.29174,-2.21266 0.83148,-3.18947 l -11.68301,-11.68301 c -1.71977,-1.71977 -5.57695,-1.71976 -7.29671,0 l -20.17965,20.17965 c -1.71978,1.71978 -1.71979,5.57692 0,7.29671 l 44.99467,44.99467"
       sodipodi:nodetypes="csssscscccsccscccccsccscssssc" /><g
       id="g8"
       transform="translate(-32.279205,21.217806)"
       style="opacity:1;fill:#ffffff;fill-opacity:1;stroke:none;stroke-width:0.79375;stroke-linecap:square;stroke-linejoin:miter;stroke-dasharray:none;stroke-opacity:1"><path
         sodipodi:nodetypes="ccccccccc"
         inkscape:connector-curvature="0"
         id="path2250"
         d="m 407.64104,83.340978 h 3.96874 V 80.69509 H 398.3807 l -4e-5,2.645888 h 3.96871 v 15.874925 h 5.29167 z"
         style="fill:#ffffff;fill-opacity:1;fill-rule:evenodd;stroke:none;stroke-width:0.79375;stroke-linecap:square;stroke-linejoin:miter;stroke-miterlimit:4;stroke-dasharray:none;stroke-dashoffset:0;stroke-opacity:1" /><path
         style="fill:#ffffff;fill-opacity:1;fill-rule:evenodd;stroke:none;stroke-width:0.79375;stroke-linecap:square;stroke-linejoin:miter;stroke-miterlimit:4;stroke-dasharray:none;stroke-dashoffset:0;stroke-opacity:1"
         d="m 382.50553,85.986727 v -1.322943 c 0,-0.730622 -0.59224,-1.322904 -1.32292,-1.322904 -0.73058,0 -1.32286,0.592282 -1.32286,1.322904 V 95.24713 c 0,0.730642 0.59228,1.322923 1.32286,1.322923 h 1.32292 v -5.291675 h -1.32292 v -2.645827 h 6.61462 v 10.58331 h -7.93756 c -2.92249,0 -5.29166,-2.369147 -5.29166,-5.291655 v -7.937479 c 0,-2.922508 2.36917,-5.291655 5.29166,-5.291655 h 2.6459 c 2.92251,0 5.29166,2.369147 5.29166,5.291655 z"
         id="path957"
         inkscape:connector-curvature="0"
         sodipodi:nodetypes="csssssccccccssssscc" /><path
         sodipodi:nodetypes="ccccc"
         inkscape:connector-curvature="0"
         id="path979"
         d="m 390.44316,80.69507 h 5.29165 l -6e-5,18.520791 h -5.29167 z"
         style="fill:#ffffff;fill-opacity:1;fill-rule:evenodd;stroke:none;stroke-width:0.79375;stroke-linecap:square;stroke-linejoin:miter;stroke-miterlimit:4;stroke-dasharray:none;stroke-dashoffset:0;stroke-opacity:1" /></g></g></svg>
