<?xml version="1.0" encoding="UTF-8" standalone="no"?>
<!-- Created with Inkscape (http://www.inkscape.org/) -->

<svg
   width="500.00003"
   height="500.00003"
   viewBox="0 0 132.29167 132.29167"
   version="1.1"
   id="svg1"
   xml:space="preserve"
   inkscape:version="1.3 (0e150ed6c4, 2023-07-21)"
   sodipodi:docname="HTML.svg"
   xmlns:inkscape="http://www.inkscape.org/namespaces/inkscape"
   xmlns:sodipodi="http://sodipodi.sourceforge.net/DTD/sodipodi-0.dtd"
   xmlns="http://www.w3.org/2000/svg"
   xmlns:svg="http://www.w3.org/2000/svg"><sodipodi:namedview
     id="namedview1"
     pagecolor="#505050"
     bordercolor="#eeeeee"
     borderopacity="1"
     inkscape:showpageshadow="0"
     inkscape:pageopacity="0"
     inkscape:pagecheckerboard="0"
     inkscape:deskcolor="#505050"
     inkscape:document-units="px"
     inkscape:zoom="1.6259999"
     inkscape:cx="249.69251"
     inkscape:cy="250.00002"
     inkscape:window-width="1920"
     inkscape:window-height="1009"
     inkscape:window-x="-8"
     inkscape:window-y="131"
     inkscape:window-maximized="1"
     inkscape:current-layer="layer1" /><defs
     id="defs1">&#10;	&#10;	&#10;	&#10;	&#10;	&#10;	&#10;	&#10;	&#10;	&#10;	&#10;<filter
   inkscape:collect="always"
   style="color-interpolation-filters:sRGB"
   id="filter5"
   x="-0.055657197"
   y="-0.049098691"
   width="1.1113144"
   height="1.0981974"><feGaussianBlur
     inkscape:collect="always"
     stdDeviation="1.0440977"
     id="feGaussianBlur5" /></filter><filter
   inkscape:collect="always"
   style="color-interpolation-filters:sRGB"
   id="filter9"
   x="-0.16493652"
   y="-0.14550082"
   width="1.329873"
   height="1.2910016"><feGaussianBlur
     inkscape:collect="always"
     stdDeviation="4.1763908"
     id="feGaussianBlur9" /></filter></defs><g
     inkscape:label="Layer 1"
     inkscape:groupmode="layer"
     id="layer1"
     transform="translate(-238.91513,-22.966621)"><g
       id="g11"
       transform="translate(215.11802,-74.132619)"><path
         id="path9"
         style="fill:none;fill-opacity:1;stroke:#ff2a2a;stroke-width:2.64583;stroke-linecap:round;stroke-linejoin:round;stroke-dasharray:none;stroke-opacity:1;paint-order:markers stroke fill;filter:url(#filter9)"
         d="m 89.942964,185.52128 c 1.947098,0 3.525548,-1.57843 3.525548,-3.52553 v -14.10252 c 0,-1.94709 -1.57845,-3.52551 -3.525548,-3.52551 m -3.525587,7.05114 H 72.315104 V 143.21437 H 107.57079 M 124.33876,133.1337 H 60.706501 c -2.432152,0 -5.159372,2.72723 -5.159372,5.15939 v 31.03608 c 0,21.95451 25.198154,41.78521 34.395814,41.78521 M 107.57079,150.26546 H 86.417377 m 0,7.05115 h 7.051135 c 7.788448,0 14.102278,6.31381 14.102278,14.10225 m -14.102278,21.15351 h -7.051135 c -7.788459,0 -14.102273,-6.31379 -14.102273,-14.10225 h 14.102273"
         sodipodi:nodetypes="cssccccccsssccccsccscc" /><path
         id="path5"
         style="mix-blend-mode:normal;fill:none;fill-opacity:1;stroke:#ff2a2a;stroke-width:2.64583;stroke-linecap:round;stroke-linejoin:round;stroke-dasharray:none;stroke-opacity:1;paint-order:markers stroke fill;filter:url(#filter5)"
         d="m 89.942964,185.52128 c 1.947098,0 3.525548,-1.57843 3.525548,-3.52553 v -14.10252 c 0,-1.94709 -1.57845,-3.52551 -3.525548,-3.52551 m -3.525587,7.05114 H 72.315104 V 143.21437 H 107.57079 M 124.33876,133.1337 H 60.706501 c -2.432152,0 -5.159372,2.72723 -5.159372,5.15939 v 31.03608 c 0,21.95451 25.198154,41.78521 34.395814,41.78521 M 107.57079,150.26546 H 86.417377 m 0,7.05115 h 7.051135 c 7.788448,0 14.102278,6.31381 14.102278,14.10225 m -14.102278,21.15351 h -7.051135 c -7.788459,0 -14.102273,-6.31379 -14.102273,-14.10225 h 14.102273"
         sodipodi:nodetypes="cssccccccsssccccsccscc" /><path
         id="path22-1-5-0-1-3-4-4"
         style="fill:none;fill-opacity:1;stroke:#ffd5d5;stroke-width:1.32292;stroke-linecap:round;stroke-linejoin:round;stroke-dasharray:none;stroke-opacity:1;paint-order:markers stroke fill"
         d="m 89.942964,185.52128 c 1.947098,0 3.525548,-1.57843 3.525548,-3.52553 v -14.10252 c 0,-1.94709 -1.57845,-3.52551 -3.525548,-3.52551 m -3.525587,7.05114 H 72.315104 V 143.21437 H 107.57079 M 124.33876,133.1337 H 60.706501 c -2.432152,0 -5.159372,2.72723 -5.159372,5.15939 v 31.03608 c 0,21.95451 25.198154,41.78521 34.395814,41.78521 M 107.57079,150.26546 H 86.417377 m 0,7.05115 h 7.051135 c 7.788448,0 14.102278,6.31381 14.102278,14.10225 m -14.102278,21.15351 h -7.051135 c -7.788459,0 -14.102273,-6.31379 -14.102273,-14.10225 h 14.102273"
         sodipodi:nodetypes="cssccccccsssccccsccscc" /><g
         id="g27"
         transform="matrix(1.999995,0,0,1.999995,212.97669,-524.95138)"><g
           id="g29"
           transform="translate(0,7.9375197)"><path
             id="path22-1-0"
             style="fill:#ffffff;stroke:none;stroke-width:0.264583;stroke-linecap:round;stroke-linejoin:round;stroke-dasharray:none;stroke-opacity:1;paint-order:markers stroke fill"
             d="m -60.194099,306.55374 c -1.46125,0 -2.645833,1.18459 -2.645833,2.64584 v 6.61458 h 2.645833 v -7.27604 c 0,-0.36531 0.296149,-0.66146 0.661458,-0.66146 0.36531,0 0.661459,0.29615 0.661459,0.66146 v 7.27604 h 2.645833 v -7.27604 c 0,-0.36531 0.296149,-0.66146 0.661458,-0.66146 0.36531,0 0.661459,0.29615 0.661459,0.66146 v 7.27604 h 2.645833 v -6.61458 c 0,-1.46125 -1.184583,-2.64584 -2.645833,-2.64584 h -1.322917 c -0.481873,0 -0.933259,0.12942 -1.3224,0.3545 -0.38931,-0.22535 -0.84125,-0.3545 -1.323433,-0.3545 z"
             sodipodi:nodetypes="ssccsssccsssccssscss" /><path
             id="path13-1-2-3"
             style="fill:#ffffff;stroke:none;stroke-width:4.20033;stroke-linecap:round;stroke-linejoin:round;paint-order:markers stroke fill"
             d="m -48.287826,314.49124 h 3.968751 v 1.32292 h -6.614585 v -9.26044 h 2.645834 z"
             sodipodi:nodetypes="ccccccc" /><path
             id="path13-1-2-3-3"
             style="fill:#ffffff;stroke:none;stroke-width:4.20033;stroke-linecap:round;stroke-linejoin:round;paint-order:markers stroke fill"
             d="m -70.777456,306.55372 v 1.32292 h 1.984375 v 7.93752 h 2.645834 v -7.93752 h 1.984376 v -1.32292 z"
             sodipodi:nodetypes="ccccccccc" /><path
             id="path13-1-2-3-6"
             style="fill:#ffffff;stroke:none;stroke-width:4.20033;stroke-linecap:round;stroke-linejoin:round;paint-order:markers stroke fill"
             d="m -76.069146,311.8454 h 1.322917 v 3.96876 h 2.645834 v -9.26044 h -2.645834 v 3.96876 h -1.322917 v -3.96876 h -2.645834 v 9.26044 h 2.645834 z"
             sodipodi:nodetypes="ccccccccccccc" /></g></g></g></g></svg>
