<?xml version="1.0" encoding="UTF-8" standalone="no"?>
<!-- Created with Inkscape (http://www.inkscape.org/) -->

<svg
   width="500.00003"
   height="500.00003"
   viewBox="0 0 132.29167 132.29167"
   version="1.1"
   id="svg1"
   xml:space="preserve"
   inkscape:version="1.3 (0e150ed6c4, 2023-07-21)"
   sodipodi:docname="HTML - Copie.svg"
   xmlns:inkscape="http://www.inkscape.org/namespaces/inkscape"
   xmlns:sodipodi="http://sodipodi.sourceforge.net/DTD/sodipodi-0.dtd"
   xmlns="http://www.w3.org/2000/svg"
   xmlns:svg="http://www.w3.org/2000/svg"><sodipodi:namedview
     id="namedview1"
     pagecolor="#505050"
     bordercolor="#eeeeee"
     borderopacity="1"
     inkscape:showpageshadow="0"
     inkscape:pageopacity="0"
     inkscape:pagecheckerboard="0"
     inkscape:deskcolor="#505050"
     inkscape:document-units="px"
     inkscape:zoom="6.5039996"
     inkscape:cx="700.72268"
     inkscape:cy="236.23925"
     inkscape:window-width="1920"
     inkscape:window-height="1009"
     inkscape:window-x="-8"
     inkscape:window-y="131"
     inkscape:window-maximized="1"
     inkscape:current-layer="layer1" /><defs
     id="defs1">&#10;	&#10;	&#10;	&#10;	&#10;	&#10;	&#10;	&#10;	&#10;	&#10;	&#10;</defs><g
     inkscape:label="Layer 1"
     inkscape:groupmode="layer"
     id="layer1"
     transform="translate(-238.91513,-22.966621)"><path
       id="path13-1-2-3-6-3"
       style="fill:#ffffff;stroke:none;stroke-width:8.40064;stroke-linecap:round;stroke-linejoin:round;paint-order:markers stroke fill"
       d="m 398.72336,90.170768 h 5.29165 V 71.649934 h -5.29165 z"
       sodipodi:nodetypes="ccccc" /><path
       id="path22-1-5-0-1-3-7"
       style="fill:#ff4e4e;fill-opacity:1;stroke:none;stroke-width:0.529165;stroke-linecap:round;stroke-linejoin:round;stroke-dasharray:none;stroke-opacity:1;paint-order:markers stroke fill"
       d="m 406.66084,103.39991 h -2.64582 c -2.9225,0 -5.29166,-2.36915 -5.29166,-5.291633 h 5.29165 v 1.322937 c 0,0.730606 0.5923,1.322886 1.32292,1.322886 0.73062,0 1.32292,-0.59228 1.32292,-1.322886 v -2.645873 c 0,-0.730618 -0.5923,-1.322877 -1.32292,-1.322897 l -1.32291,-4e-5 c -2.9225,-8e-5 -5.29166,-2.369154 -5.29166,-5.291647 0,-2.922492 2.36916,-5.291646 5.29166,-5.291646 h 2.64582 c 2.9225,0 5.29166,2.369154 5.29166,5.291646 h -5.29165 v -1.322936 c 0,-0.730619 -0.5923,-1.322897 -1.32292,-1.322897 -0.73062,0 -1.32292,0.592278 -1.32292,1.322897 v 2.645873 c 0,0.730618 0.5923,1.322877 1.32292,1.322897 l 1.32291,4e-5 c 2.9225,8e-5 5.29166,2.369154 5.29166,5.291646 0,2.922483 -2.36916,5.291633 -5.29166,5.291633 z"
       sodipodi:nodetypes="ssccszsssszssccszsssszs" /><path
       id="path22-1-0"
       style="fill:#ffffff;stroke:none;stroke-width:0.529165;stroke-linecap:round;stroke-linejoin:round;stroke-dasharray:none;stroke-opacity:1;paint-order:markers stroke fill"
       d="m 307.70681,29.896947 c -2.92249,0 -5.29165,2.369174 -5.29165,5.291667 v 13.229127 h 5.29165 V 33.865697 c 0,-0.730618 0.5923,-1.322916 1.32292,-1.322916 0.73061,0 1.32291,0.592298 1.32291,1.322916 v 14.552044 h 5.29165 V 33.865697 c 0,-0.730618 0.5923,-1.322916 1.32292,-1.322916 0.73061,0 1.32291,0.592298 1.32291,1.322916 v 14.552044 h 5.29165 V 35.188614 c 0,-2.922493 -2.36916,-5.291667 -5.29165,-5.291667 h -2.64583 c -0.96374,0 -1.86651,0.25884 -2.64479,0.708998 -0.77862,-0.450698 -1.6825,-0.708998 -2.64686,-0.708998 z"
       sodipodi:nodetypes="ssccsssccsssccssscss" /><path
       id="path13-1-2-3"
       style="fill:#ffffff;stroke:none;stroke-width:8.40064;stroke-linecap:round;stroke-linejoin:round;paint-order:markers stroke fill"
       d="m 331.5193,45.771908 h 7.93748 v 2.645833 H 326.22764 V 29.896907 h 5.29166 z"
       sodipodi:nodetypes="ccccccc" /><path
       id="path13-1-2-3-3"
       style="fill:#ffffff;stroke:none;stroke-width:8.40064;stroke-linecap:round;stroke-linejoin:round;paint-order:markers stroke fill"
       d="m 286.54015,29.896907 v 2.645834 h 3.96874 v 15.875 h 5.29166 v -15.875 h 3.96874 v -2.645834 z"
       sodipodi:nodetypes="ccccccccc" /><path
       id="path13-1-2-3-3-7"
       style="fill:#ffffff;stroke:none;stroke-width:8.40064;stroke-linecap:round;stroke-linejoin:round;paint-order:markers stroke fill"
       d="m 366.97338,71.64995 v 2.645834 h 3.96874 v 15.875 h 5.29166 v -15.875 h 3.96874 V 71.64995 Z"
       sodipodi:nodetypes="ccccccccc" /><path
       id="path13-1-2-3-6"
       style="fill:#ffffff;stroke:none;stroke-width:8.40064;stroke-linecap:round;stroke-linejoin:round;paint-order:markers stroke fill"
       d="m 275.9568,40.480241 h 2.64583 v 7.9375 h 5.29165 V 29.896907 h -5.29165 v 7.9375 h -2.64583 v -7.9375 h -5.29166 v 18.520834 h 5.29166 z"
       sodipodi:nodetypes="ccccccccccccc" /><path
       id="path22-1-5-0-1-3"
       style="fill:#ffffff;fill-opacity:1;stroke:none;stroke-width:0.529165;stroke-linecap:round;stroke-linejoin:round;stroke-dasharray:none;stroke-opacity:1;paint-order:markers stroke fill"
       d="m 365.9151,48.41773 h -2.64582 c -2.9225,0 -5.29166,-2.369154 -5.29166,-5.291647 h 5.29165 v 1.322937 c 0,0.730618 0.5923,1.322897 1.32292,1.322897 0.73062,0 1.32292,-0.592279 1.32292,-1.322897 v -2.645873 c 0,-0.730618 -0.5923,-1.322877 -1.32292,-1.322897 l -1.32291,-4e-5 c -2.9225,-8e-5 -5.29166,-2.369154 -5.29166,-5.291647 0,-2.922492 2.36916,-5.291646 5.29166,-5.291646 h 2.64582 c 2.9225,0 5.29166,2.369154 5.29166,5.291646 h -5.29165 v -1.322936 c 0,-0.730619 -0.5923,-1.322897 -1.32292,-1.322897 -0.73062,0 -1.32292,0.592278 -1.32292,1.322897 V 36.5115 c 0,0.730618 0.5923,1.322877 1.32292,1.322897 l 1.32291,4e-5 c 2.9225,8e-5 5.29166,2.369154 5.29166,5.291646 0,2.922493 -2.36916,5.291647 -5.29166,5.291647 z"
       sodipodi:nodetypes="ssccszsssszssccszsssszs" /><path
       id="path22-1-5-0-1-3-5"
       style="fill:#ffffff;fill-opacity:1;stroke:none;stroke-width:0.529165;stroke-linecap:round;stroke-linejoin:round;stroke-dasharray:none;stroke-opacity:1;paint-order:markers stroke fill"
       d="m 355.33179,43.126083 c 0,2.922493 -2.36915,5.291647 -5.29165,5.291647 h -2.64583 c -2.92249,0 -5.29165,-2.369154 -5.29165,-5.291647 v -7.93752 c 0,-2.922492 2.36916,-5.291646 5.29165,-5.291646 h 2.64583 c 2.9225,0 5.29165,2.369154 5.29165,5.291646 h -5.29165 v -1.322936 c 0,-0.730619 -0.59229,-1.322897 -1.32291,-1.322897 -0.73062,0 -1.32292,0.592278 -1.32292,1.322897 V 44.44902 c 0,0.730618 0.5923,1.322897 1.32292,1.322897 0.73062,0 1.32291,-0.592279 1.32291,-1.322897 v -1.322937"
       sodipodi:nodetypes="cssssssccszsszsc" /><path
       id="path22-1-5-0-1-3-6"
       style="fill:#ff8080;fill-opacity:1;stroke:none;stroke-width:0.529165;stroke-linecap:round;stroke-linejoin:round;stroke-dasharray:none;stroke-opacity:1;paint-order:markers stroke fill"
       d="m 414.59832,90.170757 h -2.64582 c -2.9225,0 -5.29166,-2.369154 -5.29166,-5.291647 h 5.29165 v 1.322937 c 0,0.730618 0.5923,1.322897 1.32292,1.322897 0.73062,0 1.32292,-0.592279 1.32292,-1.322897 v -2.645873 c 0,-0.730618 -0.5923,-1.322877 -1.32292,-1.322897 l -1.32291,-3.9e-5 c -2.9225,-8e-5 -5.29166,-2.369154 -5.29166,-5.291647 0,-2.922493 2.36916,-5.291646 5.29166,-5.291646 h 2.64582 c 2.9225,0 5.29166,2.369153 5.29166,5.291646 h -5.29165 v -1.322936 c 0,-0.73062 -0.5923,-1.322897 -1.32292,-1.322897 -0.73062,0 -1.32292,0.592277 -1.32292,1.322897 v 2.645872 c 0,0.730619 0.5923,1.322878 1.32292,1.322897 l 1.32291,4e-5 c 2.9225,8e-5 5.29166,2.369154 5.29166,5.291646 0,2.922493 -2.36916,5.291647 -5.29166,5.291647 z"
       sodipodi:nodetypes="ssccszsssszssccszsssszs" /><path
       id="path22-1-5-0-1-3-6-6"
       style="fill:#ff8080;fill-opacity:1;stroke:none;stroke-width:0.529165;stroke-linecap:round;stroke-linejoin:round;stroke-dasharray:none;stroke-opacity:1;paint-order:markers stroke fill"
       d="m 435.76512,84.879119 1.32292,2.645833 c 0.73062,0 1.32292,0.592301 1.32292,1.322917 v 2.645833 c 0,0.730617 -0.5923,1.322896 -1.32292,1.322916 h -1.32292 v 2.645834 h 1.32292 c 0.73062,2e-5 1.32292,0.592299 1.32292,1.322916 v 2.645834 c 0,0.730618 -0.5923,1.322918 -1.32292,1.322918 -0.73062,0 -1.32292,-0.5923 -1.32292,-1.322918 v -1.322917 h -5.29166 c 0,2.922495 2.36917,5.291665 5.29166,5.291665 h 2.64584 c 2.92249,0 5.29166,-2.36917 5.29166,-5.291665 0,-1.581001 -0.69447,-2.999115 -1.79369,-3.96875 1.09922,-0.969635 1.79369,-2.387749 1.79369,-3.96875 0,-2.92249 -2.36917,-5.291666 -5.29166,-5.291666 z"
       sodipodi:nodetypes="ccssccccssssccssscssc" /><path
       id="path13-1-2-3-6-3-2"
       style="fill:#ffffff;stroke:none;stroke-width:8.40064;stroke-linecap:round;stroke-linejoin:round;paint-order:markers stroke fill"
       d="M 427.82746,103.39994 H 414.59833 V 84.87911 h 13.22913 v 2.645814 h -7.93748 v 5.291667 h 7.93748 v 2.645853 h -7.93748 v 5.291656 h 7.93748 z"
       sodipodi:nodetypes="ccccccccccccc" /><path
       id="path22-1-5-0-1-3-5-6"
       style="fill:#ffffff;fill-opacity:1;stroke:none;stroke-width:0.529165;stroke-linecap:round;stroke-linejoin:round;stroke-dasharray:none;stroke-opacity:1;paint-order:markers stroke fill"
       d="m 332.57758,79.58744 v 10.583324 h -7.93748 c -2.92249,0 -5.29165,-2.369154 -5.29165,-5.291647 v -7.93752 c 0,-2.922492 2.36916,-5.291646 5.29165,-5.291646 h 2.64583 c 2.9225,0 5.29165,2.369154 5.29165,5.291646 h -5.29165 v -1.322936 c 0,-0.730619 -0.59229,-1.322897 -1.32291,-1.322897 -0.73062,0 -1.32292,0.592278 -1.32292,1.322897 v 10.583393 c 0,0.730618 0.5923,1.322897 1.32292,1.322897 0.73062,0 1.32291,-0.592279 1.32291,-1.322897 v -3.96878 h -1.32291 V 79.58744 Z"
       sodipodi:nodetypes="ccsssssccszsszscccc" /><path
       id="path3"
       style="fill:#ffffff;fill-opacity:1;stroke:none;stroke-width:0.529165;stroke-linecap:round;stroke-linejoin:round;stroke-dasharray:none;stroke-opacity:1;paint-order:markers stroke fill"
       d="M 364.32756,90.170753 V 76.941596 c 0,-2.922492 -2.36916,-5.291646 -5.29165,-5.291646 h -2.64583 c -2.9225,0 -5.29165,2.369154 -5.29165,5.291646 v 13.229157 h 5.29165 V 75.61866 c 0,-0.730619 0.59229,-1.322897 1.32291,-1.322897 0.73062,0 1.32292,0.592278 1.32292,1.322897 v 14.552093 z"
       sodipodi:nodetypes="cssssccszscc" /><path
       id="path3-9-3"
       style="fill:#ffffff;fill-opacity:1;stroke:none;stroke-width:0.529165;stroke-linecap:round;stroke-linejoin:round;stroke-dasharray:none;stroke-opacity:1;paint-order:markers stroke fill"
       d="m 388.14005,86.202043 c 0,0.730619 0.59229,1.322897 1.32291,1.322897 0.73062,0 1.32292,-0.592278 1.32292,-1.322897 V 75.61866 c 0,-0.730619 -0.5923,-1.322897 -1.32292,-1.322897 -0.73062,0 -1.32291,0.592278 -1.32291,1.322897 z m -5.29165,-9.260447 c 0,-2.922492 2.36915,-5.291646 5.29165,-5.291646 h 2.64583 c 2.92249,0 5.29165,2.369154 5.29165,5.291646 v 7.937511 c 0,2.922492 -2.36916,5.291646 -5.29165,5.291646 h -2.64583 c -2.9225,0 -5.29165,-2.369154 -5.29165,-5.291646 z"
       sodipodi:nodetypes="szsszsssssssssss" /><path
       id="path4"
       style="fill:#ffffff;fill-opacity:1;stroke:none;stroke-width:0.529165;stroke-linecap:round;stroke-linejoin:round;stroke-dasharray:none;stroke-opacity:1;paint-order:markers stroke fill"
       d="M 343.16095,82.233274 V 75.61865 c 0,-0.730619 -0.59229,-1.322897 -1.32291,-1.322897 -0.73062,0 -1.32292,0.592278 -1.32292,1.322897 v 6.614624 z m -2.64583,2.645834 v 5.291645 h -5.29165 V 76.941586 c 0,-2.922492 2.36916,-5.291646 5.29165,-5.291646 h 2.64583 c 2.9225,0 5.29165,2.369154 5.29165,5.291646 v 13.229167 h -5.29165 v -5.291645 z"
       sodipodi:nodetypes="cszscccccsssscccc" /></g></svg>
