<?xml version="1.0" encoding="UTF-8" standalone="no"?>
<!-- Created with Inkscape (http://www.inkscape.org/) -->

<svg
   width="123.73917mm"
   height="123.73917mm"
   viewBox="0 0 123.73917 123.73917"
   version="1.1"
   id="svg1"
   xml:space="preserve"
   inkscape:version="1.3 (0e150ed6c4, 2023-07-21)"
   sodipodi:docname="inkscape-off.svg"
   xmlns:inkscape="http://www.inkscape.org/namespaces/inkscape"
   xmlns:sodipodi="http://sodipodi.sourceforge.net/DTD/sodipodi-0.dtd"
   xmlns="http://www.w3.org/2000/svg"
   xmlns:svg="http://www.w3.org/2000/svg"><sodipodi:namedview
     id="namedview1"
     pagecolor="#505050"
     bordercolor="#eeeeee"
     borderopacity="1"
     inkscape:showpageshadow="0"
     inkscape:pageopacity="0"
     inkscape:pagecheckerboard="0"
     inkscape:deskcolor="#505050"
     inkscape:document-units="mm"
     inkscape:zoom="1.4485269"
     inkscape:cx="135.65506"
     inkscape:cy="227.47248"
     inkscape:window-width="1920"
     inkscape:window-height="1009"
     inkscape:window-x="-8"
     inkscape:window-y="-8"
     inkscape:window-maximized="1"
     inkscape:current-layer="layer1" /><defs
     id="defs1" /><g
     inkscape:label="Layer 1"
     inkscape:groupmode="layer"
     id="layer1"
     transform="translate(-100.11011,-5.007205)"><path
       style="fill:none;stroke:#ffffff;stroke-width:1.984375;stroke-linecap:round;stroke-linejoin:round;stroke-dasharray:none;opacity:0.33"
       d="m 184.91229,57.917486 15.16867,15.168665 c 1.06566,1.065659 1.58628,2.791537 1.56336,4.511593 m -2.10162,20.698638 c -0.0309,-1.780644 -2.91794,-2.764761 -4.74994,-2.764761 -1.832,0 -4.77918,0.880921 -4.74995,2.764761 0.0292,1.883838 3.27622,2.825028 5.10821,2.764758 m -3.53255,4.18731 c -0.019,-1.78065 -1.79725,-2.76477 -2.92563,-2.76477 -1.12839,0 -2.94365,0.88092 -2.92565,2.76477 0.018,1.88384 2.01793,2.82502 3.14631,2.76476 m -4.86126,-10.687029 c 0,-2.19904 -5.71327,-1.09952 -5.71327,-3.29856 m -5.00652,17.628849 c 0,-1.22486 -3.54937,-0.96618 -3.54937,-2.19104 M 144.6311,105.4793 c -0.022,-1.78065 -2.07286,-2.76476 -3.37428,-2.76476 -1.30141,0 -3.39504,0.88092 -3.37427,2.76476 0.0208,1.88384 2.32736,2.82503 3.62878,2.76476 m 25.66778,7.42132 c 0,0 -4.39388,0.60245 -6.43803,0 -3.54209,-1.04391 -2.32273,-4.70748 -5.72199,-5.23948 -1.53739,-0.24061 -4.21234,-0.70041 -6.12975,-1.64246 -1.27986,-0.62881 -2.31238,-3.06081 0.279,-4.55694 2.59137,-1.49614 1.41641,-3.50516 0.27899,-3.99896 l -15.7092,-6.819907 c -1.43701,-0.623857 -1.2443,-2.405481 0,-3.123879 l 5.1131,-2.952049 c 1.62802,-0.93994 2.17134,-3.143027 0,-3.724839 L 124.52364,79.7678 c -3.25631,-0.872525 -2.61855,-4.655625 0,-7.315908 l 31.12361,-31.619604 c 3.64798,-3.706113 8.04942,-4.226428 12.27585,0 l 11.03586,11.035862 c 1.49314,1.493139 2.09839,5.107995 0.372,6.323921 -1.72607,1.215694 -3.88523,-3.306483 -5.82793,-2.479969 -1.7094,0.727259 -0.21451,4.642282 -1.98397,5.207935 -1.70342,0.544537 -2.67617,-3.02026 -4.46395,-2.975963 -2.77676,0.0688 -3.99652,5.614481 -6.69591,4.959939 -2.91023,-0.705665 -3.96796,-8.0599 -3.96796,-8.0599 -1.22716,4.579819 -7.46599,10.066731 -14.13582,6.943913"
       id="path5"
       sodipodi:nodetypes="cscczzcczzcccccczzccssszssssssssssssssacc" /><g
       id="g1"
       style="fill:#ffffff;fill-opacity:1"><path
         style="fill:#ffffff;fill-opacity:1;fill-rule:evenodd;stroke:none;stroke-width:0.529166;stroke-linecap:round;stroke-linejoin:round;stroke-miterlimit:4;stroke-dasharray:none;stroke-dashoffset:0;stroke-opacity:1"
         d="m 127.58389,11.37535 v 18.520833 h 5.29168 v -0.59738 l 1.32292,-2.986902 1.58751,3.584282 h 5.02708 l -4.10104,-9.260406 4.10104,-9.260427 H 135.786 l -2.91147,6.573246 V 11.37535 Z"
         id="path1205"
         inkscape:connector-curvature="0"
         sodipodi:nodetypes="ccccccccccccc" /><path
         id="path22-1-5-0-1-3-53"
         style="fill:#ffffff;fill-opacity:1;stroke:none;stroke-width:0.529165;stroke-linecap:round;stroke-linejoin:round;stroke-dasharray:none;stroke-opacity:1;paint-order:markers stroke fill"
         d="m 151.39637,29.89615 h -2.64582 c -2.9225,0 -5.29166,-2.36915 -5.29166,-5.29165 h 5.29165 v 1.32294 c 0,0.73062 0.5923,1.3229 1.32292,1.3229 0.73062,0 1.32292,-0.59228 1.32292,-1.3229 v -2.64587 c 0,-0.73062 -0.5923,-1.32288 -1.32292,-1.3229 l -1.32291,-4e-5 c -2.9225,-8e-5 -5.29166,-2.36915 -5.29166,-5.29165 0,-2.92249 2.36916,-5.29164 5.29166,-5.29164 h 2.64582 c 2.9225,0 5.29166,2.36915 5.29166,5.29164 h -5.29165 v -1.32293 c 0,-0.73062 -0.5923,-1.3229 -1.32292,-1.3229 -0.73062,0 -1.32292,0.59228 -1.32292,1.3229 v 2.64587 c 0,0.73062 0.5923,1.32288 1.32292,1.3229 l 1.32291,4e-5 c 2.9225,8e-5 5.29166,2.36915 5.29166,5.29164 0,2.9225 -2.36916,5.29165 -5.29166,5.29165 z"
         sodipodi:nodetypes="ssccszsssszssccszsssszs" /><path
         id="path22-1-5-0-1-3-3"
         style="fill:#ffffff;fill-opacity:1;stroke:none;stroke-width:0.529165;stroke-linecap:round;stroke-linejoin:round;stroke-dasharray:none;stroke-opacity:1;paint-order:markers stroke fill"
         d="m 199.02132,21.95863 c 2.9225,0 5.29166,-2.36915 5.29166,-5.29164 0,-2.9225 -2.36916,-5.29165 -5.29166,-5.29165 h -7.93748 v 18.52081 h 5.29165 v -7.93752 z m -2.64583,-2.64581 v -5.29167 h 1.32292 c 0.73062,0 1.32292,0.59228 1.32292,1.3229 v 2.64587 c 0,0.73062 -0.5923,1.3229 -1.32292,1.3229 z"
         sodipodi:nodetypes="szsccccsccssssc" /><path
         id="path13-1-2-3-6-3-0"
         style="fill:#ffffff;stroke:none;stroke-width:8.40064;stroke-linecap:round;stroke-linejoin:round;paint-order:markers stroke fill;fill-opacity:1"
         d="m 109.0631,29.89617 h -5.29165 V 11.37534 h 5.29165 z"
         sodipodi:nodetypes="ccccc" /><path
         id="path22-1-5-0-1-3-5-6-3"
         style="fill:#ffffff;fill-opacity:1;stroke:none;stroke-width:0.529165;stroke-linecap:round;stroke-linejoin:round;stroke-dasharray:none;stroke-opacity:1;paint-order:markers stroke fill"
         d="m 164.62551,15.34406 c 0,-0.73062 0.5923,-1.32289 1.32292,-1.32289 0.73062,0 1.32291,0.59227 1.32291,1.32289 V 16.667 h 5.29165 c 0,-2.92249 -2.36915,-5.29165 -5.29165,-5.29165 h -2.64583 c -2.92249,0 -5.29165,2.36916 -5.29165,5.29165 v 7.93752 c 0,2.92249 2.36916,5.29165 5.29165,5.29165 h 2.64583 c 2.9225,0 5.29165,-2.36916 5.29165,-5.29165 h -5.29165 v 1.32294 c 0,0.73062 -0.59229,1.32289 -1.32291,1.32289 -0.73062,0 -1.32292,-0.59227 -1.32292,-1.32289 z"
         sodipodi:nodetypes="szsccssssssccszss" /><path
         id="path3-5"
         style="fill:#ffffff;fill-opacity:1;stroke:none;stroke-width:0.529165;stroke-linecap:round;stroke-linejoin:round;stroke-dasharray:none;stroke-opacity:1;paint-order:markers stroke fill"
         d="M 124.93807,29.89615 V 16.667 c 0,-2.92249 -2.36917,-5.29165 -5.29166,-5.29165 h -2.64582 c -2.92251,0 -5.29165,2.36916 -5.29165,5.29165 v 13.22915 h 5.29165 V 15.34406 c 0,-0.73062 0.59228,-1.3229 1.3229,-1.3229 0.73062,0 1.32292,0.59228 1.32292,1.3229 v 14.55209 z"
         sodipodi:nodetypes="cssssccszscc" /><path
         id="path4-6"
         style="fill:#ffffff;fill-opacity:1;stroke:none;stroke-width:0.529165;stroke-linecap:round;stroke-linejoin:round;stroke-dasharray:none;stroke-opacity:1;paint-order:markers stroke fill"
         d="m 183.14636,21.95868 v -6.61463 c 0,-0.73062 -0.59229,-1.3229 -1.32291,-1.3229 -0.73062,0 -1.32292,0.59228 -1.32292,1.3229 v 6.61463 z m -2.64583,2.64583 v 5.29164 h -5.29165 V 16.66699 c 0,-2.92249 2.36916,-5.29165 5.29165,-5.29165 h 2.64583 c 2.9225,0 5.29165,2.36916 5.29165,5.29165 v 13.22916 h -5.29165 v -5.29164 z"
         sodipodi:nodetypes="cszscccccsssscccc" /><path
         id="path5-8"
         style="fill:#ffffff;stroke:none;stroke-width:8.40064;stroke-linecap:round;stroke-linejoin:round;paint-order:markers stroke fill;fill-opacity:1"
         d="M 220.18794,29.89616 H 206.95881 V 11.37533 h 13.22913 v 2.64582 h -7.93748 v 5.29166 h 7.93748 v 2.64586 h -7.93748 v 5.29165 h 7.93748 z"
         sodipodi:nodetypes="ccccccccccccc" /></g></g></svg>
