<?xml version="1.0" encoding="UTF-8" standalone="no"?>
<!-- Created with Inkscape (http://www.inkscape.org/) -->

<svg
   width="123.73917mm"
   height="123.73917mm"
   viewBox="0 0 123.73917 123.73917"
   version="1.1"
   id="svg1"
   xml:space="preserve"
   inkscape:version="1.3 (0e150ed6c4, 2023-07-21)"
   sodipodi:docname="inkscape.svg"
   xmlns:inkscape="http://www.inkscape.org/namespaces/inkscape"
   xmlns:sodipodi="http://sodipodi.sourceforge.net/DTD/sodipodi-0.dtd"
   xmlns="http://www.w3.org/2000/svg"
   xmlns:svg="http://www.w3.org/2000/svg"><sodipodi:namedview
     id="namedview1"
     pagecolor="#505050"
     bordercolor="#eeeeee"
     borderopacity="1"
     inkscape:showpageshadow="0"
     inkscape:pageopacity="0"
     inkscape:pagecheckerboard="0"
     inkscape:deskcolor="#505050"
     inkscape:document-units="mm"
     inkscape:zoom="1.4485269"
     inkscape:cx="177.7668"
     inkscape:cy="393.84839"
     inkscape:window-width="1920"
     inkscape:window-height="1009"
     inkscape:window-x="-8"
     inkscape:window-y="-8"
     inkscape:window-maximized="1"
     inkscape:current-layer="layer1" /><defs
     id="defs1"><filter
       inkscape:collect="always"
       style="color-interpolation-filters:sRGB"
       id="filter6"
       x="-0.080966487"
       y="-0.082269382"
       width="1.1619412"
       height="1.1648157"><feGaussianBlur
         inkscape:collect="always"
         stdDeviation="3.2791861"
         id="feGaussianBlur6" /></filter><filter
       inkscape:collect="always"
       style="color-interpolation-filters:sRGB"
       id="filter7"
       x="-0.036914228"
       y="-0.037509562"
       width="1.0738346"
       height="1.0752226"><feGaussianBlur
         inkscape:collect="always"
         stdDeviation="0.81979653"
         id="feGaussianBlur7" /></filter></defs><g
     inkscape:label="Layer 1"
     inkscape:groupmode="layer"
     id="layer1"
     transform="translate(-100.11011,-5.007205)"><path
       style="fill:none;stroke:#cccccc;stroke-width:11.0237;stroke-linecap:round;stroke-linejoin:round;stroke-dasharray:none;stroke-opacity:1;filter:url(#filter6)"
       d="m 159.64206,80.734309 31.59964,31.599631 c 2.22,2.22 3.30457,5.81538 3.25682,9.39863 m -4.37812,43.11977 c -0.0644,-3.70947 -6.07872,-5.7596 -9.89517,-5.7596 -3.81645,0 -9.95607,1.83515 -9.89517,5.7596 0.0609,3.92445 6.82507,5.88515 10.64151,5.7596 m -7.35907,8.72306 c -0.0396,-3.70947 -3.74406,-5.7596 -6.09474,-5.7596 -2.35067,0 -6.13225,1.83515 -6.09475,5.7596 0.0375,3.92445 4.20378,5.88515 6.55444,5.7596 m -10.12707,-22.2634 c 0,-4.58108 -11.90198,-2.29054 -11.90198,-6.87162 m -10.42966,36.72473 c 0,-2.55166 -7.39412,-2.01276 -7.39412,-4.56441 m -52.397052,-8.30398 c -0.04575,-3.70947 -4.31821,-5.7596 -7.029345,-5.7596 -2.711135,0 -7.072606,1.83515 -7.029344,5.7596 0.04326,3.92445 4.848403,5.88515 7.55953,5.7596 m 53.471581,15.46023 c 0,0 -9.15342,1.25503 -13.41183,0 -7.37894,-2.17471 -4.83874,-9.80672 -11.920134,-10.91498 -3.202731,-0.50124 -8.775223,-1.45912 -12.769614,-3.42161 -2.666214,-1.30994 -4.817185,-6.37633 0.581211,-9.4931 5.398395,-3.11677 2.95071,-7.30201 0.58121,-8.33069 L 53.035144,154.66801 c -2.993601,-1.29963 -2.592152,-5.01114 0,-6.50772 l 10.651693,-6.14976 c 3.391522,-1.9581 4.523379,-6.54761 0,-7.75965 l -29.847473,-7.99761 c -6.7836,-1.81766 -5.455018,-9.69868 0,-15.24063 L 98.67662,45.142123 c 7.59953,-7.72064 16.76869,-8.80457 25.57326,0 l 22.9901,22.990103 c 3.11053,3.110534 4.37141,10.641064 0.77495,13.174104 -3.59577,2.532555 -8.09377,-6.888125 -12.14084,-5.166315 -3.56106,1.515039 -0.44687,9.670883 -4.13305,10.849261 -3.54858,1.134389 -5.57503,-6.291859 -9.29937,-6.199579 -5.7846,0.143332 -8.32563,11.696186 -13.94905,10.332633 -6.06264,-1.470054 -8.26611,-16.790525 -8.26611,-16.790525 -2.556439,9.54076 -15.553294,20.971192 -29.447993,14.465681"
       id="path7"
       sodipodi:nodetypes="cscczzcczzcccccczzccssszssssssssssssssacc"
       transform="matrix(0.48002665,0,0,0.48002665,108.27985,19.162866)" /><path
       style="fill:none;stroke:#cccccc;stroke-width:8.26777;stroke-linecap:round;stroke-linejoin:round;stroke-dasharray:none;stroke-opacity:1;filter:url(#filter7)"
       d="m 159.64206,80.734309 31.59964,31.599631 c 2.22,2.22 3.30457,5.81538 3.25682,9.39863 m -4.37812,43.11977 c -0.0644,-3.70947 -6.07872,-5.7596 -9.89517,-5.7596 -3.81645,0 -9.95607,1.83515 -9.89517,5.7596 0.0609,3.92445 6.82507,5.88515 10.64151,5.7596 m -7.35907,8.72306 c -0.0396,-3.70947 -3.74406,-5.7596 -6.09474,-5.7596 -2.35067,0 -6.13225,1.83515 -6.09475,5.7596 0.0375,3.92445 4.20378,5.88515 6.55444,5.7596 m -10.12707,-22.2634 c 0,-4.58108 -11.90198,-2.29054 -11.90198,-6.87162 m -10.42966,36.72473 c 0,-2.55166 -7.39412,-2.01276 -7.39412,-4.56441 m -52.397052,-8.30398 c -0.04575,-3.70947 -4.31821,-5.7596 -7.029345,-5.7596 -2.711135,0 -7.072606,1.83515 -7.029344,5.7596 0.04326,3.92445 4.848403,5.88515 7.55953,5.7596 m 53.471581,15.46023 c 0,0 -9.15342,1.25503 -13.41183,0 -7.37894,-2.17471 -4.83874,-9.80672 -11.920134,-10.91498 -3.202731,-0.50124 -8.775223,-1.45912 -12.769614,-3.42161 -2.666214,-1.30994 -4.817185,-6.37633 0.581211,-9.4931 5.398395,-3.11677 2.95071,-7.30201 0.58121,-8.33069 L 53.035144,154.66801 c -2.993601,-1.29963 -2.592152,-5.01114 0,-6.50772 l 10.651693,-6.14976 c 3.391522,-1.9581 4.523379,-6.54761 0,-7.75965 l -29.847473,-7.99761 c -6.7836,-1.81766 -5.455018,-9.69868 0,-15.24063 L 98.67662,45.142123 c 7.59953,-7.72064 16.76869,-8.80457 25.57326,0 l 22.9901,22.990103 c 3.11053,3.110534 4.37141,10.641064 0.77495,13.174104 -3.59577,2.532555 -8.09377,-6.888125 -12.14084,-5.166315 -3.56106,1.515039 -0.44687,9.670883 -4.13305,10.849261 -3.54858,1.134389 -5.57503,-6.291859 -9.29937,-6.199579 -5.7846,0.143332 -8.32563,11.696186 -13.94905,10.332633 -6.06264,-1.470054 -8.26611,-16.790525 -8.26611,-16.790525 -2.556439,9.54076 -15.553294,20.971192 -29.447993,14.465681"
       id="path6"
       sodipodi:nodetypes="cscczzcczzcccccczzccssszssssssssssssssacc"
       transform="matrix(0.48002665,0,0,0.48002665,108.27985,19.162866)" /><path
       style="fill:none;stroke:#ffffff;stroke-width:2.64583333;stroke-linecap:round;stroke-linejoin:round;stroke-dasharray:none"
       d="m 184.91229,57.917486 15.16867,15.168665 c 1.06566,1.065659 1.58628,2.791537 1.56336,4.511593 m -2.10162,20.698638 c -0.0309,-1.780644 -2.91794,-2.764761 -4.74994,-2.764761 -1.832,0 -4.77918,0.880921 -4.74995,2.764761 0.0292,1.883838 3.27622,2.825028 5.10821,2.764758 m -3.53255,4.18731 c -0.019,-1.78065 -1.79725,-2.76477 -2.92563,-2.76477 -1.12839,0 -2.94365,0.88092 -2.92565,2.76477 0.018,1.88384 2.01793,2.82502 3.14631,2.76476 m -4.86126,-10.687029 c 0,-2.19904 -5.71327,-1.09952 -5.71327,-3.29856 m -5.00652,17.628849 c 0,-1.22486 -3.54937,-0.96618 -3.54937,-2.19104 M 144.6311,105.4793 c -0.022,-1.78065 -2.07286,-2.76476 -3.37428,-2.76476 -1.30141,0 -3.39504,0.88092 -3.37427,2.76476 0.0208,1.88384 2.32736,2.82503 3.62878,2.76476 m 25.66778,7.42132 c 0,0 -4.39388,0.60245 -6.43803,0 -3.54209,-1.04391 -2.32273,-4.70748 -5.72199,-5.23948 -1.53739,-0.24061 -4.21234,-0.70041 -6.12975,-1.64246 -1.27986,-0.62881 -2.31238,-3.06081 0.279,-4.55694 2.59137,-1.49614 1.41641,-3.50516 0.27899,-3.99896 l -15.7092,-6.819907 c -1.43701,-0.623857 -1.2443,-2.405481 0,-3.123879 l 5.1131,-2.952049 c 1.62802,-0.93994 2.17134,-3.143027 0,-3.724839 L 124.52364,79.7678 c -3.25631,-0.872525 -2.61855,-4.655625 0,-7.315908 l 31.12361,-31.619604 c 3.64798,-3.706113 8.04942,-4.226428 12.27585,0 l 11.03586,11.035862 c 1.49314,1.493139 2.09839,5.107995 0.372,6.323921 -1.72607,1.215694 -3.88523,-3.306483 -5.82793,-2.479969 -1.7094,0.727259 -0.21451,4.642282 -1.98397,5.207935 -1.70342,0.544537 -2.67617,-3.02026 -4.46395,-2.975963 -2.77676,0.0688 -3.99652,5.614481 -6.69591,4.959939 -2.91023,-0.705665 -3.96796,-8.0599 -3.96796,-8.0599 -1.22716,4.579819 -7.46599,10.066731 -14.13582,6.943913"
       id="path5"
       sodipodi:nodetypes="cscczzcczzcccccczzccssszssssssssssssssacc" /><g
       id="g1"
       style="fill:#ffffff;fill-opacity:1"><path
         style="fill:#ffffff;fill-opacity:1;fill-rule:evenodd;stroke:none;stroke-width:0.529166;stroke-linecap:round;stroke-linejoin:round;stroke-miterlimit:4;stroke-dasharray:none;stroke-dashoffset:0;stroke-opacity:1"
         d="m 127.58389,11.37535 v 18.520833 h 5.29168 v -0.59738 l 1.32292,-2.986902 1.58751,3.584282 h 5.02708 l -4.10104,-9.260406 4.10104,-9.260427 H 135.786 l -2.91147,6.573246 V 11.37535 Z"
         id="path1205"
         inkscape:connector-curvature="0"
         sodipodi:nodetypes="ccccccccccccc" /><path
         id="path22-1-5-0-1-3-53"
         style="fill:#ffffff;fill-opacity:1;stroke:none;stroke-width:0.529165;stroke-linecap:round;stroke-linejoin:round;stroke-dasharray:none;stroke-opacity:1;paint-order:markers stroke fill"
         d="m 151.39637,29.89615 h -2.64582 c -2.9225,0 -5.29166,-2.36915 -5.29166,-5.29165 h 5.29165 v 1.32294 c 0,0.73062 0.5923,1.3229 1.32292,1.3229 0.73062,0 1.32292,-0.59228 1.32292,-1.3229 v -2.64587 c 0,-0.73062 -0.5923,-1.32288 -1.32292,-1.3229 l -1.32291,-4e-5 c -2.9225,-8e-5 -5.29166,-2.36915 -5.29166,-5.29165 0,-2.92249 2.36916,-5.29164 5.29166,-5.29164 h 2.64582 c 2.9225,0 5.29166,2.36915 5.29166,5.29164 h -5.29165 v -1.32293 c 0,-0.73062 -0.5923,-1.3229 -1.32292,-1.3229 -0.73062,0 -1.32292,0.59228 -1.32292,1.3229 v 2.64587 c 0,0.73062 0.5923,1.32288 1.32292,1.3229 l 1.32291,4e-5 c 2.9225,8e-5 5.29166,2.36915 5.29166,5.29164 0,2.9225 -2.36916,5.29165 -5.29166,5.29165 z"
         sodipodi:nodetypes="ssccszsssszssccszsssszs" /><path
         id="path22-1-5-0-1-3-3"
         style="fill:#ffffff;fill-opacity:1;stroke:none;stroke-width:0.529165;stroke-linecap:round;stroke-linejoin:round;stroke-dasharray:none;stroke-opacity:1;paint-order:markers stroke fill"
         d="m 199.02132,21.95863 c 2.9225,0 5.29166,-2.36915 5.29166,-5.29164 0,-2.9225 -2.36916,-5.29165 -5.29166,-5.29165 h -7.93748 v 18.52081 h 5.29165 v -7.93752 z m -2.64583,-2.64581 v -5.29167 h 1.32292 c 0.73062,0 1.32292,0.59228 1.32292,1.3229 v 2.64587 c 0,0.73062 -0.5923,1.3229 -1.32292,1.3229 z"
         sodipodi:nodetypes="szsccccsccssssc" /><path
         id="path13-1-2-3-6-3-0"
         style="fill:#ffffff;stroke:none;stroke-width:8.40064;stroke-linecap:round;stroke-linejoin:round;paint-order:markers stroke fill;fill-opacity:1"
         d="m 109.0631,29.89617 h -5.29165 V 11.37534 h 5.29165 z"
         sodipodi:nodetypes="ccccc" /><path
         id="path22-1-5-0-1-3-5-6-3"
         style="fill:#ffffff;fill-opacity:1;stroke:none;stroke-width:0.529165;stroke-linecap:round;stroke-linejoin:round;stroke-dasharray:none;stroke-opacity:1;paint-order:markers stroke fill"
         d="m 164.62551,15.34406 c 0,-0.73062 0.5923,-1.32289 1.32292,-1.32289 0.73062,0 1.32291,0.59227 1.32291,1.32289 V 16.667 h 5.29165 c 0,-2.92249 -2.36915,-5.29165 -5.29165,-5.29165 h -2.64583 c -2.92249,0 -5.29165,2.36916 -5.29165,5.29165 v 7.93752 c 0,2.92249 2.36916,5.29165 5.29165,5.29165 h 2.64583 c 2.9225,0 5.29165,-2.36916 5.29165,-5.29165 h -5.29165 v 1.32294 c 0,0.73062 -0.59229,1.32289 -1.32291,1.32289 -0.73062,0 -1.32292,-0.59227 -1.32292,-1.32289 z"
         sodipodi:nodetypes="szsccssssssccszss" /><path
         id="path3-5"
         style="fill:#ffffff;fill-opacity:1;stroke:none;stroke-width:0.529165;stroke-linecap:round;stroke-linejoin:round;stroke-dasharray:none;stroke-opacity:1;paint-order:markers stroke fill"
         d="M 124.93807,29.89615 V 16.667 c 0,-2.92249 -2.36917,-5.29165 -5.29166,-5.29165 h -2.64582 c -2.92251,0 -5.29165,2.36916 -5.29165,5.29165 v 13.22915 h 5.29165 V 15.34406 c 0,-0.73062 0.59228,-1.3229 1.3229,-1.3229 0.73062,0 1.32292,0.59228 1.32292,1.3229 v 14.55209 z"
         sodipodi:nodetypes="cssssccszscc" /><path
         id="path4-6"
         style="fill:#ffffff;fill-opacity:1;stroke:none;stroke-width:0.529165;stroke-linecap:round;stroke-linejoin:round;stroke-dasharray:none;stroke-opacity:1;paint-order:markers stroke fill"
         d="m 183.14636,21.95868 v -6.61463 c 0,-0.73062 -0.59229,-1.3229 -1.32291,-1.3229 -0.73062,0 -1.32292,0.59228 -1.32292,1.3229 v 6.61463 z m -2.64583,2.64583 v 5.29164 h -5.29165 V 16.66699 c 0,-2.92249 2.36916,-5.29165 5.29165,-5.29165 h 2.64583 c 2.9225,0 5.29165,2.36916 5.29165,5.29165 v 13.22916 h -5.29165 v -5.29164 z"
         sodipodi:nodetypes="cszscccccsssscccc" /><path
         id="path5-8"
         style="fill:#ffffff;stroke:none;stroke-width:8.40064;stroke-linecap:round;stroke-linejoin:round;paint-order:markers stroke fill;fill-opacity:1"
         d="M 220.18794,29.89616 H 206.95881 V 11.37533 h 13.22913 v 2.64582 h -7.93748 v 5.29166 h 7.93748 v 2.64586 h -7.93748 v 5.29165 h 7.93748 z"
         sodipodi:nodetypes="ccccccccccccc" /></g></g></svg>
