<?xml version="1.0" encoding="UTF-8" standalone="no"?>
<svg
   xml:space="preserve"
   width="888"
   height="888"
   viewBox="0 0 888 888"
   version="1.1"
   id="svg444"
   sodipodi:docname="instagram-off.svg"
   inkscape:version="1.3 (0e150ed6c4, 2023-07-21)"
   xmlns:inkscape="http://www.inkscape.org/namespaces/inkscape"
   xmlns:sodipodi="http://sodipodi.sourceforge.net/DTD/sodipodi-0.dtd"
   xmlns:xlink="http://www.w3.org/1999/xlink"
   xmlns="http://www.w3.org/2000/svg"
   xmlns:svg="http://www.w3.org/2000/svg"><defs
     id="defs444"><linearGradient
       id="linearGradient143"
       inkscape:collect="always"><stop
         style="stop-color:#fff2cc;stop-opacity:1;"
         offset="0"
         id="stop143" /><stop
         style="stop-color:#ffe6cc;stop-opacity:1;"
         offset="0.21621622"
         id="stop145" /><stop
         style="stop-color:#ffcccc;stop-opacity:1;"
         offset="0.45540541"
         id="stop146" /><stop
         style="stop-color:#ffccee;stop-opacity:1;"
         offset="0.70810813"
         id="stop148" /><stop
         style="stop-color:#d4ccff;stop-opacity:1;"
         offset="1"
         id="stop144" /></linearGradient><radialGradient
       inkscape:collect="always"
       xlink:href="#linearGradient143"
       id="radialGradient384"
       cx="240.77744"
       cy="704.99414"
       fx="240.77744"
       fy="704.99414"
       r="389.18"
       gradientUnits="userSpaceOnUse"
       gradientTransform="matrix(4.1752425,0,0,1.6945843,-801.3042,-492.01573)" /></defs><sodipodi:namedview
     id="namedview444"
     pagecolor="#505050"
     bordercolor="#eeeeee"
     borderopacity="1"
     inkscape:showpageshadow="0"
     inkscape:pageopacity="0"
     inkscape:pagecheckerboard="0"
     inkscape:deskcolor="#505050"
     inkscape:zoom="0.91554053"
     inkscape:cx="389.38746"
     inkscape:cy="466.93727"
     inkscape:window-width="1920"
     inkscape:window-height="1009"
     inkscape:window-x="-8"
     inkscape:window-y="-8"
     inkscape:window-maximized="1"
     inkscape:current-layer="g143" /><g
     id="g143"
     style="stroke:url(#radialGradient384);stroke-opacity:1;stroke-width:10;stroke-dasharray:none;opacity:0.33;fill:none"><path
       style="fill:none;fill-opacity:1;stroke:url(#radialGradient384);stroke-width:10;stroke-linecap:round;stroke-linejoin:round;stroke-dasharray:none;stroke-opacity:1"
       d="m 660.36,828.36 h -60 c -6.62742,0 -12,-5.37258 -12,-12 0,-6.62742 -5.37258,-12 -12,-12 h -60"
       id="path137"
       sodipodi:nodetypes="cszsc" /><path
       id="path130"
       style="fill:none;stroke:url(#radialGradient384);stroke-width:10;stroke-linecap:round;stroke-linejoin:round;stroke-opacity:1;fill-opacity:1;stroke-dasharray:none"
       d="M 204,180 V 72 c 0,-6.627417 -5.37258,-12 -12,-12 H 72 c -6.62742,0 -12,5.372583 -12,12 v 120 c 0,6.62742 5.37258,12 12,12 h 108"
       sodipodi:nodetypes="cssssssc" /><path
       style="opacity:1;fill:none;fill-opacity:1;stroke:url(#radialGradient384);stroke-width:10;stroke-linecap:round;stroke-linejoin:round;stroke-dasharray:none;stroke-opacity:1"
       d="m 324.36,60.36 v 0"
       id="path2" /><path
       style="opacity:1;fill:none;fill-opacity:1;stroke:url(#radialGradient384);stroke-width:10;stroke-linecap:round;stroke-linejoin:round;stroke-dasharray:none;stroke-opacity:1"
       d="m 372.36,60.36 0,36 c 0,6.62742 -5.37258,12 -12,12 l -24,0 c -6.62742,0 -12,5.37258 -12,12 0,6.62742 -5.37258,12 -12,12 -6.62742,0 -12,-5.37258 -12,-12 v -24 c 0,-6.62742 -5.37258,-12 -12,-12 -6.62742,0 -12,5.37258 -12,12 0,6.62742 -5.37258,12 -12,12 -6.62742,0 -12,5.37258 -12,12 v 96 c 0,6.62742 5.37258,12 12,12 h 24 c 6.62742,0 12,-5.37258 12,-12 v -36"
       id="path3"
       sodipodi:nodetypes="cssszssssszsssssc" /><path
       style="opacity:1;fill:none;fill-opacity:1;stroke:url(#radialGradient384);stroke-width:10;stroke-linecap:round;stroke-linejoin:round;stroke-dasharray:none;stroke-opacity:1"
       d="m 252.36,180.36 h 96"
       id="path4" /><path
       style="opacity:1;fill:none;fill-opacity:1;stroke:url(#radialGradient384);stroke-width:10;stroke-linecap:round;stroke-linejoin:round;stroke-dasharray:none;stroke-opacity:1"
       d="m 348.36,204.36 v -96"
       id="path5" /><path
       style="opacity:1;fill:none;fill-opacity:1;stroke:url(#radialGradient384);stroke-width:10;stroke-linecap:round;stroke-linejoin:round;stroke-dasharray:none;stroke-opacity:1"
       d="m 396.36,132.36 h 48"
       id="path7" /><path
       style="opacity:1;fill:none;fill-opacity:1;stroke:url(#radialGradient384);stroke-width:10;stroke-linecap:round;stroke-linejoin:round;stroke-dasharray:none;stroke-opacity:1"
       d="m 444.36,324.36 h -48"
       id="path11" /><path
       style="opacity:1;fill:none;fill-opacity:1;stroke:url(#radialGradient384);stroke-width:10;stroke-linecap:round;stroke-linejoin:round;stroke-dasharray:none;stroke-opacity:1"
       d="m 492.36,204.36 v 24"
       id="path13" /><path
       style="opacity:1;fill:none;fill-opacity:1;stroke:url(#radialGradient384);stroke-width:10;stroke-linecap:round;stroke-linejoin:round;stroke-dasharray:none;stroke-opacity:1"
       d="m 444.36,204.36 v -24"
       id="path14" /><path
       style="opacity:1;fill:none;fill-opacity:1;stroke:url(#radialGradient384);stroke-width:10;stroke-linecap:round;stroke-linejoin:round;stroke-dasharray:none;stroke-opacity:1"
       d="m 444.36,60.36 h 72"
       id="path15" /><path
       style="opacity:1;fill:none;fill-opacity:1;stroke:url(#radialGradient384);stroke-width:10;stroke-linecap:round;stroke-linejoin:round;stroke-dasharray:none;stroke-opacity:1"
       d="m 612.36,60.36 v 0"
       id="path19" /><path
       style="opacity:1;fill:none;fill-opacity:1;stroke:url(#radialGradient384);stroke-width:10;stroke-linecap:round;stroke-linejoin:round;stroke-dasharray:none;stroke-opacity:1"
       d="m 588.36,180.36 v 24"
       id="path21" /><path
       style="opacity:1;fill:none;fill-opacity:1;stroke:url(#radialGradient384);stroke-width:10;stroke-linecap:round;stroke-linejoin:round;stroke-dasharray:none;stroke-opacity:1"
       d="m 540.36,180.36 v 24"
       id="path22" /><path
       style="opacity:1;fill:none;fill-opacity:1;stroke:url(#radialGradient384);stroke-width:10;stroke-linecap:round;stroke-linejoin:round;stroke-dasharray:none;stroke-opacity:1"
       d="m 636.36,204.36 v 0"
       id="path23" /><path
       style="opacity:1;fill:none;fill-opacity:1;stroke:url(#radialGradient384);stroke-width:10;stroke-linecap:round;stroke-linejoin:round;stroke-dasharray:none;stroke-opacity:1"
       d="m 636.36,252.36 v 0"
       id="path24" /><path
       style="opacity:1;fill:none;fill-opacity:1;stroke:url(#radialGradient384);stroke-width:10;stroke-linecap:round;stroke-linejoin:round;stroke-dasharray:none;stroke-opacity:1"
       d="m 564.36,228.36 v 0"
       id="path25" /><path
       style="opacity:1;fill:none;fill-opacity:1;stroke:url(#radialGradient384);stroke-width:10;stroke-linecap:round;stroke-linejoin:round;stroke-dasharray:none;stroke-opacity:1"
       d="m 612.36,276.36 h -24"
       id="path26" /><path
       style="opacity:1;fill:none;fill-opacity:1;stroke:url(#radialGradient384);stroke-width:10;stroke-linecap:round;stroke-linejoin:round;stroke-dasharray:none;stroke-opacity:1"
       d="m 588.36,252.36 v 72"
       id="path27" /><path
       style="opacity:1;fill:none;fill-opacity:1;stroke:url(#radialGradient384);stroke-width:10;stroke-linecap:round;stroke-linejoin:round;stroke-dasharray:none;stroke-opacity:1"
       d="m 612.36,348.36 h 48"
       id="path29" /><path
       style="opacity:1;fill:none;fill-opacity:1;stroke:url(#radialGradient384);stroke-width:10;stroke-linecap:round;stroke-linejoin:round;stroke-dasharray:none;stroke-opacity:1"
       d="m 636.36,300.36 h 24"
       id="path30" /><path
       style="opacity:1;fill:none;fill-opacity:1;stroke:url(#radialGradient384);stroke-width:10;stroke-linecap:round;stroke-linejoin:round;stroke-dasharray:none;stroke-opacity:1"
       d="m 732.36,300.36 v 48"
       id="path34" /><path
       style="opacity:1;fill:none;fill-opacity:1;stroke:url(#radialGradient384);stroke-width:10;stroke-linecap:round;stroke-linejoin:round;stroke-dasharray:none;stroke-opacity:1"
       d="m 684.36,324.36 v 0"
       id="path35" /><path
       style="opacity:1;fill:none;fill-opacity:1;stroke:url(#radialGradient384);stroke-width:10;stroke-linecap:round;stroke-linejoin:round;stroke-dasharray:none;stroke-opacity:1"
       d="m 780.36,372.36 h 48"
       id="path36" /><path
       style="opacity:1;fill:none;fill-opacity:1;stroke:url(#radialGradient384);stroke-width:10;stroke-linecap:round;stroke-linejoin:round;stroke-dasharray:none;stroke-opacity:1"
       d="m 828.36,444.36 v 24"
       id="path37" /><path
       style="opacity:1;fill:none;fill-opacity:1;stroke:url(#radialGradient384);stroke-width:10;stroke-linecap:round;stroke-linejoin:round;stroke-dasharray:none;stroke-opacity:1"
       d="m 684.36,516.36 h 24"
       id="path40" /><path
       style="opacity:1;fill:none;fill-opacity:1;stroke:url(#radialGradient384);stroke-width:10;stroke-linecap:round;stroke-linejoin:round;stroke-dasharray:none;stroke-opacity:1"
       d="m 732.36,420.36 h 48"
       id="path41" /><path
       style="opacity:1;fill:none;fill-opacity:1;stroke:url(#radialGradient384);stroke-width:10;stroke-linecap:round;stroke-linejoin:round;stroke-dasharray:none;stroke-opacity:1"
       d="m 804.36,492.36 h -24"
       id="path42" /><path
       style="opacity:1;fill:none;fill-opacity:1;stroke:url(#radialGradient384);stroke-width:10;stroke-linecap:round;stroke-linejoin:round;stroke-dasharray:none;stroke-opacity:1"
       d="m 612.36,516.36 v 0"
       id="path47" /><path
       style="opacity:1;fill:none;fill-opacity:1;stroke:url(#radialGradient384);stroke-width:10;stroke-linecap:round;stroke-linejoin:round;stroke-dasharray:none;stroke-opacity:1"
       d="m 612.36,564.36 v 0"
       id="path48" /><path
       style="opacity:1;fill:none;fill-opacity:1;stroke:url(#radialGradient384);stroke-width:10;stroke-linecap:round;stroke-linejoin:round;stroke-dasharray:none;stroke-opacity:1"
       d="m 636.36,540.36 h 24"
       id="path49" /><path
       style="opacity:1;fill:none;fill-opacity:1;stroke:url(#radialGradient384);stroke-width:10;stroke-linecap:round;stroke-linejoin:round;stroke-dasharray:none;stroke-opacity:1"
       d="m 684.36,564.36 v 0"
       id="path50" /><path
       style="opacity:1;fill:none;fill-opacity:1;stroke:url(#radialGradient384);stroke-width:10;stroke-linecap:round;stroke-linejoin:round;stroke-dasharray:none;stroke-opacity:1"
       d="m 708.36,588.36 v 0"
       id="path51" /><path
       style="opacity:1;fill:none;fill-opacity:1;stroke:url(#radialGradient384);stroke-width:10;stroke-linecap:round;stroke-linejoin:round;stroke-dasharray:none;stroke-opacity:1"
       d="m 588.36,588.36 h -48"
       id="path53" /><path
       style="opacity:1;fill:none;fill-opacity:1;stroke:url(#radialGradient384);stroke-width:10;stroke-linecap:round;stroke-linejoin:round;stroke-dasharray:none;stroke-opacity:1"
       d="m 828.36,540.36 v 24"
       id="path54" /><path
       style="opacity:1;fill:none;fill-opacity:1;stroke:url(#radialGradient384);stroke-width:10;stroke-linecap:round;stroke-linejoin:round;stroke-dasharray:none;stroke-opacity:1"
       d="m 780.36,564.36 v 48"
       id="path55" /><path
       style="opacity:1;fill:none;fill-opacity:1;stroke:url(#radialGradient384);stroke-width:10;stroke-linecap:round;stroke-linejoin:round;stroke-dasharray:none;stroke-opacity:1"
       d="m 828.36,612.36 v 48"
       id="path57" /><path
       style="opacity:1;fill:none;fill-opacity:1;stroke:url(#radialGradient384);stroke-width:10;stroke-linecap:round;stroke-linejoin:round;stroke-dasharray:none;stroke-opacity:1"
       d="m 804.36,636.36 h 24"
       id="path58" /><path
       style="opacity:1;fill:none;fill-opacity:1;stroke:url(#radialGradient384);stroke-width:10;stroke-linecap:round;stroke-linejoin:round;stroke-dasharray:none;stroke-opacity:1"
       d="m 684.36,612.36 h -72"
       id="path60" /><path
       style="opacity:1;fill:none;fill-opacity:1;stroke:url(#radialGradient384);stroke-width:10;stroke-linecap:round;stroke-linejoin:round;stroke-dasharray:none;stroke-opacity:1"
       d="m 660.36,588.36 v 24"
       id="path61" /><path
       style="opacity:1;fill:none;fill-opacity:1;stroke:url(#radialGradient384);stroke-width:10;stroke-linecap:round;stroke-linejoin:round;stroke-dasharray:none;stroke-opacity:1"
       d="m 684.36,684.36 v 0"
       id="path62" /><path
       style="opacity:1;fill:none;fill-opacity:1;stroke:url(#radialGradient384);stroke-width:10;stroke-linecap:round;stroke-linejoin:round;stroke-dasharray:none;stroke-opacity:1"
       d="m 732.36,804.36 h 24"
       id="path65" /><path
       style="opacity:1;fill:none;fill-opacity:1;stroke:url(#radialGradient384);stroke-width:10;stroke-linecap:round;stroke-linejoin:round;stroke-dasharray:none;stroke-opacity:1"
       d="m 804.36,684.36 h -24"
       id="path66" /><path
       style="opacity:1;fill:none;fill-opacity:1;stroke:url(#radialGradient384);stroke-width:10;stroke-linecap:round;stroke-linejoin:round;stroke-dasharray:none;stroke-opacity:1"
       d="m 804.36,828.36 v 0"
       id="path67" /><path
       style="opacity:1;fill:none;fill-opacity:1;stroke:url(#radialGradient384);stroke-width:10;stroke-linecap:round;stroke-linejoin:round;stroke-dasharray:none;stroke-opacity:1"
       d="m 828.36,756.36 v 0"
       id="path68" /><path
       style="opacity:1;fill:none;fill-opacity:1;stroke:url(#radialGradient384);stroke-width:10;stroke-linecap:round;stroke-linejoin:round;stroke-dasharray:none;stroke-opacity:1"
       d="m 828.36,708.36 v 0"
       id="path69" /><path
       style="opacity:1;fill:none;fill-opacity:1;stroke:url(#radialGradient384);stroke-width:10;stroke-linecap:round;stroke-linejoin:round;stroke-dasharray:none;stroke-opacity:1"
       d="m 660.36,756.36 v 24"
       id="path70" /><path
       style="opacity:1;fill:none;fill-opacity:1;stroke:url(#radialGradient384);stroke-width:10;stroke-linecap:round;stroke-linejoin:round;stroke-dasharray:none;stroke-opacity:1"
       d="m 684.36,804.36 v -24"
       id="path71" /><path
       style="opacity:1;fill:none;fill-opacity:1;stroke:url(#radialGradient384);stroke-width:10;stroke-linecap:round;stroke-linejoin:round;stroke-dasharray:none;stroke-opacity:1"
       d="m 540.36,684.36 v -48"
       id="path75" /><path
       style="opacity:1;fill:none;fill-opacity:1;stroke:url(#radialGradient384);stroke-width:10;stroke-linecap:round;stroke-linejoin:round;stroke-dasharray:none;stroke-opacity:1"
       d="m 588.36,636.36 v 0"
       id="path76" /><path
       style="opacity:1;fill:none;fill-opacity:1;stroke:url(#radialGradient384);stroke-width:10;stroke-linecap:round;stroke-linejoin:round;stroke-dasharray:none;stroke-opacity:1"
       d="m 708.36,828.36 v 0"
       id="path77" /><path
       style="opacity:1;fill:none;fill-opacity:1;stroke:url(#radialGradient384);stroke-width:10;stroke-linecap:round;stroke-linejoin:round;stroke-dasharray:none;stroke-opacity:1"
       d="m 444.36,804.36 v 0"
       id="path80" /><path
       style="opacity:1;fill:none;fill-opacity:1;stroke:url(#radialGradient384);stroke-width:10;stroke-linecap:round;stroke-linejoin:round;stroke-dasharray:none;stroke-opacity:1"
       d="m 492.36,732.36 v 0"
       id="path81" /><path
       style="opacity:1;fill:none;fill-opacity:1;stroke:url(#radialGradient384);stroke-width:10;stroke-linecap:round;stroke-linejoin:round;stroke-dasharray:none;stroke-opacity:1"
       d="m 372.36,756.36 h 96"
       id="path82" /><path
       style="opacity:1;fill:none;fill-opacity:1;stroke:url(#radialGradient384);stroke-width:10;stroke-linecap:round;stroke-linejoin:round;stroke-dasharray:none;stroke-opacity:1"
       d="m 396.36,828.36 v 0"
       id="path83" /><path
       style="opacity:1;fill:none;fill-opacity:1;stroke:url(#radialGradient384);stroke-width:10;stroke-linecap:round;stroke-linejoin:round;stroke-dasharray:none;stroke-opacity:1"
       d="m 348.36,828.36 v 0"
       id="path84" /><path
       style="opacity:1;fill:none;fill-opacity:1;stroke:url(#radialGradient384);stroke-width:10;stroke-linecap:round;stroke-linejoin:round;stroke-dasharray:none;stroke-opacity:1"
       d="m 300.36,828.36 h -48"
       id="path85" /><path
       style="opacity:1;fill:none;fill-opacity:1;stroke:url(#radialGradient384);stroke-width:10;stroke-linecap:round;stroke-linejoin:round;stroke-dasharray:none;stroke-opacity:1"
       d="m 252.36,780.36 v -72"
       id="path86" /><path
       style="opacity:1;fill:none;fill-opacity:1;stroke:url(#radialGradient384);stroke-width:10;stroke-linecap:round;stroke-linejoin:round;stroke-dasharray:none;stroke-opacity:1"
       d="m 252.36,732.36 h 24"
       id="path87" /><path
       style="opacity:1;fill:none;fill-opacity:1;stroke:url(#radialGradient384);stroke-width:10;stroke-linecap:round;stroke-linejoin:round;stroke-dasharray:none;stroke-opacity:1"
       d="m 300.36,756.36 v 0"
       id="path88" /><path
       style="opacity:1;fill:none;fill-opacity:1;stroke:url(#radialGradient384);stroke-width:10;stroke-linecap:round;stroke-linejoin:round;stroke-dasharray:none;stroke-opacity:1"
       d="m 324.36,564.36 h 24"
       id="path89" /><path
       style="opacity:1;fill:none;fill-opacity:1;stroke:url(#radialGradient384);stroke-width:10;stroke-linecap:round;stroke-linejoin:round;stroke-dasharray:none;stroke-opacity:1"
       d="m 300.36,588.36 v 0"
       id="path90"
       sodipodi:nodetypes="cc" /><path
       style="opacity:1;fill:none;fill-opacity:1;stroke:url(#radialGradient384);stroke-width:10;stroke-linecap:round;stroke-linejoin:round;stroke-dasharray:none;stroke-opacity:1"
       d="m 372.36,588.36 v 48"
       id="path91" /><path
       style="opacity:1;fill:none;fill-opacity:1;stroke:url(#radialGradient384);stroke-width:10;stroke-linecap:round;stroke-linejoin:round;stroke-dasharray:none;stroke-opacity:1"
       d="m 420.36,612.36 h -48"
       id="path94" /><path
       style="opacity:1;fill:none;fill-opacity:1;stroke:url(#radialGradient384);stroke-width:10;stroke-linecap:round;stroke-linejoin:round;stroke-dasharray:none;stroke-opacity:1"
       d="m 396.36,660.36 v 24"
       id="path95" /><path
       style="opacity:1;fill:none;fill-opacity:1;stroke:url(#radialGradient384);stroke-width:10;stroke-linecap:round;stroke-linejoin:round;stroke-dasharray:none;stroke-opacity:1"
       d="m 372.36,684.36 h 72"
       id="path96" /><path
       style="opacity:1;fill:none;fill-opacity:1;stroke:url(#radialGradient384);stroke-width:10;stroke-linecap:round;stroke-linejoin:round;stroke-dasharray:none;stroke-opacity:1"
       d="m 444.36,636.36 v 72"
       id="path97" /><path
       style="opacity:1;fill:none;fill-opacity:1;stroke:url(#radialGradient384);stroke-width:10;stroke-linecap:round;stroke-linejoin:round;stroke-dasharray:none;stroke-opacity:1"
       d="m 324.36,612.36 v 96"
       id="path98" /><path
       style="opacity:1;fill:none;fill-opacity:1;stroke:url(#radialGradient384);stroke-width:10;stroke-linecap:round;stroke-linejoin:round;stroke-dasharray:none;stroke-opacity:1"
       d="m 348.36,660.36 h -24"
       id="path99" /><path
       style="opacity:1;fill:none;fill-opacity:1;stroke:url(#radialGradient384);stroke-width:10;stroke-linecap:round;stroke-linejoin:round;stroke-dasharray:none;stroke-opacity:1"
       d="m 324.36,684.36 h -48"
       id="path100" /><path
       style="opacity:1;fill:none;fill-opacity:1;stroke:url(#radialGradient384);stroke-width:10;stroke-linecap:round;stroke-linejoin:round;stroke-dasharray:none;stroke-opacity:1"
       d="m 324.36,468.36 v 24"
       id="path102" /><path
       style="opacity:1;fill:none;fill-opacity:1;stroke:url(#radialGradient384);stroke-width:10;stroke-linecap:round;stroke-linejoin:round;stroke-dasharray:none;stroke-opacity:1"
       d="m 252.36,276.36 v 48"
       id="path104" /><path
       style="opacity:1;fill:none;fill-opacity:1;stroke:url(#radialGradient384);stroke-width:10;stroke-linecap:round;stroke-linejoin:round;stroke-dasharray:none;stroke-opacity:1"
       d="m 204.36,300.36 v 0"
       id="path106" /><path
       style="opacity:1;fill:none;fill-opacity:1;stroke:url(#radialGradient384);stroke-width:10;stroke-linecap:round;stroke-linejoin:round;stroke-dasharray:none;stroke-opacity:1"
       d="m 180.36,324.36 v 0"
       id="path107" /><path
       style="opacity:1;fill:none;fill-opacity:1;stroke:url(#radialGradient384);stroke-width:10;stroke-linecap:round;stroke-linejoin:round;stroke-dasharray:none;stroke-opacity:1"
       d="m 204.36,348.36 v 0"
       id="path108" /><path
       style="opacity:1;fill:none;fill-opacity:1;stroke:url(#radialGradient384);stroke-width:10;stroke-linecap:round;stroke-linejoin:round;stroke-dasharray:none;stroke-opacity:1"
       d="m 228.36,372.36 v 48"
       id="path109" /><path
       style="opacity:1;fill:none;fill-opacity:1;stroke:url(#radialGradient384);stroke-width:10;stroke-linecap:round;stroke-linejoin:round;stroke-dasharray:none;stroke-opacity:1"
       d="m 228.36,396.36 h -24"
       id="path110" /><path
       style="opacity:1;fill:none;fill-opacity:1;stroke:url(#radialGradient384);stroke-width:10;stroke-linecap:round;stroke-linejoin:round;stroke-dasharray:none;stroke-opacity:1"
       d="m 204.36,444.36 v 0"
       id="path111" /><path
       style="opacity:1;fill:none;fill-opacity:1;stroke:url(#radialGradient384);stroke-width:10;stroke-linecap:round;stroke-linejoin:round;stroke-dasharray:none;stroke-opacity:1"
       d="m 180.36,420.36 v 0"
       id="path112" /><path
       style="opacity:1;fill:none;fill-opacity:1;stroke:url(#radialGradient384);stroke-width:10;stroke-linecap:round;stroke-linejoin:round;stroke-dasharray:none;stroke-opacity:1"
       d="m 60.36,300.36 h 24"
       id="path114" /><path
       style="opacity:1;fill:none;fill-opacity:1;stroke:url(#radialGradient384);stroke-width:10;stroke-linecap:round;stroke-linejoin:round;stroke-dasharray:none;stroke-opacity:1"
       d="m 60.36,252.36 v 0"
       id="path116" /><path
       style="opacity:1;fill:none;fill-opacity:1;stroke:url(#radialGradient384);stroke-width:10;stroke-linecap:round;stroke-linejoin:round;stroke-dasharray:none;stroke-opacity:1"
       d="m 156.36,564.36 h -24"
       id="path118" /><path
       style="opacity:1;fill:none;fill-opacity:1;stroke:url(#radialGradient384);stroke-width:10;stroke-linecap:round;stroke-linejoin:round;stroke-dasharray:none;stroke-opacity:1"
       d="m 180.36,540.36 h 24"
       id="path119" /><path
       style="opacity:1;fill:none;fill-opacity:1;stroke:url(#radialGradient384);stroke-width:10;stroke-linecap:round;stroke-linejoin:round;stroke-dasharray:none;stroke-opacity:1"
       d="m 180.36,492.36 h 24"
       id="path120" /><path
       style="opacity:1;fill:none;fill-opacity:1;stroke:url(#radialGradient384);stroke-width:10;stroke-linecap:round;stroke-linejoin:round;stroke-dasharray:none;stroke-opacity:1"
       d="m 156.36,468.36 v 0"
       id="path121" /><path
       style="opacity:1;fill:none;fill-opacity:1;stroke:url(#radialGradient384);stroke-width:10;stroke-linecap:round;stroke-linejoin:round;stroke-dasharray:none;stroke-opacity:1"
       d="m 204.36,588.36 v 0"
       id="path122" /><path
       style="opacity:1;fill:none;fill-opacity:1;stroke:url(#radialGradient384);stroke-width:10;stroke-linecap:round;stroke-linejoin:round;stroke-dasharray:none;stroke-opacity:1"
       d="m 156.36,612.36 v 24"
       id="path123" /><path
       style="opacity:1;fill:none;fill-opacity:1;stroke:url(#radialGradient384);stroke-width:10;stroke-linecap:round;stroke-linejoin:round;stroke-dasharray:none;stroke-opacity:1"
       d="m 132.36,636.36 h 72"
       id="path124" /><path
       style="opacity:1;fill:none;fill-opacity:1;stroke:url(#radialGradient384);stroke-width:10;stroke-linecap:round;stroke-linejoin:round;stroke-dasharray:none;stroke-opacity:1"
       d="m 108.36,612.36 v 0"
       id="path125" /><path
       style="opacity:1;fill:none;fill-opacity:1;stroke:url(#radialGradient384);stroke-width:10;stroke-linecap:round;stroke-linejoin:round;stroke-dasharray:none;stroke-opacity:1"
       d="m 84.36,540.36 v 0"
       id="path126" /><path
       style="opacity:1;fill:none;fill-opacity:1;stroke:url(#radialGradient384);stroke-width:10;stroke-linecap:round;stroke-linejoin:round;stroke-dasharray:none;stroke-opacity:1"
       d="m 60.36,564.36 v 72"
       id="path127" /><path
       style="opacity:1;fill:none;fill-opacity:1;stroke:url(#radialGradient384);stroke-width:10;stroke-linecap:round;stroke-linejoin:round;stroke-dasharray:none;stroke-opacity:1"
       d="m 348.36,324.36 v 0"
       id="path128" /><path
       id="path129"
       style="opacity:1;stroke-width:10;stroke-linecap:round;stroke-linejoin:round;stroke:url(#radialGradient384);stroke-opacity:1;fill:none;stroke-dasharray:none"
       d="m 156,132 a 24,24 0 0 1 -24,24 24,24 0 0 1 -24,-24 24,24 0 0 1 24,-24 24,24 0 0 1 24,24 z" /><path
       id="path131"
       style="fill:none;fill-opacity:1;stroke:url(#radialGradient384);stroke-width:10;stroke-linecap:round;stroke-linejoin:round;stroke-dasharray:none;stroke-opacity:1"
       d="M 828.36,180 V 72 c 0,-6.627417 -5.37258,-12 -12,-12 h -120 c -6.62742,0 -12,5.372583 -12,12 v 120 c 0,6.62742 5.37258,12 12,12 h 108"
       sodipodi:nodetypes="cssssssc" /><path
       id="path132"
       style="opacity:1;stroke-width:10;stroke-linecap:round;stroke-linejoin:round;stroke:url(#radialGradient384);stroke-opacity:1;fill:none;stroke-dasharray:none"
       d="m 732.36,132 a 24,24 0 0 0 24,24 24,24 0 0 0 24,-24 24,24 0 0 0 -24,-24 24,24 0 0 0 -24,24 z" /><path
       id="path133"
       style="fill:none;fill-opacity:1;stroke:url(#radialGradient384);stroke-width:10;stroke-linecap:round;stroke-linejoin:round;stroke-dasharray:none;stroke-opacity:1"
       d="m 204,804.36 v -108 c 0,-6.62742 -5.37258,-12 -12,-12 H 72 c -6.62742,0 -12,5.37258 -12,12 v 120 c 0,6.62742 5.37258,12 12,12 h 108"
       sodipodi:nodetypes="cssssssc" /><path
       id="path134"
       style="opacity:1;stroke-width:10;stroke-linecap:round;stroke-linejoin:round;stroke:url(#radialGradient384);stroke-opacity:1;fill:none;stroke-dasharray:none"
       d="m 156,756.36 a 24,24 0 0 0 -24,-24 24,24 0 0 0 -24,24 24,24 0 0 0 24,24 24,24 0 0 0 24,-24 z" /><path
       style="fill:none;fill-opacity:1;stroke:url(#radialGradient384);stroke-width:10;stroke-linecap:round;stroke-linejoin:round;stroke-dasharray:none;stroke-opacity:1"
       d="m 420.36,228.36 v 12 c 0,6.62742 -5.37258,12 -12,12 h -36"
       id="path3-3"
       sodipodi:nodetypes="cssc" /><path
       style="fill:none;fill-opacity:1;stroke:url(#radialGradient384);stroke-width:10;stroke-linecap:round;stroke-linejoin:round;stroke-dasharray:none;stroke-opacity:1"
       d="m 420.36,324.36 v -12 c 0,-6.62742 5.37258,-12 12,-12 6.62742,0 12,-5.37258 12,-12 v -24 c 0,-6.62742 5.37258,-12 12,-12 h 12"
       id="path3-3-82"
       sodipodi:nodetypes="cszsssc" /><path
       style="fill:none;fill-opacity:1;stroke:url(#radialGradient384);stroke-width:10;stroke-linecap:round;stroke-linejoin:round;stroke-dasharray:none;stroke-opacity:1"
       d="m 396.36,276.36 v -84 c 0,-6.62742 5.37258,-12 12,-12 h 48 c 6.62742,0 12,-5.37258 12,-12 0,-6.62742 5.37258,-12 12,-12 h 12"
       id="path3-3-2"
       sodipodi:nodetypes="cssszsc" /><path
       style="fill:none;fill-opacity:1;stroke:url(#radialGradient384);stroke-width:10;stroke-linecap:round;stroke-linejoin:round;stroke-dasharray:none;stroke-opacity:1"
       d="m 468.36,60.36 0,36 c 0,6.62742 5.37258,12 12,12 h 12"
       id="path3-3-3"
       sodipodi:nodetypes="cssc" /><path
       style="fill:none;fill-opacity:1;stroke:url(#radialGradient384);stroke-width:10;stroke-linecap:round;stroke-linejoin:round;stroke-dasharray:none;stroke-opacity:1"
       d="m 636.36,108.36 v 12 c 0,6.62742 -5.37258,12 -12,12 -6.62742,0 -12,5.37258 -12,12 v 12"
       id="path3-3-4"
       sodipodi:nodetypes="cszsc" /><path
       style="fill:none;fill-opacity:1;stroke:url(#radialGradient384);stroke-width:10;stroke-linecap:round;stroke-linejoin:round;stroke-dasharray:none;stroke-opacity:1"
       d="m 492.36,300.36 v -12 c 0,-6.62742 5.37258,-12 12,-12 h 24 c 6.62742,0 12,5.37258 12,12 v 12"
       id="path3-3-1"
       sodipodi:nodetypes="cssssc" /><path
       style="fill:none;fill-opacity:1;stroke:url(#radialGradient384);stroke-width:10;stroke-linecap:round;stroke-linejoin:round;stroke-dasharray:none;stroke-opacity:1"
       d="m 564.36,372.36 v -36 c 0,-6.62742 5.37258,-12 12,-12 h 24 c 6.62742,0 12,5.37258 12,12 v 36"
       id="path3-3-38"
       sodipodi:nodetypes="cssssc" /><path
       style="fill:none;fill-opacity:1;stroke:url(#radialGradient384);stroke-width:10;stroke-linecap:round;stroke-linejoin:round;stroke-dasharray:none;stroke-opacity:1"
       d="m 684.36,252.36 v 12 c 0,6.62742 5.37258,12 12,12 6.62742,0 12,-5.37258 12,-12 0,-6.62742 5.37258,-12 12,-12 h 24 c 6.62742,0 12,5.37258 12,12 0,6.62742 5.37258,12 12,12 h 60"
       id="path3-3-20"
       sodipodi:nodetypes="cszzsszsc" /><path
       style="fill:none;fill-opacity:1;stroke:url(#radialGradient384);stroke-width:10;stroke-linecap:round;stroke-linejoin:round;stroke-dasharray:none;stroke-opacity:1"
       d="m 708.36,348.36 h 36 c 6.62742,0 12,-5.37258 12,-12 0,-6.62742 5.37258,-12 12,-12 h 36"
       id="path3-3-12"
       sodipodi:nodetypes="cszsc" /><path
       style="fill:none;fill-opacity:1;stroke:url(#radialGradient384);stroke-width:10;stroke-linecap:round;stroke-linejoin:round;stroke-dasharray:none;stroke-opacity:1"
       d="m 804.36,396.36 v -84 c 0,-6.62742 -5.37258,-12 -12,-12 -6.62742,0 -12,-5.37258 -12,-12 v -36"
       id="path3-3-5"
       sodipodi:nodetypes="cszsc" /><path
       style="fill:none;fill-opacity:1;stroke:url(#radialGradient384);stroke-width:10;stroke-linecap:round;stroke-linejoin:round;stroke-dasharray:none;stroke-opacity:1"
       d="m 660.36,420.36 v -12 c 0,-6.62742 5.37258,-12 12,-12 6.62742,0 12,-5.37258 12,-12 v -12"
       id="path3-3-9"
       sodipodi:nodetypes="cszsc" /><path
       style="fill:none;fill-opacity:1;stroke:url(#radialGradient384);stroke-width:10;stroke-linecap:round;stroke-linejoin:round;stroke-dasharray:none;stroke-opacity:1"
       d="m 636.36,444.36 v -12 c 0,-6.62742 5.37258,-12 12,-12 h 36"
       id="path3-3-0"
       sodipodi:nodetypes="cssc" /><path
       style="fill:none;fill-opacity:1;stroke:url(#radialGradient384);stroke-width:10;stroke-linecap:round;stroke-linejoin:round;stroke-dasharray:none;stroke-opacity:1"
       d="m 660.36,492.36 v -36 c 0,-6.62742 -5.37258,-12 -12,-12 h -48 c -6.62742,0 -12,-5.37258 -12,-12 0,-6.62742 -5.37258,-12 -12,-12 h -12"
       id="path3-3-08"
       sodipodi:nodetypes="cssszsc" /><path
       style="fill:none;fill-opacity:1;stroke:url(#radialGradient384);stroke-width:10;stroke-linecap:round;stroke-linejoin:round;stroke-dasharray:none;stroke-opacity:1"
       d="m 588.36,492.36 v -12 c 0,-6.62742 5.37258,-12 12,-12 l 108,0"
       id="path3-3-93"
       sodipodi:nodetypes="cssc" /><path
       style="fill:none;fill-opacity:1;stroke:url(#radialGradient384);stroke-width:10;stroke-linecap:round;stroke-linejoin:round;stroke-dasharray:none;stroke-opacity:1"
       d="m 708.36,540.36 v -84 c 0,-6.62742 5.37258,-12 12,-12 6.62742,0 12,-5.37258 12,-12 v -36"
       id="path3-3-93-8"
       sodipodi:nodetypes="cszsc" /><path
       style="fill:none;fill-opacity:1;stroke:url(#radialGradient384);stroke-width:10;stroke-linecap:round;stroke-linejoin:round;stroke-dasharray:none;stroke-opacity:1"
       d="m 756.36,468.36 h 12 c 6.62742,0 12,5.37258 12,12 v 24 c 0,6.62742 -5.37258,12 -12,12 -6.62742,0 -12,5.37258 -12,12 0,6.62742 -5.37258,12 -12,12 -6.62742,0 -12,-5.37258 -12,-12 v -24 c 0,-6.62742 -5.37258,-12 -12,-12 h -12"
       id="path3-3-93-23"
       sodipodi:nodetypes="cssszzzsssc" /><path
       style="fill:none;fill-opacity:1;stroke:url(#radialGradient384);stroke-width:10;stroke-linecap:round;stroke-linejoin:round;stroke-dasharray:none;stroke-opacity:1"
       d="m 756.36,636.36 v -36 c 0,-6.62742 5.37258,-12 12,-12 h 36"
       id="path3-3-93-23-4"
       sodipodi:nodetypes="cssc" /><path
       style="fill:none;fill-opacity:1;stroke:url(#radialGradient384);stroke-width:10;stroke-linecap:round;stroke-linejoin:round;stroke-dasharray:none;stroke-opacity:1"
       d="m 780.36,660.36 v 36 c 0,6.62742 -5.37258,12 -12,12 -6.62742,0 -12,5.37258 -12,12 v 108"
       id="path3-3-93-23-3"
       sodipodi:nodetypes="cszsc" /><path
       style="fill:none;fill-opacity:1;stroke:url(#radialGradient384);stroke-width:10;stroke-linecap:round;stroke-linejoin:round;stroke-dasharray:none;stroke-opacity:1"
       d="m 780.36,804.36 v -36 c 0,-6.62742 -5.37258,-12 -12,-12 h -36"
       id="path3-3-93-23-6"
       sodipodi:nodetypes="cssc" /><path
       style="fill:none;fill-opacity:1;stroke:url(#radialGradient384);stroke-width:10;stroke-linecap:round;stroke-linejoin:round;stroke-dasharray:none;stroke-opacity:1"
       d="m 708.36,780.36 h -84 c -6.62742,0 -12,-5.37258 -12,-12 0,-6.62742 -5.37258,-12 -12,-12 h -60"
       id="path3-3-93-23-1"
       sodipodi:nodetypes="cszsc" /><path
       style="fill:none;fill-opacity:1;stroke:url(#radialGradient384);stroke-width:10;stroke-linecap:round;stroke-linejoin:round;stroke-dasharray:none;stroke-opacity:1"
       d="m 648.36,732.36 c -6.62742,0 -12,-5.37258 -12,-12 v -72 c 0,-6.62742 5.37258,-12 12,-12 h 72 c 6.62742,0 12,5.37258 12,12 v 72 c 0,6.62742 -5.37258,12 -12,12 z"
       id="path135"
       sodipodi:nodetypes="sssssssss" /><path
       style="fill:none;fill-opacity:1;stroke:url(#radialGradient384);stroke-width:10;stroke-linecap:round;stroke-linejoin:round;stroke-dasharray:none;stroke-opacity:1"
       d="m 516.36,780.36 v 36 c 0,6.62742 -5.37258,12 -12,12 h -36"
       id="path3-3-93-23-0"
       sodipodi:nodetypes="cssc" /><path
       style="fill:none;fill-opacity:1;stroke:url(#radialGradient384);stroke-width:10;stroke-linecap:round;stroke-linejoin:round;stroke-dasharray:none;stroke-opacity:1"
       d="m 612.36,660.36 v 36 c 0,6.62742 -5.37258,12 -12,12 h -84"
       id="path3-3-93-23-5"
       sodipodi:nodetypes="cssc" /><path
       style="fill:none;fill-opacity:1;stroke:url(#radialGradient384);stroke-width:10;stroke-linecap:round;stroke-linejoin:round;stroke-dasharray:none;stroke-opacity:1"
       d="m 564.36,804.36 0,-132 c 0,-6.62742 -5.37258,-12 -12,-12 h -48 c -6.62742,0 -12,5.37258 -12,12 v 12"
       id="path3-3-93-23-8"
       sodipodi:nodetypes="cssssc" /><path
       style="fill:none;fill-opacity:1;stroke:url(#radialGradient384);stroke-width:10;stroke-linecap:round;stroke-linejoin:round;stroke-dasharray:none;stroke-opacity:1"
       d="m 420.36,588.36 h 36 c 6.62742,0 12,-5.37258 12,-12 0,-6.62742 5.37258,-12 12,-12 h 12"
       id="path3-3-93-23-13"
       sodipodi:nodetypes="cszsc" /><path
       style="fill:none;fill-opacity:1;stroke:url(#radialGradient384);stroke-width:10;stroke-linecap:round;stroke-linejoin:round;stroke-dasharray:none;stroke-opacity:1"
       d="m 396.36,564.36 h 12 c 6.62742,0 12,5.37258 12,12 v 48 c 0,6.62742 5.37258,12 12,12 h 36"
       id="path3-3-93-23-48"
       sodipodi:nodetypes="cssssc" /><path
       style="fill:none;fill-opacity:1;stroke:url(#radialGradient384);stroke-width:10;stroke-linecap:round;stroke-linejoin:round;stroke-dasharray:none;stroke-opacity:1"
       d="m 564.36,612.36 v -60 c 0,-6.62742 5.37258,-12 12,-12 h 12"
       id="path3-3-93-23-45"
       sodipodi:nodetypes="cssc" /><path
       style="fill:none;fill-opacity:1;stroke:url(#radialGradient384);stroke-width:10;stroke-linecap:round;stroke-linejoin:round;stroke-dasharray:none;stroke-opacity:1"
       d="m 228.36,516.36 h 36 c 6.62742,0 12,5.37258 12,12 0,6.62742 5.37258,12 12,12 h 12"
       id="path3-3-93-23-68"
       sodipodi:nodetypes="cszsc" /><path
       style="fill:none;fill-opacity:1;stroke:url(#radialGradient384);stroke-width:10;stroke-linecap:round;stroke-linejoin:round;stroke-dasharray:none;stroke-opacity:1"
       d="m 300.36,300.36 v 36 c 0,6.62742 -5.37258,12 -12,12 h -12"
       id="path3-3-93-23-7"
       sodipodi:nodetypes="cssc" /><path
       style="fill:none;fill-opacity:1;stroke:url(#radialGradient384);stroke-width:10;stroke-linecap:round;stroke-linejoin:round;stroke-dasharray:none;stroke-opacity:1"
       d="m 324.36,636.36 h -36 c -6.62742,0 -12,5.37258 -12,12 0,6.62742 -5.37258,12 -12,12 -6.62742,0 -12,-5.37258 -12,-12 v -192 c 0,-6.62742 5.37258,-12 12,-12 h 24 c 6.62742,0 12,-5.37258 12,-12 0,-6.62742 -5.37258,-12 -12,-12 -6.62742,0 -12,-5.37258 -12,-12 0,-6.62742 5.37258,-12 12,-12 h 24 c 6.62742,0 12,5.37258 12,12 v 12"
       id="path3-3-93-23-05"
       sodipodi:nodetypes="cszzsssszzzsssc" /><path
       style="fill:none;fill-opacity:1;stroke:url(#radialGradient384);stroke-width:10;stroke-linecap:round;stroke-linejoin:round;stroke-dasharray:none;stroke-opacity:1"
       d="m 84.36,324.36 v -36 c 0,-6.62742 5.37258,-12 12,-12 6.62742,0 12,-5.37258 12,-12 0,-6.62742 5.37258,-12 12,-12 h 84"
       id="path3-3-93-23-49-8"
       sodipodi:nodetypes="cszzsc" /><path
       style="fill:none;fill-opacity:1;stroke:url(#radialGradient384);stroke-width:10;stroke-linecap:round;stroke-linejoin:round;stroke-dasharray:none;stroke-opacity:1"
       d="m 60.36,468.36 h 12 c 6.62742,0 12,5.37258 12,12 0,6.62742 5.37258,12 12,12 6.62742,0 12,5.37258 12,12 0,6.62742 5.37258,12 12,12 6.62742,0 12,5.37258 12,12 v 60"
       id="path3-3-93-23-49-4"
       sodipodi:nodetypes="cszzzzsc" /><path
       style="fill:none;fill-opacity:1;stroke:url(#radialGradient384);stroke-width:10;stroke-linecap:round;stroke-linejoin:round;stroke-dasharray:none;stroke-opacity:1"
       d="m 156.36,396.36 h -12 c -6.62742,0 -12,5.37258 -12,12 v 24 c 0,6.62742 -5.37258,12 -12,12 -6.62742,0 -12,-5.37258 -12,-12 0,-6.62742 -5.37258,-12 -12,-12 -6.62742,0 -12,-5.37258 -12,-12 v -24 c 0,-6.62742 5.37258,-12 12,-12 6.62742,0 12,-5.37258 12,-12 0,-6.62742 5.37258,-12 12,-12 6.62742,0 12,-5.37258 12,-12 v -84"
       id="path3-3-93-23-49-59-3-9"
       sodipodi:nodetypes="cssszzzsszzzsc" /><path
       style="fill:none;fill-opacity:1;stroke:url(#radialGradient384);stroke-width:10;stroke-linecap:round;stroke-linejoin:round;stroke-dasharray:none;stroke-opacity:1"
       d="M 527.64,539.64 H 360.36 c -6.62742,0 -12,-5.37258 -12,-12 V 360.36 c 0,-6.62742 5.37258,-12 12,-12 h 167.28 c 6.62742,0 12,5.37258 12,12"
       id="path138"
       sodipodi:nodetypes="csssssc" /><path
       id="path129-9"
       style="fill:none;fill-opacity:1;stroke:url(#radialGradient384);stroke-width:10;stroke-linecap:round;stroke-linejoin:round;stroke-dasharray:none;stroke-opacity:1"
       d="m 444,476 c -17.67311,0 -32,-14.32689 -32,-32 0,-17.67311 14.32689,-32 32,-32 17.67311,0 32,14.32689 32,32"
       sodipodi:nodetypes="cssc" /><path
       style="fill:none;fill-opacity:1;stroke:url(#radialGradient384);stroke-width:10;stroke-linecap:round;stroke-linejoin:round;stroke-dasharray:none;stroke-opacity:1"
       d="m 504.36,384.36 v 0"
       id="path143"
       sodipodi:nodetypes="cc" /></g></svg>
