<?xml version="1.0" encoding="UTF-8" standalone="no"?>
<!-- Created with Inkscape (http://www.inkscape.org/) -->

<svg
   width="500.00003"
   height="500.00003"
   viewBox="0 0 132.29167 132.29167"
   version="1.1"
   id="svg1"
   xml:space="preserve"
   inkscape:version="1.3 (0e150ed6c4, 2023-07-21)"
   sodipodi:docname="JS-off.svg"
   xmlns:inkscape="http://www.inkscape.org/namespaces/inkscape"
   xmlns:sodipodi="http://sodipodi.sourceforge.net/DTD/sodipodi-0.dtd"
   xmlns="http://www.w3.org/2000/svg"
   xmlns:svg="http://www.w3.org/2000/svg"><sodipodi:namedview
     id="namedview1"
     pagecolor="#505050"
     bordercolor="#eeeeee"
     borderopacity="1"
     inkscape:showpageshadow="0"
     inkscape:pageopacity="0"
     inkscape:pagecheckerboard="0"
     inkscape:deskcolor="#505050"
     inkscape:document-units="px"
     inkscape:zoom="2.0485264"
     inkscape:cx="112.76398"
     inkscape:cy="388.81608"
     inkscape:window-width="1920"
     inkscape:window-height="1009"
     inkscape:window-x="-8"
     inkscape:window-y="-8"
     inkscape:window-maximized="1"
     inkscape:current-layer="layer1" /><defs
     id="defs1">&#10;	&#10;	&#10;	&#10;	&#10;	&#10;	&#10;	&#10;	&#10;	&#10;	&#10;</defs><g
     inkscape:label="Layer 1"
     inkscape:groupmode="layer"
     id="layer1"
     transform="translate(-294.66385,-97.099258)"><path
       id="path22-1-5-0"
       style="fill:none;fill-opacity:1;stroke:#fff6d5;stroke-width:1.32292;stroke-linecap:round;stroke-linejoin:round;stroke-dasharray:none;stroke-opacity:1;paint-order:markers stroke fill;opacity:0.33"
       d="m 360.80971,185.52128 c 1.94711,0 3.52555,-1.57843 3.52555,-3.52553 v -7.05125 c 0,-1.94711 -1.57846,-3.52548 -3.52555,-3.52553 l -3.5256,-1.1e-4 c -7.78846,-2.1e-4 -14.10227,-6.31379 -14.10227,-14.10225 0,-7.78845 6.31381,-14.10224 14.10227,-14.10224 h 7.05116 c 7.78847,0 14.10228,6.31379 14.10228,14.10224 h -14.10228 v -3.52562 c 0,-1.9471 -1.57845,-3.52553 -3.52558,-3.52553 m 34.39584,-17.13176 h -63.63232 c -2.43214,0 -5.15937,2.72723 -5.15937,5.15939 v 31.03608 c 0,21.95451 25.19817,41.78521 34.39585,41.78521 m 0,-46.74661 3.52558,1.1e-4 c 7.78844,2.1e-4 14.10228,6.31379 14.10228,14.10224 m -14.10228,14.10225 h -7.05116 c -7.78846,0 -14.10229,-6.31379 -14.10229,-14.10225 h 14.10229"
       sodipodi:nodetypes="csssszssccsccsssccsccscc" /><g
       id="g28"
       transform="matrix(1.999995,0,0,1.999995,451.03237,-578.59375)"
       style="fill:#fefefe;fill-opacity:1;stroke:none;opacity:1;stroke-opacity:1;stroke-width:0.39687598;stroke-dasharray:none"><path
         id="path22-1-5-0-1-3-4"
         style="fill:#fefefe;fill-opacity:1;stroke:none;stroke-width:0.39687598;stroke-linecap:round;stroke-linejoin:miter;stroke-dasharray:none;stroke-opacity:1;paint-order:markers stroke fill"
         d="m -40.481246,350.57294 h -1.322917 c -1.461252,0 -2.645834,-1.18458 -2.645834,-2.64583 h 2.645832 v 0.66147 c 0,0.36531 0.296149,0.66145 0.66146,0.66145 0.365312,0 0.661461,-0.29614 0.661461,-0.66145 v -1.32294 c 0,-0.36531 -0.296149,-0.66144 -0.661459,-0.66145 l -0.66146,-2e-5 c -1.461252,-4e-5 -2.645834,-1.18458 -2.645834,-2.64583 0,-1.46125 1.184582,-2.64583 2.645834,-2.64583 h 1.322917 c 1.461252,0 2.645834,1.18458 2.645834,2.64583 h -2.645832 v -0.66147 c 0,-0.36531 -0.296149,-0.66145 -0.661461,-0.66145 -0.365311,0 -0.66146,0.29614 -0.66146,0.66145 v 1.32294 c 0,0.36531 0.296149,0.66144 0.661459,0.66145 l 0.66146,2e-5 c 1.461252,4e-5 2.645834,1.18458 2.645834,2.64583 0,1.46125 -1.184582,2.64583 -2.645834,2.64583 z"
         sodipodi:nodetypes="ssccszsssszssccszsssszs" /><path
         id="path22-1-5-0-1-3-5-1"
         style="fill:#fefefe;fill-opacity:1;stroke:none;stroke-width:0.39687598;stroke-linecap:round;stroke-linejoin:miter;stroke-dasharray:none;stroke-opacity:1;paint-order:markers stroke fill"
         d="m -52.387499,347.92711 c 0,1.46125 1.184582,2.64583 2.645834,2.64583 h 1.322917 c 1.461252,0 2.645834,-1.18458 2.645834,-2.64583 v -6.6146 h -2.645834 l 2e-6,7.27607 c 0,0.36531 -0.296149,0.66145 -0.66146,0.66145 -0.365312,0 -0.661461,-0.29614 -0.661461,-0.66145 v -0.66147 z"
         sodipodi:nodetypes="csssccszscc" /></g></g></svg>
