<?xml version="1.0" encoding="UTF-8" standalone="no"?>
<!-- Created with Inkscape (http://www.inkscape.org/) -->

<svg
   width="1407.1841"
   height="375.18347"
   viewBox="0 0 372.31744 99.26729"
   version="1.1"
   id="svg1"
   xml:space="preserve"
   inkscape:version="1.3 (0e150ed6c4, 2023-07-21)"
   sodipodi:docname="namae.svg"
   xmlns:inkscape="http://www.inkscape.org/namespaces/inkscape"
   xmlns:sodipodi="http://sodipodi.sourceforge.net/DTD/sodipodi-0.dtd"
   xmlns="http://www.w3.org/2000/svg"
   xmlns:svg="http://www.w3.org/2000/svg"><sodipodi:namedview
     id="namedview1"
     pagecolor="#505050"
     bordercolor="#eeeeee"
     borderopacity="1"
     inkscape:showpageshadow="0"
     inkscape:pageopacity="0"
     inkscape:pagecheckerboard="0"
     inkscape:deskcolor="#505050"
     inkscape:document-units="px"
     inkscape:zoom="0.97370635"
     inkscape:cx="371.77533"
     inkscape:cy="135.05098"
     inkscape:window-width="1920"
     inkscape:window-height="1009"
     inkscape:window-x="-8"
     inkscape:window-y="-8"
     inkscape:window-maximized="1"
     inkscape:current-layer="g43"
     showguides="false" /><defs
     id="defs1">&#10;	&#10;	&#10;	&#10;	&#10;	&#10;	&#10;	&#10;	&#10;	&#10;	&#10;<filter
   inkscape:collect="always"
   style="color-interpolation-filters:sRGB"
   id="filter13"
   x="-0.034918175"
   y="-0.16004187"
   width="1.0698364"
   height="1.3200837"><feGaussianBlur
     inkscape:collect="always"
     stdDeviation="4.2544988"
     id="feGaussianBlur13" /></filter><filter
   inkscape:collect="always"
   style="color-interpolation-filters:sRGB"
   id="filter24"
   x="-0.012990907"
   y="-0.059541744"
   width="1.0259818"
   height="1.1190835"><feGaussianBlur
     inkscape:collect="always"
     stdDeviation="1.0636247"
     id="feGaussianBlur24" /></filter></defs><g
     inkscape:label="Layer 1"
     inkscape:groupmode="layer"
     id="layer1"
     transform="translate(-350.04255,-23.036126)"><g
       id="g7"
       style="fill:none;fill-opacity:1;stroke:#ffffff;stroke-opacity:1"><g
         id="g43"><g
           id="g24"
           style="stroke:#ffcb33;stroke-opacity:1;stroke-width:3.96874985;stroke-dasharray:none;filter:url(#filter13)"><path
             sodipodi:nodetypes="ccccccsscccc"
             inkscape:connector-curvature="0"
             id="path13"
             d="m 567.68686,93.318617 16.13958,17.451093 H 573.77223 L 562.65974,98.754223 m -11.11245,12.015487 h -10.05421 l 23.29646,-25.18958 c 0.7016,-0.758641 1.0452,-1.885202 1.0452,-2.918563 l 4e-5,-3.641844 -16.40405,4e-5 8e-5,-5.291765 h 26.4581"
             style="fill:none;fill-opacity:1;fill-rule:evenodd;stroke:#ffcb33;stroke-width:3.96874985;stroke-linecap:round;stroke-linejoin:round;stroke-miterlimit:4;stroke-dasharray:none;stroke-dashoffset:0;stroke-opacity:1" /><path
             sodipodi:nodetypes="cccccccc"
             inkscape:connector-curvature="0"
             id="path14"
             d="m 533.02647,79.019723 h -2.11668 v -5.291605 h 2.11668 m 3.17496,5.291605 h -2.11668 v -5.291605 h 2.11668"
             style="fill:none;fill-opacity:1;fill-rule:evenodd;stroke:#ffcb33;stroke-width:3.96874985;stroke-linecap:round;stroke-linejoin:round;stroke-miterlimit:4;stroke-dasharray:none;stroke-dashoffset:0;stroke-opacity:1" /><path
             sodipodi:nodetypes="ccccccccccccccsccc"
             inkscape:connector-curvature="0"
             id="path15"
             d="m 610.28475,94.894739 h 15.87493 m 0,-5.291605 h -15.87489 m -4e-5,-8.466449 10.58325,-1.058361 m 0,-6.350126 -31.74987,3.175043 v 6.350166 l 10.58333,-1.058361 v 7.408088 h -15.87502 v 5.291605 h 15.87502 v 7.937611 c 0,1.4612 -1.18452,2.6458 -2.64581,2.6458 v 5.29156 h 2.64589"
             style="fill:none;fill-opacity:1;fill-rule:evenodd;stroke:#ffcb33;stroke-width:3.96874985;stroke-linecap:round;stroke-linejoin:round;stroke-miterlimit:4;stroke-dasharray:none;stroke-dashoffset:0;stroke-opacity:1" /><path
             style="fill:none;fill-opacity:1;fill-rule:evenodd;stroke:#ffcb33;stroke-width:3.96874985;stroke-linecap:round;stroke-linejoin:round;stroke-miterlimit:4;stroke-dasharray:none;stroke-dashoffset:0;stroke-opacity:1"
             d="m 382.74292,45.153209 h 10.58337 v 18.520819 c 0,1.461201 -1.1846,2.645842 -2.64584,2.645842 v 5.291686 h 2.64584 m 10.58333,-31.750032 h -21.1667 m 0,-5.291685 h -10.58333 v 5.291645 h -10.58333 v 5.291725 h 10.58333 v 18.520779 c 0,1.461241 -1.1846,2.645882 -2.64584,2.645882 v 5.291686 h 2.64584"
             id="path16"
             inkscape:connector-curvature="0"
             sodipodi:nodetypes="ccscccccccccccsccc" /><path
             sodipodi:nodetypes="cccccccc"
             inkscape:connector-curvature="0"
             id="path17"
             d="m 400.73457,37.215624 h -2.11668 v -2.645802 h 2.11668 m 3.17496,2.645802 h -2.11668 v -2.645802 h 2.11668"
             style="fill:none;fill-opacity:1;fill-rule:evenodd;stroke:#ffcb33;stroke-width:3.96874985;stroke-linecap:round;stroke-linejoin:round;stroke-miterlimit:4;stroke-dasharray:none;stroke-dashoffset:0;stroke-opacity:1" /><path
             style="fill:none;fill-opacity:1;fill-rule:evenodd;stroke:#ffcb33;stroke-width:3.96875;stroke-linecap:round;stroke-linejoin:round;stroke-miterlimit:4;stroke-dasharray:none;stroke-dashoffset:0;stroke-opacity:1"
             d="M 499.15972,54.546458 467.40968,42.462606 m 0,-7.892687 h -10.58329 l 4e-5,44.449804 H 446.2431 v 5.291685 h 10.58333 v 15.874932 c 0,5.84505 4.73829,10.58325 10.58333,10.58325 h 21.16675 m 0,-5.29156 h -18.5209 c -1.46124,0 -2.64581,-1.1846 -2.64581,-2.6458 m 0,-18.520822 h 10.5833 v 2.645843 c 0,1.461281 -1.18449,2.645843 -2.64581,2.645843 v 5.291605 h 2.64593 m 21.1665,-31.175951 -31.75004,-12.083812 m 1.2e-4,27.384787 h 21.16671"
             id="path18"
             inkscape:connector-curvature="0"
             sodipodi:nodetypes="ccccccccssccscccsccccccc" /><path
             sodipodi:nodetypes="ccccccc"
             inkscape:connector-curvature="0"
             id="path19"
             d="m 425.07616,36.55428 -15.87505,-1.984361 v 6.350086 l 15.87509,1.984402 m 26.45819,5.222085 -42.33328,16.111616 v 7.373368"
             style="fill:none;fill-opacity:1;fill-rule:evenodd;stroke:#ffcb33;stroke-width:3.96874985;stroke-linecap:round;stroke-linejoin:round;stroke-miterlimit:4;stroke-dasharray:none;stroke-dashoffset:0;stroke-opacity:1" /><path
             sodipodi:nodetypes="ccccccc"
             inkscape:connector-curvature="0"
             id="path20"
             d="m 684.36802,75.71252 -15.87509,-1.984362 4e-5,6.350086 15.87505,1.984402 m 26.45823,5.222085 -42.33332,16.111619 v 7.37336"
             style="fill:none;fill-opacity:1;fill-rule:evenodd;stroke:#ffcb33;stroke-width:3.96874985;stroke-linecap:round;stroke-linejoin:round;stroke-miterlimit:4;stroke-dasharray:none;stroke-dashoffset:0;stroke-opacity:1" /><path
             style="fill:none;fill-opacity:1;fill-rule:evenodd;stroke:#ffcb33;stroke-width:3.96874985;stroke-linecap:round;stroke-linejoin:round;stroke-miterlimit:4;stroke-dasharray:none;stroke-dashoffset:0;stroke-opacity:1"
             d="m 512.38877,47.798932 h 15.87506 v 2.652002 c 0,0.825161 -0.2748,1.698642 -0.78389,2.348043 l -14.42977,18.812459 h 7.93757 m 15.21365,-27.781268 h -31.75003 v 7.937448 h 7.93745"
             id="path21"
             inkscape:connector-curvature="0"
             sodipodi:nodetypes="ccsscccccc" /><path
             style="fill:none;fill-opacity:1;fill-rule:evenodd;stroke:#ffcb33;stroke-width:3.96874985;stroke-linecap:round;stroke-linejoin:round;stroke-miterlimit:4;stroke-dasharray:none;stroke-dashoffset:0;stroke-opacity:1"
             d="m 663.20132,86.957211 h -19.84386 m 0,-3.968724 h -7.93745 v 3.968724 h -3.96872 v 3.968764 h 3.96868 l -4e-5,19.843735 h 7.93753 m 8e-5,-19.843735 h 11.90629 l -4e-5,2.652123 c 0,0.82512 -0.2812,1.693241 -0.78392,2.347962 l -8.14861,10.87485 h 7.93393"
             id="path22"
             inkscape:connector-curvature="0"
             sodipodi:nodetypes="ccccccccccccsscc" /><g
             transform="matrix(4.000004,0,0,4.000004,514.95641,-430.71289)"
             id="g23"
             style="fill:none;fill-opacity:1;stroke:#ffcb33;stroke-width:0.99218647;stroke-linecap:round;stroke-linejoin:round;stroke-dasharray:none;stroke-opacity:1"><path
               sodipodi:nodetypes="cccccccc"
               inkscape:connector-curvature="0"
               id="path23"
               d="M 5.311258,135.37049 H 2.982443 l -2.328815,-9.26036 h 2.328815 m -5.925686,9.26036 h -2.328815 l 2.328815,-9.26036 h 2.328815"
               style="opacity:1;fill:none;fill-opacity:1;fill-rule:evenodd;stroke:#ffcb33;stroke-width:0.99218647;stroke-linecap:round;stroke-linejoin:round;stroke-miterlimit:4;stroke-dasharray:none;stroke-dashoffset:0;stroke-opacity:1" /></g></g><g
           id="g13"
           style="stroke:#ffcb33;stroke-opacity:1;stroke-width:3.96874985;stroke-dasharray:none;filter:url(#filter24)"><path
             sodipodi:nodetypes="ccccccsscccc"
             inkscape:connector-curvature="0"
             id="path2"
             d="m 567.68686,93.318617 16.13958,17.451093 H 573.77223 L 562.65974,98.754223 m -11.11245,12.015487 h -10.05421 l 23.29646,-25.18958 c 0.7016,-0.758641 1.0452,-1.885202 1.0452,-2.918563 l 4e-5,-3.641844 -16.40405,4e-5 8e-5,-5.291765 h 26.4581"
             style="fill:none;fill-opacity:1;fill-rule:evenodd;stroke:#ffcb33;stroke-width:3.96874985;stroke-linecap:round;stroke-linejoin:round;stroke-miterlimit:4;stroke-dasharray:none;stroke-dashoffset:0;stroke-opacity:1" /><path
             sodipodi:nodetypes="cccccccc"
             inkscape:connector-curvature="0"
             id="path3"
             d="m 533.02647,79.019723 h -2.11668 v -5.291605 h 2.11668 m 3.17496,5.291605 h -2.11668 v -5.291605 h 2.11668"
             style="fill:none;fill-opacity:1;fill-rule:evenodd;stroke:#ffcb33;stroke-width:3.96874985;stroke-linecap:round;stroke-linejoin:round;stroke-miterlimit:4;stroke-dasharray:none;stroke-dashoffset:0;stroke-opacity:1" /><path
             sodipodi:nodetypes="ccccccccccccccsccc"
             inkscape:connector-curvature="0"
             id="path4"
             d="m 610.28475,94.894739 h 15.87493 m 0,-5.291605 h -15.87489 m -4e-5,-8.466449 10.58325,-1.058361 m 0,-6.350126 -31.74987,3.175043 v 6.350166 l 10.58333,-1.058361 v 7.408088 h -15.87502 v 5.291605 h 15.87502 v 7.937611 c 0,1.4612 -1.18452,2.6458 -2.64581,2.6458 v 5.29156 h 2.64589"
             style="fill:none;fill-opacity:1;fill-rule:evenodd;stroke:#ffcb33;stroke-width:3.96874985;stroke-linecap:round;stroke-linejoin:round;stroke-miterlimit:4;stroke-dasharray:none;stroke-dashoffset:0;stroke-opacity:1" /><path
             style="fill:none;fill-opacity:1;fill-rule:evenodd;stroke:#ffcb33;stroke-width:3.96874985;stroke-linecap:round;stroke-linejoin:round;stroke-miterlimit:4;stroke-dasharray:none;stroke-dashoffset:0;stroke-opacity:1"
             d="m 382.74292,45.153209 h 10.58337 v 18.520819 c 0,1.461201 -1.1846,2.645842 -2.64584,2.645842 v 5.291686 h 2.64584 m 10.58333,-31.750032 h -21.1667 m 0,-5.291685 h -10.58333 v 5.291645 h -10.58333 v 5.291725 h 10.58333 v 18.520779 c 0,1.461241 -1.1846,2.645882 -2.64584,2.645882 v 5.291686 h 2.64584"
             id="path5"
             inkscape:connector-curvature="0"
             sodipodi:nodetypes="ccscccccccccccsccc" /><path
             sodipodi:nodetypes="cccccccc"
             inkscape:connector-curvature="0"
             id="path6"
             d="m 400.73457,37.215624 h -2.11668 v -2.645802 h 2.11668 m 3.17496,2.645802 h -2.11668 v -2.645802 h 2.11668"
             style="fill:none;fill-opacity:1;fill-rule:evenodd;stroke:#ffcb33;stroke-width:3.96874985;stroke-linecap:round;stroke-linejoin:round;stroke-miterlimit:4;stroke-dasharray:none;stroke-dashoffset:0;stroke-opacity:1" /><path
             style="fill:none;fill-opacity:1;fill-rule:evenodd;stroke:#ffcb33;stroke-width:3.96875;stroke-linecap:round;stroke-linejoin:round;stroke-miterlimit:4;stroke-dasharray:none;stroke-dashoffset:0;stroke-opacity:1"
             d="M 499.15972,54.546458 467.40968,42.462606 m 0,-7.892687 h -10.58329 l 4e-5,44.449804 H 446.2431 v 5.291685 h 10.58333 v 15.874932 c 0,5.84505 4.73829,10.58325 10.58333,10.58325 h 21.16675 m 0,-5.29156 h -18.5209 c -1.46124,0 -2.64581,-1.1846 -2.64581,-2.6458 m 0,-18.520822 h 10.5833 v 2.645843 c 0,1.461281 -1.18449,2.645843 -2.64581,2.645843 v 5.291605 h 2.64593 m 21.1665,-31.175951 -31.75004,-12.083812 m 1.2e-4,27.384787 h 21.16671"
             id="path7"
             inkscape:connector-curvature="0"
             sodipodi:nodetypes="ccccccccssccscccsccccccc" /><path
             sodipodi:nodetypes="ccccccc"
             inkscape:connector-curvature="0"
             id="path8"
             d="m 425.07616,36.55428 -15.87505,-1.984361 v 6.350086 l 15.87509,1.984402 m 26.45819,5.222085 -42.33328,16.111616 v 7.373368"
             style="fill:none;fill-opacity:1;fill-rule:evenodd;stroke:#ffcb33;stroke-width:3.96874985;stroke-linecap:round;stroke-linejoin:round;stroke-miterlimit:4;stroke-dasharray:none;stroke-dashoffset:0;stroke-opacity:1" /><path
             sodipodi:nodetypes="ccccccc"
             inkscape:connector-curvature="0"
             id="path9"
             d="m 684.36802,75.71252 -15.87509,-1.984362 4e-5,6.350086 15.87505,1.984402 m 26.45823,5.222085 -42.33332,16.111619 v 7.37336"
             style="fill:none;fill-opacity:1;fill-rule:evenodd;stroke:#ffcb33;stroke-width:3.96874985;stroke-linecap:round;stroke-linejoin:round;stroke-miterlimit:4;stroke-dasharray:none;stroke-dashoffset:0;stroke-opacity:1" /><path
             style="fill:none;fill-opacity:1;fill-rule:evenodd;stroke:#ffcb33;stroke-width:3.96874985;stroke-linecap:round;stroke-linejoin:round;stroke-miterlimit:4;stroke-dasharray:none;stroke-dashoffset:0;stroke-opacity:1"
             d="m 512.38877,47.798932 h 15.87506 v 2.652002 c 0,0.825161 -0.2748,1.698642 -0.78389,2.348043 l -14.42977,18.812459 h 7.93757 m 15.21365,-27.781268 h -31.75003 v 7.937448 h 7.93745"
             id="path10"
             inkscape:connector-curvature="0"
             sodipodi:nodetypes="ccsscccccc" /><path
             style="fill:none;fill-opacity:1;fill-rule:evenodd;stroke:#ffcb33;stroke-width:3.96874985;stroke-linecap:round;stroke-linejoin:round;stroke-miterlimit:4;stroke-dasharray:none;stroke-dashoffset:0;stroke-opacity:1"
             d="m 663.20132,86.957211 h -19.84386 m 0,-3.968724 h -7.93745 v 3.968724 h -3.96872 v 3.968764 h 3.96868 l -4e-5,19.843735 h 7.93753 m 8e-5,-19.843735 h 11.90629 l -4e-5,2.652123 c 0,0.82512 -0.2812,1.693241 -0.78392,2.347962 l -8.14861,10.87485 h 7.93393"
             id="path11"
             inkscape:connector-curvature="0"
             sodipodi:nodetypes="ccccccccccccsscc" /><g
             transform="matrix(4.000004,0,0,4.000004,514.95641,-430.71289)"
             id="g12"
             style="fill:none;fill-opacity:1;stroke:#ffcb33;stroke-width:0.99218647;stroke-linecap:round;stroke-linejoin:round;stroke-dasharray:none;stroke-opacity:1"><path
               sodipodi:nodetypes="cccccccc"
               inkscape:connector-curvature="0"
               id="path12"
               d="M 5.311258,135.37049 H 2.982443 l -2.328815,-9.26036 h 2.328815 m -5.925686,9.26036 h -2.328815 l 2.328815,-9.26036 h 2.328815"
               style="opacity:1;fill:none;fill-opacity:1;fill-rule:evenodd;stroke:#ffcb33;stroke-width:0.99218647;stroke-linecap:round;stroke-linejoin:round;stroke-miterlimit:4;stroke-dasharray:none;stroke-dashoffset:0;stroke-opacity:1" /></g></g><g
           id="g1"
           style="stroke:#fff2cc;stroke-opacity:1;stroke-width:1.98437492;stroke-dasharray:none"><path
             sodipodi:nodetypes="ccccccsscccc"
             inkscape:connector-curvature="0"
             id="path1227-8-2"
             d="m 567.68686,93.318617 16.13958,17.451093 H 573.77223 L 562.65974,98.754223 m -11.11245,12.015487 h -10.05421 l 23.29646,-25.18958 c 0.7016,-0.758641 1.0452,-1.885202 1.0452,-2.918563 l 4e-5,-3.641844 -16.40405,4e-5 8e-5,-5.291765 h 26.4581"
             style="fill:none;fill-opacity:1;fill-rule:evenodd;stroke:#fff2cc;stroke-width:1.98437492;stroke-linecap:round;stroke-linejoin:round;stroke-miterlimit:4;stroke-dasharray:none;stroke-dashoffset:0;stroke-opacity:1" /><path
             sodipodi:nodetypes="cccccccc"
             inkscape:connector-curvature="0"
             id="path1253-3-9"
             d="m 533.02647,79.019723 h -2.11668 v -5.291605 h 2.11668 m 3.17496,5.291605 h -2.11668 v -5.291605 h 2.11668"
             style="fill:none;fill-opacity:1;fill-rule:evenodd;stroke:#fff2cc;stroke-width:1.98437492;stroke-linecap:round;stroke-linejoin:round;stroke-miterlimit:4;stroke-dasharray:none;stroke-dashoffset:0;stroke-opacity:1" /><path
             sodipodi:nodetypes="ccccccccccccccsccc"
             inkscape:connector-curvature="0"
             id="path1068-3-9"
             d="m 610.28475,94.894739 h 15.87493 m 0,-5.291605 h -15.87489 m -4e-5,-8.466449 10.58325,-1.058361 m 0,-6.350126 -31.74987,3.175043 v 6.350166 l 10.58333,-1.058361 v 7.408088 h -15.87502 v 5.291605 h 15.87502 v 7.937611 c 0,1.4612 -1.18452,2.6458 -2.64581,2.6458 v 5.29156 h 2.64589"
             style="fill:none;fill-opacity:1;fill-rule:evenodd;stroke:#fff2cc;stroke-width:1.98437492;stroke-linecap:round;stroke-linejoin:round;stroke-miterlimit:4;stroke-dasharray:none;stroke-dashoffset:0;stroke-opacity:1" /><path
             style="fill:none;fill-opacity:1;fill-rule:evenodd;stroke:#fff2cc;stroke-width:1.98437492;stroke-linecap:round;stroke-linejoin:round;stroke-miterlimit:4;stroke-dasharray:none;stroke-dashoffset:0;stroke-opacity:1"
             d="m 382.74292,45.153209 h 10.58337 v 18.520819 c 0,1.461201 -1.1846,2.645842 -2.64584,2.645842 v 5.291686 h 2.64584 m 10.58333,-31.750032 h -21.1667 m 0,-5.291685 h -10.58333 v 5.291645 h -10.58333 v 5.291725 h 10.58333 v 18.520779 c 0,1.461241 -1.1846,2.645882 -2.64584,2.645882 v 5.291686 h 2.64584"
             id="path1193-6-9"
             inkscape:connector-curvature="0"
             sodipodi:nodetypes="ccscccccccccccsccc" /><path
             sodipodi:nodetypes="cccccccc"
             inkscape:connector-curvature="0"
             id="path1253-3-9-7"
             d="m 400.73457,37.215624 h -2.11668 v -2.645802 h 2.11668 m 3.17496,2.645802 h -2.11668 v -2.645802 h 2.11668"
             style="fill:none;fill-opacity:1;fill-rule:evenodd;stroke:#fff2cc;stroke-width:1.98437492;stroke-linecap:round;stroke-linejoin:round;stroke-miterlimit:4;stroke-dasharray:none;stroke-dashoffset:0;stroke-opacity:1" /><path
             style="fill:none;fill-opacity:1;fill-rule:evenodd;stroke:#fff2cc;stroke-width:1.98437;stroke-linecap:round;stroke-linejoin:round;stroke-miterlimit:4;stroke-dasharray:none;stroke-dashoffset:0;stroke-opacity:1"
             d="M 499.15972,54.546458 467.40968,42.462606 m 0,-7.892687 h -10.58329 l 4e-5,44.449804 H 446.2431 v 5.291685 h 10.58333 v 15.874932 c 0,5.84505 4.73829,10.58325 10.58333,10.58325 h 21.16675 m 0,-5.29156 h -18.5209 c -1.46124,0 -2.64581,-1.1846 -2.64581,-2.6458 m 0,-18.520822 h 10.5833 v 2.645843 c 0,1.461281 -1.18449,2.645843 -2.64581,2.645843 v 5.291605 h 2.64593 m 21.1665,-31.175951 -31.75004,-12.083812 m 1.2e-4,27.384787 h 21.16671"
             id="path966-9-1"
             inkscape:connector-curvature="0"
             sodipodi:nodetypes="ccccccccssccscccsccccccc" /><path
             sodipodi:nodetypes="ccccccc"
             inkscape:connector-curvature="0"
             id="path892-3-2"
             d="m 425.07616,36.55428 -15.87505,-1.984361 v 6.350086 l 15.87509,1.984402 m 26.45819,5.222085 -42.33328,16.111616 v 7.373368"
             style="fill:none;fill-opacity:1;fill-rule:evenodd;stroke:#fff2cc;stroke-width:1.98437492;stroke-linecap:round;stroke-linejoin:round;stroke-miterlimit:4;stroke-dasharray:none;stroke-dashoffset:0;stroke-opacity:1" /><path
             sodipodi:nodetypes="ccccccc"
             inkscape:connector-curvature="0"
             id="path892-3-2-6"
             d="m 684.36802,75.71252 -15.87509,-1.984362 4e-5,6.350086 15.87505,1.984402 m 26.45823,5.222085 -42.33332,16.111619 v 7.37336"
             style="fill:none;fill-opacity:1;fill-rule:evenodd;stroke:#fff2cc;stroke-width:1.98437492;stroke-linecap:round;stroke-linejoin:round;stroke-miterlimit:4;stroke-dasharray:none;stroke-dashoffset:0;stroke-opacity:1" /><path
             style="fill:none;fill-opacity:1;fill-rule:evenodd;stroke:#fff2cc;stroke-width:1.98437492;stroke-linecap:round;stroke-linejoin:round;stroke-miterlimit:4;stroke-dasharray:none;stroke-dashoffset:0;stroke-opacity:1"
             d="m 512.38877,47.798932 h 15.87506 v 2.652002 c 0,0.825161 -0.2748,1.698642 -0.78389,2.348043 l -14.42977,18.812459 h 7.93757 m 15.21365,-27.781268 h -31.75003 v 7.937448 h 7.93745"
             id="path922-7-3"
             inkscape:connector-curvature="0"
             sodipodi:nodetypes="ccsscccccc" /><path
             style="fill:none;fill-opacity:1;fill-rule:evenodd;stroke:#fff2cc;stroke-width:1.98437492;stroke-linecap:round;stroke-linejoin:round;stroke-miterlimit:4;stroke-dasharray:none;stroke-dashoffset:0;stroke-opacity:1"
             d="m 663.20132,86.957211 h -19.84386 m 0,-3.968724 h -7.93745 v 3.968724 h -3.96872 v 3.968764 h 3.96868 l -4e-5,19.843735 h 7.93753 m 8e-5,-19.843735 h 11.90629 l -4e-5,2.652123 c 0,0.82512 -0.2812,1.693241 -0.78392,2.347962 l -8.14861,10.87485 h 7.93393"
             id="path914-2-4"
             inkscape:connector-curvature="0"
             sodipodi:nodetypes="ccccccccccccsscc" /><g
             transform="matrix(4.000004,0,0,4.000004,514.95641,-430.71289)"
             id="g2"
             style="fill:none;fill-opacity:1;stroke:#fff2cc;stroke-width:0.49609324;stroke-linecap:round;stroke-linejoin:round;stroke-dasharray:none;stroke-opacity:1"><path
               sodipodi:nodetypes="cccccccc"
               inkscape:connector-curvature="0"
               id="path1"
               d="M 5.311258,135.37049 H 2.982443 l -2.328815,-9.26036 h 2.328815 m -5.925686,9.26036 h -2.328815 l 2.328815,-9.26036 h 2.328815"
               style="opacity:1;fill:none;fill-opacity:1;fill-rule:evenodd;stroke:#fff2cc;stroke-width:0.49609324;stroke-linecap:round;stroke-linejoin:round;stroke-miterlimit:4;stroke-dasharray:none;stroke-dashoffset:0;stroke-opacity:1" /></g></g></g></g></g></svg>
