<?xml version="1.0" encoding="UTF-8" standalone="no"?>
<!-- Created with Inkscape (http://www.inkscape.org/) -->

<svg
   width="1698.3201"
   height="338.32034"
   viewBox="0 0 449.34717 89.513921"
   version="1.1"
   id="svg1"
   xml:space="preserve"
   inkscape:version="1.3 (0e150ed6c4, 2023-07-21)"
   sodipodi:docname="nom.svg"
   xmlns:inkscape="http://www.inkscape.org/namespaces/inkscape"
   xmlns:sodipodi="http://sodipodi.sourceforge.net/DTD/sodipodi-0.dtd"
   xmlns="http://www.w3.org/2000/svg"
   xmlns:svg="http://www.w3.org/2000/svg"><sodipodi:namedview
     id="namedview1"
     pagecolor="#505050"
     bordercolor="#eeeeee"
     borderopacity="1"
     inkscape:showpageshadow="0"
     inkscape:pageopacity="0"
     inkscape:pagecheckerboard="0"
     inkscape:deskcolor="#505050"
     inkscape:document-units="px"
     inkscape:zoom="0.48685317"
     inkscape:cx="849.33205"
     inkscape:cy="21.567077"
     inkscape:window-width="1920"
     inkscape:window-height="1009"
     inkscape:window-x="-8"
     inkscape:window-y="131"
     inkscape:window-maximized="1"
     inkscape:current-layer="g7" /><defs
     id="defs1">&#10;	&#10;	&#10;	&#10;	&#10;	&#10;	&#10;	&#10;	&#10;	&#10;	&#10;<filter
   inkscape:collect="always"
   style="color-interpolation-filters:sRGB"
   id="filter25"
   x="-0.010024997"
   y="-0.066833214"
   width="1.02005"
   height="1.1336664"><feGaussianBlur
     inkscape:collect="always"
     stdDeviation="1.2170835"
     id="feGaussianBlur25" /></filter><filter
   inkscape:collect="always"
   style="color-interpolation-filters:sRGB"
   id="filter42"
   x="-0.030725002"
   y="-0.20483305"
   width="1.06145"
   height="1.4096661"><feGaussianBlur
     inkscape:collect="always"
     stdDeviation="4.8683341"
     id="feGaussianBlur42" /></filter></defs><g
     inkscape:label="Layer 1"
     inkscape:groupmode="layer"
     id="layer1"
     transform="translate(-306.34153,-26.892949)"><g
       id="g7"
       style="fill:none;fill-opacity:1;stroke:#ffffff;stroke-opacity:1"><g
         id="g43"><g
           id="g42"
           style="stroke:#ffc808;stroke-width:2.64583;stroke-dasharray:none;stroke-opacity:1;filter:url(#filter42)"><path
             id="path25"
             style="fill:none;fill-opacity:1;stroke:#ffc808;stroke-width:2.64583;stroke-linecap:round;stroke-linejoin:round;stroke-dasharray:none;stroke-opacity:1;paint-order:normal"
             d="m 488.68172,39.899868 h -10.5833 v 37.041668"
             sodipodi:nodetypes="ccc" /><path
             id="path26"
             style="fill:none;fill-opacity:1;stroke:#ffc808;stroke-width:2.64583;stroke-linecap:round;stroke-linejoin:round;stroke-dasharray:none;stroke-opacity:1;paint-order:normal"
             d="m 491.32759,98.10834 c 1.46124,0 2.64584,-1.18456 2.64584,-2.645774 V 90.17082 c 0,-1.461236 -1.1846,-2.645754 -2.64584,-2.645794 l -2.64582,-8e-5 c -5.845,-1.6e-4 -10.58332,-4.738308 -10.58332,-10.583294 0,-5.844984 4.73832,-10.583292 10.58332,-10.583292 h 5.29164 m 10.58332,10.583292 h -10.5833 V 74.29578 c 0,-1.461238 -1.1846,-2.645794 -2.64584,-2.645794 m 0,10.583334 2.64582,8e-5 c 5.845,1.6e-4 10.58332,4.738308 10.58332,10.583292 m -15.87498,0 h -10.5833 c 0,5.844968 4.73832,10.583268 10.58332,10.583268 h 5.29164"
             sodipodi:nodetypes="csssszscccsccscccsc" /><path
             id="path27"
             style="fill:none;fill-opacity:1;stroke:#ffc808;stroke-width:2.64583;stroke-linecap:round;stroke-linejoin:round;stroke-dasharray:none;stroke-opacity:1;paint-order:normal"
             d="m 433.11922,45.191568 h 7.93748 m 0,-5.291668 h -26.45828 v 5.291668 h 7.93748 v 31.75 h 10.58332"
             sodipodi:nodetypes="cccccccc" /><path
             id="path28"
             style="fill:none;fill-opacity:1;stroke:#ffc808;stroke-width:2.64583;stroke-linecap:round;stroke-linejoin:round;stroke-dasharray:none;stroke-opacity:1;paint-order:normal"
             d="m 679.18179,66.358292 h -10.5833 v 37.041668 h 10.5833"
             sodipodi:nodetypes="cccc" /><path
             id="path29"
             style="fill:none;fill-opacity:1;stroke:#ffc808;stroke-width:2.64583;stroke-linecap:round;stroke-linejoin:round;stroke-dasharray:none;stroke-opacity:1;paint-order:normal"
             d="m 568.05676,92.81663 c 0,-3.162002 -1.38894,-5.99823 -3.58738,-7.9375 m 3.58738,-7.9375 c 0,-5.84498 -4.73834,-10.583332 -10.58332,-10.583332 h -15.875 v 37.041662 h 15.875 m -5.29168,-15.874996 h 2.64584 c 1.46124,0 2.64584,1.184598 2.64584,2.645832 v 5.291668 c 0,1.461236 -1.1846,2.645836 -2.64584,2.645836 h -2.64584 m 0,-26.458336 h 2.64584 c 1.46124,0 2.64584,1.184602 2.64584,2.645834 v 5.291666 c 0,1.461234 -1.1846,2.645832 -2.64584,2.645832 h -2.64584"
             sodipodi:nodetypes="cccsccccssssccssssc" /><path
             id="path30"
             style="fill:none;fill-opacity:1;stroke:#ffc808;stroke-width:2.64583;stroke-linecap:round;stroke-linejoin:round;stroke-dasharray:none;stroke-opacity:1;paint-order:normal"
             d="m 710.93178,71.649934 h -15.87496 m 0,10.583334 h 15.87496 m 0,5.291706 h -15.87496 m 0,10.583306 h 15.87496 m 0,5.29168 H 684.47352 V 66.358306 h 26.45826"
             sodipodi:nodetypes="cccccccccccc" /><path
             id="path31"
             style="fill:none;fill-opacity:1;stroke:#ffc808;stroke-width:2.64583;stroke-linecap:round;stroke-linejoin:round;stroke-dasharray:none;stroke-opacity:1;paint-order:normal"
             d="m 618.32762,98.10834 c 1.46124,0 2.64584,-1.18456 2.64584,-2.64578 v -5.291746 c 0,-1.461236 -1.1846,-2.645754 -2.64584,-2.645794 l -2.64582,-8e-5 c -5.845,-1.6e-4 -10.58332,-4.738308 -10.58332,-10.583294 0,-5.844984 4.73832,-10.583292 10.58332,-10.583292 h 5.29164 c 5.845,0 10.58332,4.738308 10.58332,10.583292 h -10.5833 v -2.645872 c 0,-1.461238 -1.1846,-2.645794 -2.64584,-2.645794 m 0,10.583334 2.64582,8e-5 c 5.845,1.6e-4 10.58332,4.738308 10.58332,10.583292 m -10.58332,10.583274 h -5.29164 c -5.845,0 -10.58332,-4.7383 -10.58332,-10.583274 h 10.5833"
             sodipodi:nodetypes="csssszssccsccsccscc" /><path
             id="path32"
             style="fill:none;fill-opacity:1;stroke:#ffc808;stroke-width:2.64583;stroke-linecap:round;stroke-linejoin:round;stroke-dasharray:none;stroke-opacity:1;paint-order:normal"
             d="m 332.57759,71.649902 c 1.46124,0 2.64582,-1.184558 2.64582,-2.645794 v -7.93756 h -2.64582 V 55.77488 h 13.22912 m 0,21.166648 h -15.87496 c -5.84498,0 -10.5833,-4.738308 -10.5833,-10.583294 v -15.87504 c 0,-5.844984 4.73832,-10.583292 10.5833,-10.583292 h 5.29166 c 5.845,0 10.5833,4.738308 10.5833,10.583292 h -10.5833 v -2.645872 c 0,-1.461238 -1.18458,-2.645794 -2.64582,-2.645794"
             sodipodi:nodetypes="cscccccsssssccsc" /><path
             id="path33"
             style="fill:none;fill-opacity:1;stroke:#ffc808;stroke-width:2.64583;stroke-linecap:round;stroke-linejoin:round;stroke-dasharray:none;stroke-opacity:1;paint-order:normal"
             d="m 396.07755,45.191526 c 1.46124,0 2.64584,1.184556 2.64584,2.645794 v 29.104186 h 10.5833 m 0,-26.458314 c 0,-5.844984 -4.73832,-10.583292 -10.5833,-10.583292 h -5.29166 c -5.845,0 -10.5833,4.738308 -10.5833,10.583292 v 26.458314 h 10.5833"
             sodipodi:nodetypes="cscccssscc" /><path
             id="path34"
             style="fill:none;fill-opacity:1;stroke:#ffc808;stroke-width:2.64583;stroke-linecap:round;stroke-linejoin:round;stroke-dasharray:none;stroke-opacity:1;paint-order:normal"
             d="m 459.57755,71.64988 c 1.46124,0 2.64584,-1.184556 2.64584,-2.645794 V 47.83732 c 0,-1.461238 -1.1846,-2.645794 -2.64584,-2.645794 m 2.64584,31.74998 h -5.29166 c -5.845,0 -10.5833,-4.738308 -10.5833,-10.583292 V 50.483192 c 0,-5.844984 4.7383,-10.583292 10.5833,-10.583292 h 5.29166 c 5.84498,0 10.5833,4.738308 10.5833,10.583292"
             sodipodi:nodetypes="cssccsssssc" /><path
             id="path35"
             style="fill:none;fill-opacity:1;stroke:#ffc808;stroke-width:2.64583;stroke-linecap:round;stroke-linejoin:round;stroke-dasharray:none;stroke-opacity:1;paint-order:normal"
             d="m 663.30677,66.358294 h -26.45828 v 5.291668 h 7.93748 v 31.749998 h 10.58332 m 0,-31.749998 h 7.93748"
             sodipodi:nodetypes="cccccccc" /><path
             id="path36"
             style="fill:none;fill-opacity:1;stroke:#ffc808;stroke-width:2.64583;stroke-linecap:round;stroke-linejoin:round;stroke-dasharray:none;stroke-opacity:1;paint-order:normal"
             d="m 361.68174,61.066548 h 5.29166 V 47.8373 c 0,-1.461238 -1.18458,-2.645794 -2.64582,-2.645794 m 13.22912,31.75 h -10.5833 v -10.58329 h -5.29166 m 0,10.58329 h -10.5833 V 50.483172 c 0,-5.844984 4.73832,-10.583292 10.5833,-10.583292 h 5.29166 c 5.845,0 10.5833,4.738308 10.5833,10.583292"
             sodipodi:nodetypes="ccscccccccsssc" /><path
             id="path37"
             style="fill:none;fill-opacity:1;stroke:#ffc808;stroke-width:2.64583;stroke-linecap:round;stroke-linejoin:round;stroke-dasharray:none;stroke-opacity:1;paint-order:normal"
             d="m 729.45263,71.64998 c 1.46124,0 2.64584,1.184556 2.64584,2.645794 v 29.104186 h 10.5833 m 0,-26.458314 c 0,-5.844984 -4.73832,-10.583292 -10.5833,-10.583292 h -5.29166 c -5.845,0 -10.5833,4.738308 -10.5833,10.583292 v 26.458314 h 10.5833"
             sodipodi:nodetypes="cscccssscc" /><path
             id="path38"
             style="fill:none;fill-opacity:1;stroke:#ffc808;stroke-width:2.64583;stroke-linecap:round;stroke-linejoin:round;stroke-dasharray:none;stroke-opacity:1;paint-order:normal"
             d="m 583.93179,87.525002 h 5.29166 V 74.295754 c 0,-1.461238 -1.18458,-2.645794 -2.64582,-2.645794 m 13.22912,31.75 h -10.5833 V 92.816662 h -5.29166 m 0,10.583298 h -10.5833 V 76.941626 c 0,-5.844984 4.73832,-10.583292 10.5833,-10.583292 h 5.29166 c 5.845,0 10.5833,4.738308 10.5833,10.583292"
             sodipodi:nodetypes="ccscccccccsssc" /><path
             id="path39"
             style="fill:none;fill-opacity:1;stroke:#ffc808;stroke-width:2.64583;stroke-linecap:round;stroke-linejoin:round;stroke-dasharray:none;stroke-opacity:1;paint-order:normal"
             d="m 507.20259,71.64987 c 1.46124,0 2.64584,-1.18456 2.64584,-2.645774 V 63.71235 c 0,-1.461236 -1.1846,-2.645754 -2.64584,-2.645794 l -2.64582,-8e-5 c -5.845,-1.6e-4 -10.58332,-4.738308 -10.58332,-10.583294 0,-5.844984 4.73832,-10.583292 10.58332,-10.583292 h 5.29164 c 5.845,0 10.58332,4.738308 10.58332,10.583292 h -10.5833 V 47.83731 c 0,-1.461238 -1.1846,-2.645794 -2.64584,-2.645794 m 0,10.583334 2.64582,8e-5 c 5.845,1.6e-4 10.58332,4.738308 10.58332,10.583292 m -15.87498,0 h -10.5833 c 0,5.844968 4.73832,10.583268 10.58332,10.583268 h 5.29164"
             sodipodi:nodetypes="csssszssccsccscccsc" /><g
             id="g41"
             transform="translate(2.475e-4,8e-5)"
             style="fill:none;fill-opacity:1;stroke:#ffc808;stroke-width:2.64583;stroke-dasharray:none;stroke-opacity:1"><path
               id="path40"
               style="fill:none;fill-opacity:1;stroke:#ffc808;stroke-width:2.64583;stroke-linecap:round;stroke-linejoin:round;stroke-dasharray:none;stroke-opacity:1;paint-order:normal"
               d="m 536.30647,71.649848 h -15.87496 m 0,10.583334 h 15.87496 m 0,5.291706 h -15.87496 m 0,10.583312 h 15.87496 m 0,5.29168 H 509.84821 V 66.35822 h 26.45826"
               sodipodi:nodetypes="cccccccccccc" /><path
               id="path41"
               style="fill:none;fill-opacity:1;stroke:#ffc808;stroke-width:2.64583;stroke-linecap:round;stroke-linejoin:round;stroke-dasharray:none;stroke-opacity:1;paint-order:normal"
               d="m 523.07733,65.829074 h -2.11666 l 2.11666,-4.233338 h 2.11668"
               sodipodi:nodetypes="cccc" /></g></g><g
           id="g25"
           style="stroke:#ffc808;stroke-width:2.64583;stroke-dasharray:none;stroke-opacity:1;filter:url(#filter25)"><path
             id="path8"
             style="fill:none;fill-opacity:1;stroke:#ffc808;stroke-width:2.64583;stroke-linecap:round;stroke-linejoin:round;stroke-dasharray:none;stroke-opacity:1;paint-order:normal"
             d="m 488.68172,39.899868 h -10.5833 v 37.041668"
             sodipodi:nodetypes="ccc" /><path
             id="path9"
             style="fill:none;fill-opacity:1;stroke:#ffc808;stroke-width:2.64583;stroke-linecap:round;stroke-linejoin:round;stroke-dasharray:none;stroke-opacity:1;paint-order:normal"
             d="m 491.32759,98.10834 c 1.46124,0 2.64584,-1.18456 2.64584,-2.645774 V 90.17082 c 0,-1.461236 -1.1846,-2.645754 -2.64584,-2.645794 l -2.64582,-8e-5 c -5.845,-1.6e-4 -10.58332,-4.738308 -10.58332,-10.583294 0,-5.844984 4.73832,-10.583292 10.58332,-10.583292 h 5.29164 m 10.58332,10.583292 h -10.5833 V 74.29578 c 0,-1.461238 -1.1846,-2.645794 -2.64584,-2.645794 m 0,10.583334 2.64582,8e-5 c 5.845,1.6e-4 10.58332,4.738308 10.58332,10.583292 m -15.87498,0 h -10.5833 c 0,5.844968 4.73832,10.583268 10.58332,10.583268 h 5.29164"
             sodipodi:nodetypes="csssszscccsccscccsc" /><path
             id="path10"
             style="fill:none;fill-opacity:1;stroke:#ffc808;stroke-width:2.64583;stroke-linecap:round;stroke-linejoin:round;stroke-dasharray:none;stroke-opacity:1;paint-order:normal"
             d="m 433.11922,45.191568 h 7.93748 m 0,-5.291668 h -26.45828 v 5.291668 h 7.93748 v 31.75 h 10.58332"
             sodipodi:nodetypes="cccccccc" /><path
             id="path11"
             style="fill:none;fill-opacity:1;stroke:#ffc808;stroke-width:2.64583;stroke-linecap:round;stroke-linejoin:round;stroke-dasharray:none;stroke-opacity:1;paint-order:normal"
             d="m 679.18179,66.358292 h -10.5833 v 37.041668 h 10.5833"
             sodipodi:nodetypes="cccc" /><path
             id="path12"
             style="fill:none;fill-opacity:1;stroke:#ffc808;stroke-width:2.64583;stroke-linecap:round;stroke-linejoin:round;stroke-dasharray:none;stroke-opacity:1;paint-order:normal"
             d="m 568.05676,92.81663 c 0,-3.162002 -1.38894,-5.99823 -3.58738,-7.9375 m 3.58738,-7.9375 c 0,-5.84498 -4.73834,-10.583332 -10.58332,-10.583332 h -15.875 v 37.041662 h 15.875 m -5.29168,-15.874996 h 2.64584 c 1.46124,0 2.64584,1.184598 2.64584,2.645832 v 5.291668 c 0,1.461236 -1.1846,2.645836 -2.64584,2.645836 h -2.64584 m 0,-26.458336 h 2.64584 c 1.46124,0 2.64584,1.184602 2.64584,2.645834 v 5.291666 c 0,1.461234 -1.1846,2.645832 -2.64584,2.645832 h -2.64584"
             sodipodi:nodetypes="cccsccccssssccssssc" /><path
             id="path13"
             style="fill:none;fill-opacity:1;stroke:#ffc808;stroke-width:2.64583;stroke-linecap:round;stroke-linejoin:round;stroke-dasharray:none;stroke-opacity:1;paint-order:normal"
             d="m 710.93178,71.649934 h -15.87496 m 0,10.583334 h 15.87496 m 0,5.291706 h -15.87496 m 0,10.583306 h 15.87496 m 0,5.29168 H 684.47352 V 66.358306 h 26.45826"
             sodipodi:nodetypes="cccccccccccc" /><path
             id="path14"
             style="fill:none;fill-opacity:1;stroke:#ffc808;stroke-width:2.64583;stroke-linecap:round;stroke-linejoin:round;stroke-dasharray:none;stroke-opacity:1;paint-order:normal"
             d="m 618.32762,98.10834 c 1.46124,0 2.64584,-1.18456 2.64584,-2.64578 v -5.291746 c 0,-1.461236 -1.1846,-2.645754 -2.64584,-2.645794 l -2.64582,-8e-5 c -5.845,-1.6e-4 -10.58332,-4.738308 -10.58332,-10.583294 0,-5.844984 4.73832,-10.583292 10.58332,-10.583292 h 5.29164 c 5.845,0 10.58332,4.738308 10.58332,10.583292 h -10.5833 v -2.645872 c 0,-1.461238 -1.1846,-2.645794 -2.64584,-2.645794 m 0,10.583334 2.64582,8e-5 c 5.845,1.6e-4 10.58332,4.738308 10.58332,10.583292 m -10.58332,10.583274 h -5.29164 c -5.845,0 -10.58332,-4.7383 -10.58332,-10.583274 h 10.5833"
             sodipodi:nodetypes="csssszssccsccsccscc" /><path
             id="path15"
             style="fill:none;fill-opacity:1;stroke:#ffc808;stroke-width:2.64583;stroke-linecap:round;stroke-linejoin:round;stroke-dasharray:none;stroke-opacity:1;paint-order:normal"
             d="m 332.57759,71.649902 c 1.46124,0 2.64582,-1.184558 2.64582,-2.645794 v -7.93756 h -2.64582 V 55.77488 h 13.22912 m 0,21.166648 h -15.87496 c -5.84498,0 -10.5833,-4.738308 -10.5833,-10.583294 v -15.87504 c 0,-5.844984 4.73832,-10.583292 10.5833,-10.583292 h 5.29166 c 5.845,0 10.5833,4.738308 10.5833,10.583292 h -10.5833 v -2.645872 c 0,-1.461238 -1.18458,-2.645794 -2.64582,-2.645794"
             sodipodi:nodetypes="cscccccsssssccsc" /><path
             id="path16"
             style="fill:none;fill-opacity:1;stroke:#ffc808;stroke-width:2.64583;stroke-linecap:round;stroke-linejoin:round;stroke-dasharray:none;stroke-opacity:1;paint-order:normal"
             d="m 396.07755,45.191526 c 1.46124,0 2.64584,1.184556 2.64584,2.645794 v 29.104186 h 10.5833 m 0,-26.458314 c 0,-5.844984 -4.73832,-10.583292 -10.5833,-10.583292 h -5.29166 c -5.845,0 -10.5833,4.738308 -10.5833,10.583292 v 26.458314 h 10.5833"
             sodipodi:nodetypes="cscccssscc" /><path
             id="path17"
             style="fill:none;fill-opacity:1;stroke:#ffc808;stroke-width:2.64583;stroke-linecap:round;stroke-linejoin:round;stroke-dasharray:none;stroke-opacity:1;paint-order:normal"
             d="m 459.57755,71.64988 c 1.46124,0 2.64584,-1.184556 2.64584,-2.645794 V 47.83732 c 0,-1.461238 -1.1846,-2.645794 -2.64584,-2.645794 m 2.64584,31.74998 h -5.29166 c -5.845,0 -10.5833,-4.738308 -10.5833,-10.583292 V 50.483192 c 0,-5.844984 4.7383,-10.583292 10.5833,-10.583292 h 5.29166 c 5.84498,0 10.5833,4.738308 10.5833,10.583292"
             sodipodi:nodetypes="cssccsssssc" /><path
             id="path18"
             style="fill:none;fill-opacity:1;stroke:#ffc808;stroke-width:2.64583;stroke-linecap:round;stroke-linejoin:round;stroke-dasharray:none;stroke-opacity:1;paint-order:normal"
             d="m 663.30677,66.358294 h -26.45828 v 5.291668 h 7.93748 v 31.749998 h 10.58332 m 0,-31.749998 h 7.93748"
             sodipodi:nodetypes="cccccccc" /><path
             id="path19"
             style="fill:none;fill-opacity:1;stroke:#ffc808;stroke-width:2.64583;stroke-linecap:round;stroke-linejoin:round;stroke-dasharray:none;stroke-opacity:1;paint-order:normal"
             d="m 361.68174,61.066548 h 5.29166 V 47.8373 c 0,-1.461238 -1.18458,-2.645794 -2.64582,-2.645794 m 13.22912,31.75 h -10.5833 v -10.58329 h -5.29166 m 0,10.58329 h -10.5833 V 50.483172 c 0,-5.844984 4.73832,-10.583292 10.5833,-10.583292 h 5.29166 c 5.845,0 10.5833,4.738308 10.5833,10.583292"
             sodipodi:nodetypes="ccscccccccsssc" /><path
             id="path20"
             style="fill:none;fill-opacity:1;stroke:#ffc808;stroke-width:2.64583;stroke-linecap:round;stroke-linejoin:round;stroke-dasharray:none;stroke-opacity:1;paint-order:normal"
             d="m 729.45263,71.64998 c 1.46124,0 2.64584,1.184556 2.64584,2.645794 v 29.104186 h 10.5833 m 0,-26.458314 c 0,-5.844984 -4.73832,-10.583292 -10.5833,-10.583292 h -5.29166 c -5.845,0 -10.5833,4.738308 -10.5833,10.583292 v 26.458314 h 10.5833"
             sodipodi:nodetypes="cscccssscc" /><path
             id="path21"
             style="fill:none;fill-opacity:1;stroke:#ffc808;stroke-width:2.64583;stroke-linecap:round;stroke-linejoin:round;stroke-dasharray:none;stroke-opacity:1;paint-order:normal"
             d="m 583.93179,87.525002 h 5.29166 V 74.295754 c 0,-1.461238 -1.18458,-2.645794 -2.64582,-2.645794 m 13.22912,31.75 h -10.5833 V 92.816662 h -5.29166 m 0,10.583298 h -10.5833 V 76.941626 c 0,-5.844984 4.73832,-10.583292 10.5833,-10.583292 h 5.29166 c 5.845,0 10.5833,4.738308 10.5833,10.583292"
             sodipodi:nodetypes="ccscccccccsssc" /><path
             id="path22"
             style="fill:none;fill-opacity:1;stroke:#ffc808;stroke-width:2.64583;stroke-linecap:round;stroke-linejoin:round;stroke-dasharray:none;stroke-opacity:1;paint-order:normal"
             d="m 507.20259,71.64987 c 1.46124,0 2.64584,-1.18456 2.64584,-2.645774 V 63.71235 c 0,-1.461236 -1.1846,-2.645754 -2.64584,-2.645794 l -2.64582,-8e-5 c -5.845,-1.6e-4 -10.58332,-4.738308 -10.58332,-10.583294 0,-5.844984 4.73832,-10.583292 10.58332,-10.583292 h 5.29164 c 5.845,0 10.58332,4.738308 10.58332,10.583292 h -10.5833 V 47.83731 c 0,-1.461238 -1.1846,-2.645794 -2.64584,-2.645794 m 0,10.583334 2.64582,8e-5 c 5.845,1.6e-4 10.58332,4.738308 10.58332,10.583292 m -15.87498,0 h -10.5833 c 0,5.844968 4.73832,10.583268 10.58332,10.583268 h 5.29164"
             sodipodi:nodetypes="csssszssccsccscccsc" /><g
             id="g24"
             transform="translate(2.475e-4,8e-5)"
             style="fill:none;fill-opacity:1;stroke:#ffc808;stroke-width:2.64583;stroke-dasharray:none;stroke-opacity:1"><path
               id="path23"
               style="fill:none;fill-opacity:1;stroke:#ffc808;stroke-width:2.64583;stroke-linecap:round;stroke-linejoin:round;stroke-dasharray:none;stroke-opacity:1;paint-order:normal"
               d="m 536.30647,71.649848 h -15.87496 m 0,10.583334 h 15.87496 m 0,5.291706 h -15.87496 m 0,10.583312 h 15.87496 m 0,5.29168 H 509.84821 V 66.35822 h 26.45826"
               sodipodi:nodetypes="cccccccccccc" /><path
               id="path24"
               style="fill:none;fill-opacity:1;stroke:#ffc808;stroke-width:2.64583;stroke-linecap:round;stroke-linejoin:round;stroke-dasharray:none;stroke-opacity:1;paint-order:normal"
               d="m 523.07733,65.829074 h -2.11666 l 2.11666,-4.233338 h 2.11668"
               sodipodi:nodetypes="cccc" /></g></g><g
           id="g8"
           style="stroke:#fff8e0;stroke-width:1.32292;stroke-dasharray:none;stroke-opacity:1"><path
             id="path13-1-2-3-6-3"
             style="fill:none;fill-opacity:1;stroke:#fff8e0;stroke-width:1.32292;stroke-linecap:round;stroke-linejoin:round;stroke-dasharray:none;stroke-opacity:1;paint-order:normal"
             d="m 488.68172,39.899868 h -10.5833 v 37.041668"
             sodipodi:nodetypes="ccc" /><path
             id="path22-1-5-0-1-3-7"
             style="fill:none;fill-opacity:1;stroke:#fff8e0;stroke-width:1.32292;stroke-linecap:round;stroke-linejoin:round;stroke-dasharray:none;stroke-opacity:1;paint-order:normal"
             d="m 491.32759,98.10834 c 1.46124,0 2.64584,-1.18456 2.64584,-2.645774 V 90.17082 c 0,-1.461236 -1.1846,-2.645754 -2.64584,-2.645794 l -2.64582,-8e-5 c -5.845,-1.6e-4 -10.58332,-4.738308 -10.58332,-10.583294 0,-5.844984 4.73832,-10.583292 10.58332,-10.583292 h 5.29164 m 10.58332,10.583292 h -10.5833 V 74.29578 c 0,-1.461238 -1.1846,-2.645794 -2.64584,-2.645794 m 0,10.583334 2.64582,8e-5 c 5.845,1.6e-4 10.58332,4.738308 10.58332,10.583292 m -15.87498,0 h -10.5833 c 0,5.844968 4.73832,10.583268 10.58332,10.583268 h 5.29164"
             sodipodi:nodetypes="csssszscccsccscccsc" /><path
             id="path13-1-2-3-3-7"
             style="fill:none;fill-opacity:1;stroke:#fff8e0;stroke-width:1.32292;stroke-linecap:round;stroke-linejoin:round;stroke-dasharray:none;stroke-opacity:1;paint-order:normal"
             d="m 433.11922,45.191568 h 7.93748 m 0,-5.291668 h -26.45828 v 5.291668 h 7.93748 v 31.75 h 10.58332"
             sodipodi:nodetypes="cccccccc" /><path
             id="path13-1-2-3-6-3-28"
             style="fill:none;fill-opacity:1;stroke:#fff8e0;stroke-width:1.32292;stroke-linecap:round;stroke-linejoin:round;stroke-dasharray:none;stroke-opacity:1;paint-order:normal"
             d="m 679.18179,66.358292 h -10.5833 v 37.041668 h 10.5833"
             sodipodi:nodetypes="cccc" /><path
             id="path22-1-5-0-1-3-6-6"
             style="fill:none;fill-opacity:1;stroke:#fff8e0;stroke-width:1.32292;stroke-linecap:round;stroke-linejoin:round;stroke-dasharray:none;stroke-opacity:1;paint-order:normal"
             d="m 568.05676,92.81663 c 0,-3.162002 -1.38894,-5.99823 -3.58738,-7.9375 m 3.58738,-7.9375 c 0,-5.84498 -4.73834,-10.583332 -10.58332,-10.583332 h -15.875 v 37.041662 h 15.875 m -5.29168,-15.874996 h 2.64584 c 1.46124,0 2.64584,1.184598 2.64584,2.645832 v 5.291668 c 0,1.461236 -1.1846,2.645836 -2.64584,2.645836 h -2.64584 m 0,-26.458336 h 2.64584 c 1.46124,0 2.64584,1.184602 2.64584,2.645834 v 5.291666 c 0,1.461234 -1.1846,2.645832 -2.64584,2.645832 h -2.64584"
             sodipodi:nodetypes="cccsccccssssccssssc" /><path
             id="path13-1-2-3-6-3-2-8"
             style="fill:none;fill-opacity:1;stroke:#fff8e0;stroke-width:1.32292;stroke-linecap:round;stroke-linejoin:round;stroke-dasharray:none;stroke-opacity:1;paint-order:normal"
             d="m 710.93178,71.649934 h -15.87496 m 0,10.583334 h 15.87496 m 0,5.291706 h -15.87496 m 0,10.583306 h 15.87496 m 0,5.29168 H 684.47352 V 66.358306 h 26.45826"
             sodipodi:nodetypes="cccccccccccc" /><path
             id="path22-1-5-0-1-3-7-5"
             style="fill:none;fill-opacity:1;stroke:#fff8e0;stroke-width:1.32292;stroke-linecap:round;stroke-linejoin:round;stroke-dasharray:none;stroke-opacity:1;paint-order:normal"
             d="m 618.32762,98.10834 c 1.46124,0 2.64584,-1.18456 2.64584,-2.64578 v -5.291746 c 0,-1.461236 -1.1846,-2.645754 -2.64584,-2.645794 l -2.64582,-8e-5 c -5.845,-1.6e-4 -10.58332,-4.738308 -10.58332,-10.583294 0,-5.844984 4.73832,-10.583292 10.58332,-10.583292 h 5.29164 c 5.845,0 10.58332,4.738308 10.58332,10.583292 h -10.5833 v -2.645872 c 0,-1.461238 -1.1846,-2.645794 -2.64584,-2.645794 m 0,10.583334 2.64582,8e-5 c 5.845,1.6e-4 10.58332,4.738308 10.58332,10.583292 m -10.58332,10.583274 h -5.29164 c -5.845,0 -10.58332,-4.7383 -10.58332,-10.583274 h 10.5833"
             sodipodi:nodetypes="csssszssccsccsccscc" /><path
             id="path22-1-5-0-1-3-5-6"
             style="fill:none;fill-opacity:1;stroke:#fff8e0;stroke-width:1.32292;stroke-linecap:round;stroke-linejoin:round;stroke-dasharray:none;stroke-opacity:1;paint-order:normal"
             d="m 332.57759,71.649902 c 1.46124,0 2.64582,-1.184558 2.64582,-2.645794 v -7.93756 h -2.64582 V 55.77488 h 13.22912 m 0,21.166648 h -15.87496 c -5.84498,0 -10.5833,-4.738308 -10.5833,-10.583294 v -15.87504 c 0,-5.844984 4.73832,-10.583292 10.5833,-10.583292 h 5.29166 c 5.845,0 10.5833,4.738308 10.5833,10.583292 h -10.5833 v -2.645872 c 0,-1.461238 -1.18458,-2.645794 -2.64582,-2.645794"
             sodipodi:nodetypes="cscccccsssssccsc" /><path
             id="path3"
             style="fill:none;fill-opacity:1;stroke:#fff8e0;stroke-width:1.32292;stroke-linecap:round;stroke-linejoin:round;stroke-dasharray:none;stroke-opacity:1;paint-order:normal"
             d="m 396.07755,45.191526 c 1.46124,0 2.64584,1.184556 2.64584,2.645794 v 29.104186 h 10.5833 m 0,-26.458314 c 0,-5.844984 -4.73832,-10.583292 -10.5833,-10.583292 h -5.29166 c -5.845,0 -10.5833,4.738308 -10.5833,10.583292 v 26.458314 h 10.5833"
             sodipodi:nodetypes="cscccssscc" /><path
             id="path3-9-3"
             style="fill:none;fill-opacity:1;stroke:#fff8e0;stroke-width:1.32292;stroke-linecap:round;stroke-linejoin:round;stroke-dasharray:none;stroke-opacity:1;paint-order:normal"
             d="m 459.57755,71.64988 c 1.46124,0 2.64584,-1.184556 2.64584,-2.645794 V 47.83732 c 0,-1.461238 -1.1846,-2.645794 -2.64584,-2.645794 m 2.64584,31.74998 h -5.29166 c -5.845,0 -10.5833,-4.738308 -10.5833,-10.583292 V 50.483192 c 0,-5.844984 4.7383,-10.583292 10.5833,-10.583292 h 5.29166 c 5.84498,0 10.5833,4.738308 10.5833,10.583292"
             sodipodi:nodetypes="cssccsssssc" /><path
             id="path13-1-2-3-3-7-7"
             style="fill:none;fill-opacity:1;stroke:#fff8e0;stroke-width:1.32292;stroke-linecap:round;stroke-linejoin:round;stroke-dasharray:none;stroke-opacity:1;paint-order:normal"
             d="m 663.30677,66.358294 h -26.45828 v 5.291668 h 7.93748 v 31.749998 h 10.58332 m 0,-31.749998 h 7.93748"
             sodipodi:nodetypes="cccccccc" /><path
             id="path4"
             style="fill:none;fill-opacity:1;stroke:#fff8e0;stroke-width:1.32292;stroke-linecap:round;stroke-linejoin:round;stroke-dasharray:none;stroke-opacity:1;paint-order:normal"
             d="m 361.68174,61.066548 h 5.29166 V 47.8373 c 0,-1.461238 -1.18458,-2.645794 -2.64582,-2.645794 m 13.22912,31.75 h -10.5833 v -10.58329 h -5.29166 m 0,10.58329 h -10.5833 V 50.483172 c 0,-5.844984 4.73832,-10.583292 10.5833,-10.583292 h 5.29166 c 5.845,0 10.5833,4.738308 10.5833,10.583292"
             sodipodi:nodetypes="ccscccccccsssc" /><path
             id="path3-0"
             style="fill:none;fill-opacity:1;stroke:#fff8e0;stroke-width:1.32292;stroke-linecap:round;stroke-linejoin:round;stroke-dasharray:none;stroke-opacity:1;paint-order:normal"
             d="m 729.45263,71.64998 c 1.46124,0 2.64584,1.184556 2.64584,2.645794 v 29.104186 h 10.5833 m 0,-26.458314 c 0,-5.844984 -4.73832,-10.583292 -10.5833,-10.583292 h -5.29166 c -5.845,0 -10.5833,4.738308 -10.5833,10.583292 v 26.458314 h 10.5833"
             sodipodi:nodetypes="cscccssscc" /><path
             id="path4-1"
             style="fill:none;fill-opacity:1;stroke:#fff8e0;stroke-width:1.32292;stroke-linecap:round;stroke-linejoin:round;stroke-dasharray:none;stroke-opacity:1;paint-order:normal"
             d="m 583.93179,87.525002 h 5.29166 V 74.295754 c 0,-1.461238 -1.18458,-2.645794 -2.64582,-2.645794 m 13.22912,31.75 h -10.5833 V 92.816662 h -5.29166 m 0,10.583298 h -10.5833 V 76.941626 c 0,-5.844984 4.73832,-10.583292 10.5833,-10.583292 h 5.29166 c 5.845,0 10.5833,4.738308 10.5833,10.583292"
             sodipodi:nodetypes="ccscccccccsssc" /><path
             id="path22-1-5-0-1-3-7-1"
             style="fill:none;fill-opacity:1;stroke:#fff8e0;stroke-width:1.32292;stroke-linecap:round;stroke-linejoin:round;stroke-dasharray:none;stroke-opacity:1;paint-order:normal"
             d="m 507.20259,71.64987 c 1.46124,0 2.64584,-1.18456 2.64584,-2.645774 V 63.71235 c 0,-1.461236 -1.1846,-2.645754 -2.64584,-2.645794 l -2.64582,-8e-5 c -5.845,-1.6e-4 -10.58332,-4.738308 -10.58332,-10.583294 0,-5.844984 4.73832,-10.583292 10.58332,-10.583292 h 5.29164 c 5.845,0 10.58332,4.738308 10.58332,10.583292 h -10.5833 V 47.83731 c 0,-1.461238 -1.1846,-2.645794 -2.64584,-2.645794 m 0,10.583334 2.64582,8e-5 c 5.845,1.6e-4 10.58332,4.738308 10.58332,10.583292 m -15.87498,0 h -10.5833 c 0,5.844968 4.73832,10.583268 10.58332,10.583268 h 5.29164"
             sodipodi:nodetypes="csssszssccsccscccsc" /><g
             id="g6"
             transform="translate(2.475e-4,8e-5)"
             style="fill:none;fill-opacity:1;stroke:#fff8e0;stroke-width:1.32292;stroke-dasharray:none;stroke-opacity:1"><path
               id="path13-1-2-3-6-3-2"
               style="fill:none;fill-opacity:1;stroke:#fff8e0;stroke-width:1.32292;stroke-linecap:round;stroke-linejoin:round;stroke-dasharray:none;stroke-opacity:1;paint-order:normal"
               d="m 536.30647,71.649848 h -15.87496 m 0,10.583334 h 15.87496 m 0,5.291706 h -15.87496 m 0,10.583312 h 15.87496 m 0,5.29168 H 509.84821 V 66.35822 h 26.45826"
               sodipodi:nodetypes="cccccccccccc" /><path
               id="path6"
               style="fill:none;fill-opacity:1;stroke:#fff8e0;stroke-width:1.32292;stroke-linecap:round;stroke-linejoin:round;stroke-dasharray:none;stroke-opacity:1;paint-order:normal"
               d="m 523.07733,65.829074 h -2.11666 l 2.11666,-4.233338 h 2.11668"
               sodipodi:nodetypes="cccc" /></g></g></g></g></g></svg>
