<?xml version="1.0" encoding="UTF-8" standalone="no"?>
<!-- Created with Inkscape (http://www.inkscape.org/) -->

<svg
   width="500.00003"
   height="500.00003"
   viewBox="0 0 132.29167 132.29167"
   version="1.1"
   id="svg1"
   xml:space="preserve"
   inkscape:version="1.3 (0e150ed6c4, 2023-07-21)"
   sodipodi:docname="oo-off.svg"
   xmlns:inkscape="http://www.inkscape.org/namespaces/inkscape"
   xmlns:sodipodi="http://sodipodi.sourceforge.net/DTD/sodipodi-0.dtd"
   xmlns="http://www.w3.org/2000/svg"
   xmlns:svg="http://www.w3.org/2000/svg"><sodipodi:namedview
     id="namedview1"
     pagecolor="#505050"
     bordercolor="#eeeeee"
     borderopacity="1"
     inkscape:showpageshadow="0"
     inkscape:pageopacity="0"
     inkscape:pagecheckerboard="0"
     inkscape:deskcolor="#505050"
     inkscape:document-units="px"
     inkscape:zoom="1.0242632"
     inkscape:cx="79.081237"
     inkscape:cy="243.58974"
     inkscape:window-width="1920"
     inkscape:window-height="1009"
     inkscape:window-x="-8"
     inkscape:window-y="-8"
     inkscape:window-maximized="1"
     inkscape:current-layer="layer1" /><defs
     id="defs1">&#10;	&#10;	&#10;	&#10;	&#10;	&#10;	&#10;	&#10;	&#10;	&#10;	&#10;</defs><g
     inkscape:label="Layer 1"
     inkscape:groupmode="layer"
     id="layer1"
     transform="translate(-294.66385,-97.099258)"><path
       style="opacity:0.33;fill:none;fill-opacity:0.63843;stroke:#cfebfc;stroke-width:1.98437493;stroke-linecap:round;stroke-linejoin:round;stroke-dasharray:none;stroke-opacity:1"
       d="m 383.46023,150.77563 c 4.88873,-0.0144 9.33066,1.26369 11.84753,3.56749 -8.93998,-0.64517 -18.88591,0.47658 -25.26014,8.23064 -5.20204,-4.98921 -17.24288,-9.97404 -25.81919,-7.77859 m 12.62453,-4.23846 c 4.23596,0.008 8.84767,1.11688 13.0655,3.78641 m 6.02805,20.56063 c 6.50099,-0.0238 12.62535,1.35234 17.53456,4.09796 -13.26007,0.21438 -32.65489,3.78663 -43.6547,18.99626 -8.44587,-8.95045 -19.65884,-11.22245 -30.39194,-11.08356 6.22626,17.45055 22.73204,29.11848 41.26001,29.16669 m 43.92859,-43.9291 c -2.1e-4,-24.261 -19.66749,-43.92844 -43.92859,-43.92858 -24.2611,-1.4e-4 -43.96209,19.6674 -43.9291,43.92858 0.004,3.10603 0.40414,6.19889 1.09399,9.22735 m 14.38079,-1.8875 c 5.49117,0.13878 11.08016,1.32945 16.12484,4.07651"
       id="path4"
       sodipodi:nodetypes="cccccccccccczsccc" /><g
       id="g10"
       transform="translate(41.671895,90.803203)"
       style="fill:#ffffff"><path
         sodipodi:nodetypes="cssssssccsssssscc"
         inkscape:connector-curvature="0"
         id="path2248"
         d="m 347.5805,19.047193 v -0.66147 c 0,-0.365313 -0.29612,-0.661453 -0.66146,-0.661453 -0.36529,0 -0.66143,0.29614 -0.66143,0.661453 v 5.291656 c 0,0.36532 0.29614,0.66146 0.66143,0.66146 0.36534,0 0.66146,-0.29614 0.66146,-0.66146 v -0.66146 h 2.64584 c 0,1.46125 -1.18457,2.64582 -2.64582,2.64582 h -1.32295 c -1.46124,0 -2.64582,-1.18457 -2.64582,-2.64582 v -3.968726 c 0,-1.461253 1.18458,-2.645823 2.64582,-2.645823 h 1.32295 c 1.46125,0 2.64582,1.18457 2.64582,2.645823 z"
         style="fill:#ffffff;fill-opacity:1;fill-rule:evenodd;stroke:none;stroke-width:0.264583;stroke-linecap:round;stroke-linejoin:round;stroke-miterlimit:4;stroke-dasharray:none;stroke-dashoffset:0;stroke-opacity:1" /><path
         sodipodi:nodetypes="ccccccccccccc"
         inkscape:connector-curvature="0"
         id="path2493"
         d="m 298.63259,21.693009 h 3.96872 v -1.32291 h -3.96872 v -2.645811 h 3.96872 v -1.32292 h -6.61453 l -3e-5,9.260371 h 6.61453 v -1.32291 h -3.96871 z"
         style="fill:#ffffff;fill-opacity:1;fill-rule:evenodd;stroke:none;stroke-width:0.264583;stroke-linecap:round;stroke-linejoin:round;stroke-miterlimit:4;stroke-dasharray:none;stroke-dashoffset:0;stroke-opacity:1" /><path
         style="fill:#ffffff;fill-opacity:1;fill-rule:evenodd;stroke:none;stroke-width:0.264583;stroke-linecap:round;stroke-linejoin:round;stroke-miterlimit:4;stroke-dasharray:none;stroke-dashoffset:0;stroke-opacity:1"
         d="m 326.41385,21.693009 h 3.96872 v -1.32291 h -3.96872 v -2.645808 h 3.96872 v -1.32292 h -6.61453 l -3e-5,9.260368 h 2.64582 z"
         id="path955"
         inkscape:connector-curvature="0"
         sodipodi:nodetypes="ccccccccccc" /><path
         style="fill:#ffffff;fill-opacity:1;fill-rule:evenodd;stroke:none;stroke-width:0.264583;stroke-linecap:round;stroke-linejoin:round;stroke-miterlimit:4;stroke-dasharray:none;stroke-dashoffset:0;stroke-opacity:1"
         d="m 306.57007,18.385719 c 0,-0.3653 0.29616,-0.66145 0.66145,-0.66145 0.36532,0 0.66145,0.29615 0.66145,0.66145 v 7.27602 h 2.64582 l 2e-5,-6.61455 c 0,-1.46126 -1.18456,-2.64581 -2.64582,-2.64581 h -1.32294 c -1.46125,0 -2.64582,1.18455 -2.64582,2.64581 l 3e-5,6.61455 h 2.64581 z"
         id="path927"
         inkscape:connector-curvature="0"
         sodipodi:nodetypes="sssccssssccs" /><path
         style="fill:#ffffff;fill-opacity:1;fill-rule:evenodd;stroke:none;stroke-width:0.264583;stroke-linecap:round;stroke-linejoin:round;stroke-miterlimit:4;stroke-dasharray:none;stroke-dashoffset:0;stroke-opacity:1"
         d="m 286.72636,23.015939 c 0,1.46124 -1.18458,2.64581 -2.64583,2.64581 h -1.32293 c -1.46126,0 -2.64583,-1.18457 -2.64583,-2.64581 v -3.96874 c 0,-1.46126 1.18457,-2.64583 2.64583,-2.64583 h 1.32293 c 1.46125,0 2.64583,1.18457 2.64583,2.64583 z m -2.64585,-4.63022 c 0,-0.36531 -0.29611,-0.66145 -0.66145,-0.66145 -0.3653,0 -0.66145,0.29614 -0.66145,0.66145 v 5.29167 c 0,0.36532 0.29615,0.66146 0.66145,0.66146 0.36534,0 0.66145,-0.29614 0.66145,-0.66146 z"
         id="path933"
         inkscape:connector-curvature="0"
         sodipodi:nodetypes="ssssssssssssssss" /><path
         sodipodi:nodetypes="cccszscccsssscc"
         inkscape:connector-curvature="0"
         id="path939"
         d="m 288.04938,25.661749 h 2.64579 l -4e-5,-3.96873 1.32284,10e-6 c 1.46121,0 2.64581,-1.18457 2.64586,-2.64582 5e-5,-1.46126 -1.18455,-2.64584 -2.64576,-2.64584 h -3.96879 z m 2.64579,-7.93746 0.6614,-2e-5 c 0.36531,0 0.66154,0.29614 0.6615,0.66147 l -1e-4,1.32292 c -2e-5,0.36533 -0.29619,0.66148 -0.66149,0.66147 l -0.6614,-3e-5 z"
         style="fill:#ffffff;fill-opacity:1;fill-rule:evenodd;stroke:none;stroke-width:0.264583;stroke-linecap:round;stroke-linejoin:round;stroke-miterlimit:4;stroke-dasharray:none;stroke-dashoffset:0;stroke-opacity:1" /><path
         sodipodi:nodetypes="ccccccccccccc"
         inkscape:connector-curvature="0"
         id="path6"
         d="m 354.1951,21.693009 h 3.96872 v -1.32291 h -3.96872 v -2.645811 h 3.96872 v -1.32292 h -6.61453 l -3e-5,9.260371 h 6.61453 v -1.32291 h -3.96871 z"
         style="fill:#ffffff;fill-opacity:1;fill-rule:evenodd;stroke:none;stroke-width:0.264583;stroke-linecap:round;stroke-linejoin:round;stroke-miterlimit:4;stroke-dasharray:none;stroke-dashoffset:0;stroke-opacity:1" /><path
         style="fill:#ffffff;fill-opacity:1;fill-rule:evenodd;stroke:none;stroke-width:0.264583;stroke-linecap:round;stroke-linejoin:round;stroke-miterlimit:4;stroke-dasharray:none;stroke-dashoffset:0;stroke-opacity:1"
         d="m 334.35133,21.693009 h 3.96872 v -1.32291 h -3.96872 v -2.645808 h 3.96872 v -1.32292 h -6.61453 l -3e-5,9.260368 h 2.64582 z"
         id="path7"
         inkscape:connector-curvature="0"
         sodipodi:nodetypes="ccccccccccc" /><path
         style="fill:#ffffff;fill-opacity:1;fill-rule:evenodd;stroke:none;stroke-width:0.264583;stroke-linecap:round;stroke-linejoin:round;stroke-miterlimit:4;stroke-dasharray:none;stroke-dashoffset:0;stroke-opacity:1"
         d="m 315.83051,23.015939 c 0,1.46124 1.18458,2.64581 2.64583,2.64581 h 1.32293 c 1.46126,0 2.64583,-1.18457 2.64583,-2.64581 v -3.96874 c 0,-1.46126 -1.18457,-2.64583 -2.64583,-2.64583 h -1.32293 c -1.46125,0 -2.64583,1.18457 -2.64583,2.64583 z m 2.64585,-4.63022 c 0,-0.36531 0.29611,-0.66145 0.66145,-0.66145 0.3653,0 0.66145,0.29614 0.66145,0.66145 v 5.29167 c 0,0.36532 -0.29615,0.66146 -0.66145,0.66146 -0.36534,0 -0.66145,-0.29614 -0.66145,-0.66146 z"
         id="path8"
         inkscape:connector-curvature="0"
         sodipodi:nodetypes="ssssssssssssssss" /><path
         sodipodi:nodetypes="ccccc"
         inkscape:connector-curvature="0"
         id="path9"
         d="m 342.28879,16.40137 h -2.64582 l 3e-5,9.260369 h 2.64583 z"
         style="fill:#ffffff;fill-opacity:1;fill-rule:evenodd;stroke:none;stroke-width:0.264583;stroke-linecap:round;stroke-linejoin:round;stroke-miterlimit:4;stroke-dasharray:none;stroke-dashoffset:0;stroke-opacity:1" /></g></g></svg>
