<?xml version="1.0" encoding="UTF-8" standalone="no"?>
<!-- Created with Inkscape (http://www.inkscape.org/) -->

<svg
   width="500.00003"
   height="500.00003"
   viewBox="0 0 132.29167 132.29167"
   version="1.1"
   id="svg1"
   xml:space="preserve"
   inkscape:version="1.3 (0e150ed6c4, 2023-07-21)"
   sodipodi:docname="phone.svg"
   xmlns:inkscape="http://www.inkscape.org/namespaces/inkscape"
   xmlns:sodipodi="http://sodipodi.sourceforge.net/DTD/sodipodi-0.dtd"
   xmlns="http://www.w3.org/2000/svg"
   xmlns:svg="http://www.w3.org/2000/svg"><sodipodi:namedview
     id="namedview1"
     pagecolor="#505050"
     bordercolor="#eeeeee"
     borderopacity="1"
     inkscape:showpageshadow="0"
     inkscape:pageopacity="0"
     inkscape:pagecheckerboard="0"
     inkscape:deskcolor="#505050"
     inkscape:document-units="px"
     inkscape:zoom="1.2346997"
     inkscape:cx="204.50317"
     inkscape:cy="255.52772"
     inkscape:window-width="1920"
     inkscape:window-height="1009"
     inkscape:window-x="-8"
     inkscape:window-y="-8"
     inkscape:window-maximized="1"
     inkscape:current-layer="g32"
     showgrid="false" /><defs
     id="defs1">&#10;	&#10;	&#10;	&#10;	&#10;	&#10;	&#10;	&#10;	&#10;	&#10;	&#10;<filter
   inkscape:collect="always"
   style="color-interpolation-filters:sRGB"
   id="filter1"
   x="-0.063344999"
   y="-0.073817913"
   width="1.12669"
   height="1.1476358"><feGaussianBlur
     inkscape:collect="always"
     stdDeviation="1.9665156"
     id="feGaussianBlur1" /></filter><filter
   inkscape:collect="always"
   style="color-interpolation-filters:sRGB"
   id="filter2"
   x="-0.029898749"
   y="-0.03484195"
   width="1.0597975"
   height="1.0696839"><feGaussianBlur
     inkscape:collect="always"
     stdDeviation="0.4916289"
     id="feGaussianBlur2" /></filter></defs><g
     inkscape:label="Layer 1"
     inkscape:groupmode="layer"
     id="layer1"
     transform="translate(-156.77647,-97.099258)"><g
       id="g1"><g
         id="g32"
         style="fill:none;stroke:#33cbff;stroke-width:1.32292;stroke-dasharray:none;stroke-opacity:1"
         transform="translate(0,-10.087246)"><path
           id="path1"
           style="fill:none;fill-opacity:1;fill-rule:evenodd;stroke:#33ff33;stroke-width:3.96874986;stroke-linecap:round;stroke-linejoin:round;stroke-miterlimit:4;stroke-dasharray:none;stroke-dashoffset:0;stroke-opacity:1;opacity:1;filter:url(#filter2)"
           d="m 203.07855,141.15239 h 39.6875 c 3.6531,0 6.61458,2.96147 6.61458,6.61458 v 6.61458 h 26.45834 c 0,-14.61261 -11.84577,-26.45833 -26.45834,-26.45833 h -52.91666 c -14.61248,0 -26.45833,11.84572 -26.45833,26.45833 h 26.45833 m 76.66304,31.35313 c 0.002,-2.43216 -2.72724,-5.15938 -5.15938,-5.15938 -14.61255,0 -26.45884,-11.8457 -26.45833,-26.45833 8e-5,-2.43216 -2.72724,-5.15937 -5.15938,-5.15937 h -26.87383 c -2.43212,0 -5.15945,2.72721 -5.15937,5.15937 5.1e-4,14.61263 -11.84525,26.45833 -26.45782,26.45833 -2.43212,0 -5.16095,2.72722 -5.15937,5.15938 l 0.0181,27.84739 c 0.002,2.43216 2.72723,5.15938 5.15937,5.15938 h 95.25001 M 222.913,212.10361 c -11.45943,0 -20.74912,-9.28969 -20.74912,-20.74912 0,-11.45943 9.28969,-20.74912 20.74912,-20.74912 11.45943,0 20.74912,9.28969 20.74912,20.74912 M 222.913,178.84053 c 1.40895,1.4e-4 2.5514,-1.14232 2.55126,-2.55127 -1.4e-4,-1.40895 -1.14251,-2.55089 -2.55126,-2.55075 m -7.53236,7.1205 c 1.40905,0 2.55127,-1.14222 2.55127,-2.55127 0,-1.40905 -1.14222,-2.55126 -2.55127,-2.55126 m 15.06523,5.10253 c 1.40895,-1.4e-4 2.55075,-1.14242 2.55075,-2.55127 0,-1.40885 -1.1418,-2.55112 -2.55075,-2.55126 m -20.57962,10.61692 c 1.40896,1.4e-4 2.55127,-1.14222 2.55127,-2.55127 0,-1.40905 -1.14232,-2.5514 -2.55127,-2.55126 m 26.0935,5.10253 c 1.40905,0 2.55126,-1.14222 2.55126,-2.55127 0,-1.40905 -1.14221,-2.55126 -2.55126,-2.55126 m -28.11146,12.63489 c 1.40895,-1.5e-4 2.55074,-1.14242 2.55074,-2.55127 0,-1.40885 -1.14179,-2.55112 -2.55074,-2.55127 m 2.01796,12.63489 c 1.40895,1.4e-4 2.55141,-1.14231 2.55127,-2.55126 -1.4e-4,-1.40895 -1.14252,-2.55089 -2.55127,-2.55075 m 5.51439,10.6164 c 1.40905,0 2.55127,-1.14221 2.55127,-2.55126 0,-1.40905 -1.14222,-2.55127 -2.55127,-2.55127 m 15.06523,5.10253 c 1.40895,-1.4e-4 2.55075,-1.14241 2.55075,-2.55126 0,-1.40885 -1.1418,-2.55113 -2.55075,-2.55127 m -7.53287,7.1205 c 1.40875,1.4e-4 2.55112,-1.1418 2.55126,-2.55075 1.4e-4,-1.40895 -1.14231,-2.55141 -2.55126,-2.55127"
           sodipodi:nodetypes="cssccsscccssssssssscczzcczcczcczcczcczcczcczcczcczcczc" /><path
           id="path2"
           style="fill:none;fill-opacity:1;fill-rule:evenodd;stroke:#33ff33;stroke-width:3.96874986;stroke-linecap:round;stroke-linejoin:round;stroke-miterlimit:4;stroke-dasharray:none;stroke-dashoffset:0;stroke-opacity:1;opacity:1;filter:url(#filter1)"
           d="m 203.07855,141.15239 h 39.6875 c 3.6531,0 6.61458,2.96147 6.61458,6.61458 v 6.61458 h 26.45834 c 0,-14.61261 -11.84577,-26.45833 -26.45834,-26.45833 h -52.91666 c -14.61248,0 -26.45833,11.84572 -26.45833,26.45833 h 26.45833 m 76.66304,31.35313 c 0.002,-2.43216 -2.72724,-5.15938 -5.15938,-5.15938 -14.61255,0 -26.45884,-11.8457 -26.45833,-26.45833 8e-5,-2.43216 -2.72724,-5.15937 -5.15938,-5.15937 h -26.87383 c -2.43212,0 -5.15945,2.72721 -5.15937,5.15937 5.1e-4,14.61263 -11.84525,26.45833 -26.45782,26.45833 -2.43212,0 -5.16095,2.72722 -5.15937,5.15938 l 0.0181,27.84739 c 0.002,2.43216 2.72723,5.15938 5.15937,5.15938 h 95.25001 M 222.913,212.10361 c -11.45943,0 -20.74912,-9.28969 -20.74912,-20.74912 0,-11.45943 9.28969,-20.74912 20.74912,-20.74912 11.45943,0 20.74912,9.28969 20.74912,20.74912 M 222.913,178.84053 c 1.40895,1.4e-4 2.5514,-1.14232 2.55126,-2.55127 -1.4e-4,-1.40895 -1.14251,-2.55089 -2.55126,-2.55075 m -7.53236,7.1205 c 1.40905,0 2.55127,-1.14222 2.55127,-2.55127 0,-1.40905 -1.14222,-2.55126 -2.55127,-2.55126 m 15.06523,5.10253 c 1.40895,-1.4e-4 2.55075,-1.14242 2.55075,-2.55127 0,-1.40885 -1.1418,-2.55112 -2.55075,-2.55126 m -20.57962,10.61692 c 1.40896,1.4e-4 2.55127,-1.14222 2.55127,-2.55127 0,-1.40905 -1.14232,-2.5514 -2.55127,-2.55126 m 26.0935,5.10253 c 1.40905,0 2.55126,-1.14222 2.55126,-2.55127 0,-1.40905 -1.14221,-2.55126 -2.55126,-2.55126 m -28.11146,12.63489 c 1.40895,-1.5e-4 2.55074,-1.14242 2.55074,-2.55127 0,-1.40885 -1.14179,-2.55112 -2.55074,-2.55127 m 2.01796,12.63489 c 1.40895,1.4e-4 2.55141,-1.14231 2.55127,-2.55126 -1.4e-4,-1.40895 -1.14252,-2.55089 -2.55127,-2.55075 m 5.51439,10.6164 c 1.40905,0 2.55127,-1.14221 2.55127,-2.55126 0,-1.40905 -1.14222,-2.55127 -2.55127,-2.55127 m 15.06523,5.10253 c 1.40895,-1.4e-4 2.55075,-1.14241 2.55075,-2.55126 0,-1.40885 -1.1418,-2.55113 -2.55075,-2.55127 m -7.53287,7.1205 c 1.40875,1.4e-4 2.55112,-1.1418 2.55126,-2.55075 1.4e-4,-1.40895 -1.14231,-2.55141 -2.55126,-2.55127"
           sodipodi:nodetypes="cssccsscccssssssssscczzcczcczcczcczcczcczcczcczcczcczc" /><path
           id="path933"
           style="fill:none;fill-opacity:1;fill-rule:evenodd;stroke:#ccffcc;stroke-width:2.64583324;stroke-linecap:round;stroke-linejoin:round;stroke-miterlimit:4;stroke-dasharray:none;stroke-dashoffset:0;stroke-opacity:1;opacity:1"
           d="m 203.07855,141.15239 h 39.6875 c 3.6531,0 6.61458,2.96147 6.61458,6.61458 v 6.61458 h 26.45834 c 0,-14.61261 -11.84577,-26.45833 -26.45834,-26.45833 h -52.91666 c -14.61248,0 -26.45833,11.84572 -26.45833,26.45833 h 26.45833 m 76.66304,31.35313 c 0.002,-2.43216 -2.72724,-5.15938 -5.15938,-5.15938 -14.61255,0 -26.45884,-11.8457 -26.45833,-26.45833 8e-5,-2.43216 -2.72724,-5.15937 -5.15938,-5.15937 h -26.87383 c -2.43212,0 -5.15945,2.72721 -5.15937,5.15937 5.1e-4,14.61263 -11.84525,26.45833 -26.45782,26.45833 -2.43212,0 -5.16095,2.72722 -5.15937,5.15938 l 0.0181,27.84739 c 0.002,2.43216 2.72723,5.15938 5.15937,5.15938 h 95.25001 M 222.913,212.10361 c -11.45943,0 -20.74912,-9.28969 -20.74912,-20.74912 0,-11.45943 9.28969,-20.74912 20.74912,-20.74912 11.45943,0 20.74912,9.28969 20.74912,20.74912 M 222.913,178.84053 c 1.40895,1.4e-4 2.5514,-1.14232 2.55126,-2.55127 -1.4e-4,-1.40895 -1.14251,-2.55089 -2.55126,-2.55075 m -7.53236,7.1205 c 1.40905,0 2.55127,-1.14222 2.55127,-2.55127 0,-1.40905 -1.14222,-2.55126 -2.55127,-2.55126 m 15.06523,5.10253 c 1.40895,-1.4e-4 2.55075,-1.14242 2.55075,-2.55127 0,-1.40885 -1.1418,-2.55112 -2.55075,-2.55126 m -20.57962,10.61692 c 1.40896,1.4e-4 2.55127,-1.14222 2.55127,-2.55127 0,-1.40905 -1.14232,-2.5514 -2.55127,-2.55126 m 26.0935,5.10253 c 1.40905,0 2.55126,-1.14222 2.55126,-2.55127 0,-1.40905 -1.14221,-2.55126 -2.55126,-2.55126 m -28.11146,12.63489 c 1.40895,-1.5e-4 2.55074,-1.14242 2.55074,-2.55127 0,-1.40885 -1.14179,-2.55112 -2.55074,-2.55127 m 2.01796,12.63489 c 1.40895,1.4e-4 2.55141,-1.14231 2.55127,-2.55126 -1.4e-4,-1.40895 -1.14252,-2.55089 -2.55127,-2.55075 m 5.51439,10.6164 c 1.40905,0 2.55127,-1.14221 2.55127,-2.55126 0,-1.40905 -1.14222,-2.55127 -2.55127,-2.55127 m 15.06523,5.10253 c 1.40895,-1.4e-4 2.55075,-1.14241 2.55075,-2.55126 0,-1.40885 -1.1418,-2.55113 -2.55075,-2.55127 m -7.53287,7.1205 c 1.40875,1.4e-4 2.55112,-1.1418 2.55126,-2.55075 1.4e-4,-1.40895 -1.14231,-2.55141 -2.55126,-2.55127"
           sodipodi:nodetypes="cssccsscccssssssssscczzcczcczcczcczcczcczcczcczcczcczc" /></g></g></g></svg>
