<?xml version="1.0" encoding="UTF-8" standalone="no"?>
<svg
   xml:space="preserve"
   width="792"
   height="792"
   viewBox="0 0 792 792"
   version="1.1"
   id="svg341"
   sodipodi:docname="pixiv-off.svg"
   inkscape:version="1.3 (0e150ed6c4, 2023-07-21)"
   xmlns:inkscape="http://www.inkscape.org/namespaces/inkscape"
   xmlns:sodipodi="http://sodipodi.sourceforge.net/DTD/sodipodi-0.dtd"
   xmlns="http://www.w3.org/2000/svg"
   xmlns:svg="http://www.w3.org/2000/svg"><defs
     id="defs341">&#10;&#10;&#10;&#10;&#10;&#10;&#10;&#10;&#10;&#10;&#10;&#10;&#10;&#10;&#10;&#10;&#10;&#10;&#10;&#10;&#10;&#10;&#10;&#10;&#10;&#10;&#10;&#10;&#10;&#10;&#10;&#10;&#10;&#10;&#10;&#10;&#10;&#10;&#10;&#10;&#10;&#10;&#10;&#10;&#10;&#10;&#10;&#10;&#10;&#10;&#10;&#10;&#10;&#10;&#10;&#10;&#10;&#10;&#10;&#10;&#10;&#10;&#10;&#10;&#10;&#10;&#10;&#10;&#10;&#10;&#10;&#10;&#10;&#10;&#10;&#10;&#10;&#10;&#10;&#10;&#10;&#10;&#10;&#10;&#10;&#10;&#10;&#10;&#10;&#10;&#10;&#10;&#10;&#10;&#10;&#10;&#10;&#10;&#10;&#10;&#10;&#10;&#10;&#10;&#10;&#10;&#10;&#10;&#10;&#10;&#10;&#10;&#10;&#10;&#10;&#10;&#10;&#10;&#10;&#10;&#10;&#10;&#10;&#10;&#10;&#10;&#10;&#10;&#10;&#10;&#10;&#10;&#10;&#10;&#10;&#10;&#10;&#10;&#10;&#10;&#10;&#10;&#10;&#10;&#10;&#10;&#10;&#10;&#10;&#10;&#10;&#10;&#10;&#10;&#10;&#10;&#10;&#10;&#10;&#10;&#10;&#10;&#10;&#10;&#10;&#10;&#10;&#10;&#10;&#10;&#10;&#10;&#10;&#10;&#10;&#10;&#10;&#10;&#10;&#10;&#10;&#10;&#10;&#10;&#10;&#10;&#10;&#10;&#10;&#10;&#10;&#10;&#10;&#10;&#10;&#10;&#10;&#10;&#10;&#10;&#10;&#10;&#10;&#10;&#10;&#10;&#10;&#10;&#10;&#10;&#10;&#10;&#10;&#10;&#10;&#10;&#10;&#10;&#10;&#10;&#10;&#10;&#10;&#10;&#10;&#10;&#10;&#10;&#10;&#10;&#10;&#10;&#10;&#10;&#10;&#10;&#10;&#10;&#10;&#10;&#10;&#10;&#10;&#10;&#10;&#10;&#10;&#10;&#10;&#10;&#10;&#10;&#10;&#10;&#10;&#10;&#10;&#10;&#10;&#10;&#10;&#10;&#10;&#10;&#10;&#10;&#10;&#10;&#10;&#10;&#10;&#10;&#10;&#10;&#10;&#10;&#10;&#10;&#10;&#10;&#10;&#10;&#10;&#10;&#10;&#10;&#10;&#10;&#10;&#10;&#10;&#10;&#10;&#10;&#10;&#10;&#10;&#10;&#10;&#10;&#10;&#10;&#10;&#10;&#10;&#10;&#10;&#10;&#10;&#10;&#10;&#10;&#10;&#10;&#10;&#10;&#10;&#10;&#10;&#10;&#10;&#10;&#10;&#10;&#10;&#10;&#10;&#10;&#10;&#10;&#10;&#10;&#10;&#10;&#10;</defs><sodipodi:namedview
     id="namedview341"
     pagecolor="#505050"
     bordercolor="#eeeeee"
     borderopacity="1"
     inkscape:showpageshadow="0"
     inkscape:pageopacity="0"
     inkscape:pagecheckerboard="0"
     inkscape:deskcolor="#505050"
     inkscape:zoom="1.0265152"
     inkscape:cx="337.06273"
     inkscape:cy="477.83025"
     inkscape:window-width="1920"
     inkscape:window-height="1009"
     inkscape:window-x="-8"
     inkscape:window-y="-8"
     inkscape:window-maximized="1"
     inkscape:current-layer="g427" /><g
     id="g429"
     style="stroke:#cceaff;stroke-opacity:0.33000001;fill:none"><path
       id="circle4"
       style="fill:none;fill-opacity:1;stroke:#cceaff;stroke-width:10;stroke-linecap:round;stroke-linejoin:round;stroke-dasharray:none;stroke-opacity:0.33;paint-order:markers stroke fill"
       d="M 478.74072,492.36 H 314.69928 c -7.91936,0 -14.33928,-5.69989 -14.33928,-13.61926 V 314.69929 c 0,-7.91937 6.41991,-14.33929 14.33928,-14.33929 h 164.04144 c 7.91937,0 14.33928,6.41992 14.33928,14.33929 m -22.78275,71.71256 c -0.007,-15.58871 -6.69285,-29.88416 -18.24576,-39.88856 -11.5698,-10.01901 -27.738,-15.82233 -46.54557,-15.82163 -49.02328,9.2e-4 -82.36317,37.58276 -82.36317,37.58276 l 9.39256,14.81137 m 18.55845,-25.68134 v 98.65941 c -3.91646,1.09622 -9.09361,3.15911 -5.56578,6.6645 h 26.99432 m 1.14063,-2.15999 c 0.0279,-2.27228 -3.95327,-3.73209 -6.60926,-4.50451 m 0,-23.27465 c 0,0 18.50362,7.2151 38.45225,7.2151 m -1.64682,-9.20573 c 13.75752,9.2e-4 25.70312,-5.06037 33.88804,-13.12095 8.21852,-8.09369 12.85561,-18.68913 12.86059,-31.52991 0.005,-13.17955 -4.33094,-24.53549 -12.24275,-33.05339 -7.8937,-8.49842 -19.60731,-14.06594 -34.50588,-14.08636"
       sodipodi:nodetypes="csssssccsscccccccccccsssc" /><g
       id="g428"
       style="stroke-width:10;stroke-dasharray:none;stroke:#cceaff;stroke-opacity:0.33000001;fill:none"><path
         style="fill:none;stroke:#cceaff;stroke-width:10;stroke-linecap:round;stroke-linejoin:round;stroke-dasharray:none;stroke-opacity:0.33000001"
         d="m 468.36,636.36 v 0"
         id="path377" /><path
         style="fill:none;stroke:#cceaff;stroke-width:10;stroke-linecap:round;stroke-linejoin:round;stroke-dasharray:none;stroke-opacity:0.33000001"
         d="m 468.36,732.36 h -48"
         id="path422" /><g
         id="g427"
         style="stroke:#cceaff;stroke-opacity:0.33000001;stroke-width:10;stroke-dasharray:none;fill:none"><path
           id="circle483"
           style="fill:none;fill-opacity:1;stroke:#cceaff;stroke-width:10;stroke-linejoin:round;stroke-dasharray:none;stroke-opacity:0.33000001"
           d="m 156,132 a 24,24 0 0 1 -24,24 24,24 0 0 1 -24,-24 24,24 0 0 1 24,-24 24,24 0 0 1 24,24 z" /><path
           style="fill:none;stroke:#cceaff;stroke-width:10;stroke-linecap:round;stroke-linejoin:round;stroke-dasharray:none;stroke-opacity:0.33000001;paint-order:stroke fill markers"
           d="m 204,180.36 v -96 C 204,73.045019 191.67498,60 180.36,60 h -96 C 72.87659,60 60,72.876586 60,84.36 v 96 C 60,191.67498 73.04502,204 84.36,204 h 96"
           id="path637"
           sodipodi:nodetypes="cssssssc" /><path
           style="fill:none;stroke:#cceaff;stroke-width:10;stroke-linecap:round;stroke-linejoin:round;stroke-opacity:0.33000001;stroke-dasharray:none"
           d="m 108.36,396.36 h -24"
           id="path342" /><path
           style="fill:none;stroke:#cceaff;stroke-width:10;stroke-linecap:round;stroke-linejoin:round;stroke-opacity:0.33000001;stroke-dasharray:none"
           d="m 84.36,324.36 v 0"
           id="path343" /><path
           style="fill:none;stroke:#cceaff;stroke-width:10;stroke-linecap:round;stroke-linejoin:round;stroke-opacity:0.33000001;stroke-dasharray:none"
           d="m 108.36,348.36 v 0"
           id="path344" /><path
           style="fill:none;stroke:#cceaff;stroke-width:10;stroke-linecap:round;stroke-linejoin:round;stroke-opacity:0.33000001;stroke-dasharray:none"
           d="m 132.36,372.36 v 0"
           id="path345" /><path
           style="fill:none;stroke:#cceaff;stroke-width:10;stroke-linecap:round;stroke-linejoin:round;stroke-opacity:0.33000001;stroke-dasharray:none"
           d="m 60.36,252.36 v 24"
           id="path346"
           sodipodi:nodetypes="cc" /><path
           style="fill:none;stroke:#cceaff;stroke-width:10;stroke-linecap:round;stroke-linejoin:round;stroke-opacity:0.33000001;stroke-dasharray:none"
           d="m 276.36,252.36 v 0"
           id="path351" /><path
           style="fill:none;stroke:#cceaff;stroke-width:10;stroke-linecap:round;stroke-linejoin:round;stroke-opacity:0.33000001;stroke-dasharray:none"
           d="m 276.36,84.36 v 72"
           id="path353" /><path
           style="fill:none;stroke:#cceaff;stroke-width:10;stroke-linecap:round;stroke-linejoin:round;stroke-opacity:0.33000001;stroke-dasharray:none"
           d="m 300.36,60.36 h 24"
           id="path354"
           sodipodi:nodetypes="cc" /><path
           style="fill:none;stroke:#cceaff;stroke-width:10;stroke-linecap:round;stroke-linejoin:round;stroke-opacity:0.33000001;stroke-dasharray:none"
           d="m 324.36,132.36 h 24"
           id="path355" /><path
           id="path643-7-5"
           style="fill:none;stroke:#cceaff;stroke-width:10;stroke-linecap:round;stroke-linejoin:round;stroke-dasharray:none;stroke-opacity:0.329412;paint-order:stroke fill markers"
           d="m 348.36,252.36 v -60.00001 c 0,-6.62741 -5.37259,-11.99999 -12,-11.99999 h -12"
           sodipodi:nodetypes="cssc" /><path
           id="path643-7-5-8"
           style="fill:none;stroke:#cceaff;stroke-width:10;stroke-linecap:round;stroke-linejoin:round;stroke-dasharray:none;stroke-opacity:0.329412;paint-order:stroke fill markers"
           d="M 252.36,228.36 V 120.35999 c 0,-6.62741 5.37259,-11.99999 12,-11.99999 h 36"
           sodipodi:nodetypes="cssc" /><path
           id="path643-7-5-8-1"
           style="fill:none;stroke:#cceaff;stroke-width:10;stroke-linecap:round;stroke-linejoin:round;stroke-dasharray:none;stroke-opacity:0.329412;paint-order:stroke fill markers"
           d="m 180.36,252.36 v 84.00001 c 0,6.62741 5.37259,11.99999 12,11.99999 h 36"
           sodipodi:nodetypes="cssc" /><path
           id="path643-7-5-5"
           style="fill:none;stroke:#cceaff;stroke-width:10;stroke-linecap:round;stroke-linejoin:round;stroke-dasharray:none;stroke-opacity:0.329412;paint-order:stroke fill markers"
           d="m 252.36,300.36 v -12.00001 c 0,-6.62741 -5.37259,-11.99999 -12,-11.99999 h -12"
           sodipodi:nodetypes="cssc" /><path
           id="path643-7-5-5-67-9"
           style="fill:none;stroke:#cceaff;stroke-width:10;stroke-linecap:round;stroke-linejoin:round;stroke-dasharray:none;stroke-opacity:0.329412;paint-order:stroke fill markers"
           d="m 84.360004,372.36 v 60.00001 c 0,6.62741 -5.37259,11.99999 -12.000002,11.99999 C 65.73259,444.36 60.36,449.73258 60.36,456.35999 V 540.36"
           sodipodi:nodetypes="cszsc" /><path
           id="path643-7-5-5-49"
           style="fill:none;stroke:#cceaff;stroke-width:10;stroke-linecap:round;stroke-linejoin:round;stroke-dasharray:none;stroke-opacity:0.329412;paint-order:stroke fill markers"
           d="m 180.36,492.36 v -12.00001 c 0,-6.62741 -5.37259,-11.99999 -12,-11.99999 h -48 c -6.62741,0 -12,5.37258 -12,11.99999 V 492.36"
           sodipodi:nodetypes="cssssc" /><path
           id="path643-7-5-5-6"
           style="fill:none;stroke:#cceaff;stroke-width:10;stroke-linecap:round;stroke-linejoin:round;stroke-dasharray:none;stroke-opacity:0.329412;paint-order:stroke fill markers"
           d="m 204.36,252.36 h -84 c -6.62741,0 -12,5.37258 -12,11.99999 v 24.00002 c 0,6.62741 5.37259,11.99999 12,11.99999 h 84"
           sodipodi:nodetypes="cssssc" /><path
           id="path643-7-5-5-2-3"
           style="fill:none;stroke:#cceaff;stroke-width:10;stroke-linecap:round;stroke-linejoin:round;stroke-dasharray:none;stroke-opacity:0.329412;paint-order:stroke fill markers"
           d="m 660.36,324.36 v 12.00001 c 0,6.62741 5.37259,11.99999 12,11.99999 h 12"
           sodipodi:nodetypes="cssc" /><path
           id="path643-7-5-5-2-3-7"
           style="fill:none;stroke:#cceaff;stroke-width:10;stroke-linecap:round;stroke-linejoin:round;stroke-dasharray:none;stroke-opacity:0.329412;paint-order:stroke fill markers"
           d="m 732.36,636.36 v -12.00001 c 0,-6.62741 -5.37259,-11.99999 -12,-11.99999 h -12"
           sodipodi:nodetypes="cssc" /><path
           id="path643-7-5-5-2-3-7-5"
           style="fill:none;stroke:#cceaff;stroke-width:10;stroke-linecap:round;stroke-linejoin:round;stroke-dasharray:none;stroke-opacity:0.329412;paint-order:stroke fill markers"
           d="m 564.36,540.36 v -36.00001 c 0,-6.62741 5.37259,-11.99999 12,-11.99999 6.62741,0 12,-5.37258 12,-12 0,-6.62742 5.37259,-12 12,-12 h 36"
           sodipodi:nodetypes="cszzsc" /><path
           id="path643-7-5-5-2-3-7-2"
           style="fill:none;stroke:#cceaff;stroke-width:10;stroke-linecap:round;stroke-linejoin:round;stroke-dasharray:none;stroke-opacity:0.329412;paint-order:stroke fill markers"
           d="m 660.36,732.36 v -60.00001 c 0,-6.62741 5.37259,-11.99999 12,-11.99999 6.62741,0 12,-5.37258 12,-11.99999 V 636.36"
           sodipodi:nodetypes="cszsc" /><path
           id="path643-7-5-5-2-3-7-1"
           style="fill:none;stroke:#cceaff;stroke-width:10;stroke-linecap:round;stroke-linejoin:round;stroke-dasharray:none;stroke-opacity:0.329412;paint-order:stroke fill markers"
           d="m 708.36,708.36 v -12.00001 c 0,-6.62741 -5.37259,-11.99999 -12,-11.99999 h -132"
           sodipodi:nodetypes="cssc" /><path
           id="path643-7-5-5-2-3-7-6"
           style="fill:none;stroke:#cceaff;stroke-width:10;stroke-linecap:round;stroke-linejoin:round;stroke-dasharray:none;stroke-opacity:0.329412;paint-order:stroke fill markers"
           d="m 636.36,564.36 h 84 c 6.62741,0 12,-5.37258 12,-12 0,-6.62742 -5.37259,-12 -12,-12 h -24 c -6.62741,0 -12,5.37258 -12,11.99999 v 24.00002 c 0,6.62741 -5.37259,11.99999 -12,11.99999 h -36"
           sodipodi:nodetypes="cszsssssc" /><path
           id="path643-7-5-5-2-3-9"
           style="fill:none;stroke:#cceaff;stroke-width:10;stroke-linecap:round;stroke-linejoin:round;stroke-dasharray:none;stroke-opacity:0.329412;paint-order:stroke fill markers"
           d="m 636.36,516.36 v 108.00001 c 0,6.62741 -5.37259,11.99999 -12,11.99999 h -84"
           sodipodi:nodetypes="cssc" /><path
           id="path643-7-5-5-2-3-8"
           style="fill:none;stroke:#cceaff;stroke-width:10;stroke-linecap:round;stroke-linejoin:round;stroke-dasharray:none;stroke-opacity:0.329412;paint-order:stroke fill markers"
           d="m 684.36,492.36 v -36.00001 c 0,-6.62741 -5.37259,-11.99999 -12,-11.99999 h -12"
           sodipodi:nodetypes="cssc" /><path
           id="path643-7-5-5-2-3-8-9"
           style="fill:none;stroke:#cceaff;stroke-width:10;stroke-linecap:round;stroke-linejoin:round;stroke-dasharray:none;stroke-opacity:0.329412;paint-order:stroke fill markers"
           d="m 588.36,396.36 v -12.00001 c 0,-6.62741 -5.37259,-11.99999 -12,-11.99999 h -60"
           sodipodi:nodetypes="cssc" /><path
           id="path643-7-5-5-2-3-8-9-9"
           style="fill:none;stroke:#cceaff;stroke-width:10;stroke-linecap:round;stroke-linejoin:round;stroke-dasharray:none;stroke-opacity:0.329412;paint-order:stroke fill markers"
           d="m 540.36,420.36 h -12 c -6.62741,0 -12,5.37258 -12,11.99999 v 24.00002 c 0,6.62741 5.37259,11.99999 12,11.99999 h 12"
           sodipodi:nodetypes="cssssc" /><path
           id="path643-7-5-5-2-3-8-9-9-6"
           style="fill:none;stroke:#cceaff;stroke-width:10;stroke-linecap:round;stroke-linejoin:round;stroke-dasharray:none;stroke-opacity:0.329412;paint-order:stroke fill markers"
           d="m 612.36,636.36 v 84.00001 c 0,6.62741 5.37259,11.99999 12,11.99999 h 60"
           sodipodi:nodetypes="cssc" /><path
           id="path643-7-5-5-2-3-8-4"
           style="fill:none;stroke:#cceaff;stroke-width:10;stroke-linecap:round;stroke-linejoin:round;stroke-dasharray:none;stroke-opacity:0.329412;paint-order:stroke fill markers"
           d="M 612.36,540.36 V 408.35999 c 0,-6.62741 -5.37259,-11.99999 -12,-11.99999 h -36"
           sodipodi:nodetypes="cssc" /><path
           id="path643-7-5-5-2-2"
           style="fill:none;stroke:#cceaff;stroke-width:10;stroke-linecap:round;stroke-linejoin:round;stroke-dasharray:none;stroke-opacity:0.329412;paint-order:stroke fill markers"
           d="m 420.36,132.36 v 12.00001 c 0,6.62741 -5.37259,11.99999 -12,11.99999 h -12"
           sodipodi:nodetypes="cssc" /><path
           id="path643-7-5-5-2-2-7-9"
           style="fill:none;stroke:#cceaff;stroke-width:10;stroke-linecap:round;stroke-linejoin:round;stroke-dasharray:none;stroke-opacity:0.329412;paint-order:stroke fill markers"
           d="m 492.36,60.36 h 36 c 6.62741,0 12,5.37258 12,11.99999 v 24.00002 c 0,6.62741 -5.37259,11.99999 -12,11.99999 -6.62741,0 -12,5.37258 -12,11.99999 v 24.00002 c 0,6.62741 -5.37259,11.99999 -12,11.99999 h -36"
           sodipodi:nodetypes="cssszsssc" /><path
           id="path643-7-5-5-29"
           style="fill:none;stroke:#cceaff;stroke-width:10;stroke-linecap:round;stroke-linejoin:round;stroke-dasharray:none;stroke-opacity:0.329412;paint-order:stroke fill markers"
           d="m 300.36,204.36 v 12.00001 c 0,6.62741 5.37259,11.99999 12,11.99999 h 36"
           sodipodi:nodetypes="cssc" /><path
           id="path643-7-5-5-29-7"
           style="fill:none;stroke:#cceaff;stroke-width:10;stroke-linecap:round;stroke-linejoin:round;stroke-dasharray:none;stroke-opacity:0.329412;paint-order:stroke fill markers"
           d="m 132.36,300.36 v 12.00001 c 0,6.62741 5.37259,11.99999 12,11.99999 h 36"
           sodipodi:nodetypes="cssc" /><path
           style="fill:none;stroke:#cceaff;stroke-width:10;stroke-linecap:round;stroke-linejoin:round;stroke-opacity:0.33000001;stroke-dasharray:none"
           d="m 276.36,372.36 v 48"
           id="path359" /><path
           id="path643-7-5-5-11"
           style="fill:none;stroke:#cceaff;stroke-width:10;stroke-linecap:round;stroke-linejoin:round;stroke-dasharray:none;stroke-opacity:0.329412;paint-order:stroke fill markers"
           d="m 252.36,444.36 v 12.00001 c 0,6.62741 -5.37259,11.99999 -12,11.99999 -6.62741,0 -12,5.37258 -12,12 0,6.62742 -5.37259,12 -12,12 h -48 c -6.62741,0 -12,5.37258 -12,11.99999 V 516.36"
           sodipodi:nodetypes="cszzsssc" /><path
           style="fill:none;stroke:#cceaff;stroke-width:10;stroke-linecap:round;stroke-linejoin:round;stroke-opacity:0.33000001;stroke-dasharray:none"
           d="m 228.36,420.36 v -24"
           id="path362" /><path
           style="fill:none;stroke:#cceaff;stroke-width:10;stroke-linecap:round;stroke-linejoin:round;stroke-opacity:0.33000001;stroke-dasharray:none"
           d="m 180.36,540.36 h 48"
           id="path364" /><path
           style="fill:none;stroke:#cceaff;stroke-width:10;stroke-linecap:round;stroke-linejoin:round;stroke-opacity:0.33000001;stroke-dasharray:none"
           d="m 252.36,564.36 v 0"
           id="path365" /><path
           style="fill:none;stroke:#cceaff;stroke-width:10;stroke-linecap:round;stroke-linejoin:round;stroke-opacity:0.33000001;stroke-dasharray:none"
           d="m 252.36,612.36 v 72"
           id="path369" /><path
           style="fill:none;stroke:#cceaff;stroke-width:10;stroke-linecap:round;stroke-linejoin:round;stroke-opacity:0.33000001;stroke-dasharray:none"
           d="m 396.36,612.36 h 24"
           id="path373" /><path
           style="fill:none;stroke:#cceaff;stroke-width:10;stroke-linecap:round;stroke-linejoin:round;stroke-opacity:0.33000001;stroke-dasharray:none"
           d="m 300.36,588.36 h 48"
           id="path374" /><path
           style="fill:none;stroke:#cceaff;stroke-width:10;stroke-linecap:round;stroke-linejoin:round;stroke-opacity:0.33000001;stroke-dasharray:none"
           d="m 420.36,564.36 v 72"
           id="path375" /><path
           style="fill:none;stroke:#cceaff;stroke-width:10;stroke-linecap:round;stroke-linejoin:round;stroke-dasharray:none;stroke-opacity:0.33"
           d="m 372.36,516.36 v 0"
           id="path378"
           sodipodi:nodetypes="cc" /><path
           style="fill:none;stroke:#cceaff;stroke-width:10;stroke-linecap:round;stroke-linejoin:round;stroke-opacity:0.33000001;stroke-dasharray:none"
           d="m 468.36,540.36 v 0"
           id="path380" /><path
           style="fill:none;stroke:#cceaff;stroke-width:10;stroke-linecap:round;stroke-linejoin:round;stroke-opacity:0.33000001;stroke-dasharray:none"
           d="m 492.36,564.36 v 0"
           id="path381" /><path
           style="fill:none;stroke:#cceaff;stroke-width:10;stroke-linecap:round;stroke-linejoin:round;stroke-opacity:0.33000001;stroke-dasharray:none"
           d="m 396.36,540.36 v 0"
           id="path382" /><path
           style="fill:none;stroke:#cceaff;stroke-width:10;stroke-linecap:round;stroke-linejoin:round;stroke-dasharray:none;stroke-opacity:0.33"
           d="m 372.36,276.36 v 0"
           id="path383"
           sodipodi:nodetypes="cc" /><path
           style="fill:none;stroke:#cceaff;stroke-width:10;stroke-linecap:round;stroke-linejoin:round;stroke-opacity:0.33000001;stroke-dasharray:none"
           d="m 396.36,60.36 v 24"
           id="path385" /><path
           style="fill:none;stroke:#cceaff;stroke-width:10;stroke-linecap:round;stroke-linejoin:round;stroke-opacity:0.33000001;stroke-dasharray:none"
           d="m 468.36,132.36 v 48"
           id="path387" /><path
           style="fill:none;stroke:#cceaff;stroke-width:10;stroke-linecap:round;stroke-linejoin:round;stroke-opacity:0.33000001;stroke-dasharray:none"
           d="m 444.36,108.36 v 0"
           id="path388" /><path
           style="fill:none;stroke:#cceaff;stroke-width:10;stroke-linecap:round;stroke-linejoin:round;stroke-opacity:0.33000001;stroke-dasharray:none"
           d="m 396.36,204.36 v 0"
           id="path390" /><path
           style="fill:none;stroke:#cceaff;stroke-width:10;stroke-linecap:round;stroke-linejoin:round;stroke-opacity:0.33000001;stroke-dasharray:none"
           d="m 444.36,204.36 v 0"
           id="path391" /><path
           style="fill:none;stroke:#cceaff;stroke-width:10;stroke-linecap:round;stroke-linejoin:round;stroke-opacity:0.33000001;stroke-dasharray:none"
           d="m 492.36,204.36 v 72"
           id="path392" /><path
           id="path643-7-5-54"
           style="fill:none;stroke:#cceaff;stroke-width:10;stroke-linecap:round;stroke-linejoin:round;stroke-dasharray:none;stroke-opacity:0.329412;paint-order:stroke fill markers"
           d="m 468.36,276.36 0,-12.00001 c 0,-6.62741 5.37259,-11.99999 12,-11.99999 h 12"
           sodipodi:nodetypes="cssc" /><path
           style="fill:none;stroke:#cceaff;stroke-width:10;stroke-linecap:round;stroke-linejoin:round;stroke-opacity:0.33000001;stroke-dasharray:none"
           d="m 444.36,276.36 h 96"
           id="path394" /><path
           id="path643-7-5-5-4-6-5"
           style="fill:none;stroke:#cceaff;stroke-width:10;stroke-linecap:round;stroke-linejoin:round;stroke-dasharray:none;stroke-opacity:0.329412;paint-order:stroke fill markers"
           d="m 684.36,252.36 h -84 c -6.62741,0 -12,5.37258 -12,12 0,6.62742 5.37259,12 12,12 h 36"
           sodipodi:nodetypes="cszsc" /><path
           id="path643-7-5-5-4-6-5-8"
           style="fill:none;stroke:#cceaff;stroke-width:10;stroke-linecap:round;stroke-linejoin:round;stroke-dasharray:none;stroke-opacity:0.329412;paint-order:stroke fill markers"
           d="m 636.36,540.36 h -108 c -6.62741,0 -12,-5.37258 -12,-12 0,-6.62742 5.37259,-12 12,-12 h 36"
           sodipodi:nodetypes="cszsc" /><path
           style="fill:none;stroke:#cceaff;stroke-width:10;stroke-linecap:round;stroke-linejoin:round;stroke-opacity:0.33000001;stroke-dasharray:none"
           d="m 732.36,276.36 v 0"
           id="path397" /><path
           style="fill:none;stroke:#cceaff;stroke-width:10;stroke-linecap:round;stroke-linejoin:round;stroke-opacity:0.33000001;stroke-dasharray:none"
           d="m 708.36,324.36 v 0"
           id="path399" /><path
           style="fill:none;stroke:#cceaff;stroke-width:10;stroke-linecap:round;stroke-linejoin:round;stroke-opacity:0.33000001;stroke-dasharray:none"
           d="m 612.36,324.36 v 0"
           id="path400" /><path
           style="fill:none;stroke:#cceaff;stroke-width:10;stroke-linecap:round;stroke-linejoin:round;stroke-opacity:0.33000001;stroke-dasharray:none"
           d="m 732.36,372.36 v 0"
           id="path401" /><path
           style="fill:none;stroke:#cceaff;stroke-width:10;stroke-linecap:round;stroke-linejoin:round;stroke-opacity:0.33000001;stroke-dasharray:none"
           d="m 636.36,372.36 v 0"
           id="path402" /><path
           style="fill:none;stroke:#cceaff;stroke-width:10;stroke-linecap:round;stroke-linejoin:round;stroke-opacity:0.33000001;stroke-dasharray:none"
           d="m 540.36,660.36 v -120"
           id="path408" /><path
           style="fill:none;stroke:#cceaff;stroke-width:10;stroke-linecap:round;stroke-linejoin:round;stroke-opacity:0.33000001;stroke-dasharray:none"
           d="m 516.36,588.36 h 24"
           id="path409" /><path
           style="fill:none;stroke:#cceaff;stroke-width:10;stroke-linecap:round;stroke-linejoin:round;stroke-opacity:0.33000001;stroke-dasharray:none"
           d="m 708.36,516.36 v 24"
           id="path410"
           sodipodi:nodetypes="cc" /><path
           style="fill:none;stroke:#cceaff;stroke-width:10;stroke-linecap:round;stroke-linejoin:round;stroke-opacity:0.33000001;stroke-dasharray:none"
           d="m 660.36,396.36 h 24"
           id="path413" /><path
           style="fill:none;stroke:#cceaff;stroke-width:10;stroke-linecap:round;stroke-linejoin:round;stroke-opacity:0.33000001;stroke-dasharray:none"
           d="m 708.36,420.36 v 0"
           id="path414" /><path
           style="fill:none;stroke:#cceaff;stroke-width:10;stroke-linecap:round;stroke-linejoin:round;stroke-opacity:0.33000001;stroke-dasharray:none"
           d="m 732.36,468.36 v 0"
           id="path415" /><path
           style="fill:none;stroke:#cceaff;stroke-width:10;stroke-linecap:round;stroke-linejoin:round;stroke-opacity:0.33000001;stroke-dasharray:none"
           d="m 636.36,420.36 h -24"
           id="path417" /><path
           style="fill:none;stroke:#cceaff;stroke-width:10;stroke-linecap:round;stroke-linejoin:round;stroke-opacity:0.33000001;stroke-dasharray:none"
           d="m 492.36,708.36 h 120"
           id="path418" /><path
           style="fill:none;stroke:#cceaff;stroke-width:10;stroke-linecap:round;stroke-linejoin:round;stroke-opacity:0.33000001;stroke-dasharray:none"
           d="m 588.36,588.36 v 0"
           id="path423" /><path
           id="path424"
           style="fill:none;fill-opacity:1;stroke:#cceaff;stroke-width:10;stroke-linejoin:round;stroke-dasharray:none;stroke-opacity:0.33000001"
           d="m 636,132 a 24,24 0 0 0 24,24 24,24 0 0 0 24,-24 24,24 0 0 0 -24,-24 24,24 0 0 0 -24,24 z" /><path
           style="fill:none;stroke:#cceaff;stroke-width:10;stroke-linecap:round;stroke-linejoin:round;stroke-dasharray:none;stroke-opacity:0.33000001;paint-order:stroke fill markers"
           d="m 588,180.36 v -96 C 588,73.045019 600.32502,60 611.64,60 h 96 C 719.12341,60 732,72.876586 732,84.36 v 96 C 732,191.67498 718.95498,204 707.64,204 h -96"
           id="path425"
           sodipodi:nodetypes="cssssssc" /><path
           id="path426"
           style="fill:none;fill-opacity:1;stroke:#cceaff;stroke-width:10;stroke-linejoin:round;stroke-dasharray:none;stroke-opacity:0.33000001"
           d="m 156,660 a 24,24 0 0 0 -24,-24 24,24 0 0 0 -24,24 24,24 0 0 0 24,24 24,24 0 0 0 24,-24 z" /><path
           style="fill:none;stroke:#cceaff;stroke-width:10;stroke-linecap:round;stroke-linejoin:round;stroke-dasharray:none;stroke-opacity:0.33000001;paint-order:stroke fill markers"
           d="m 204,611.64 v 96 C 204,718.95498 191.67498,732 180.36,732 h -96 C 72.87659,732 60,719.12341 60,707.64 v -96 C 60,600.32502 73.04502,588 84.36,588 h 96"
           id="path427"
           sodipodi:nodetypes="cssssssc" /><path
           id="path643-7-5-5-4"
           style="fill:none;stroke:#cceaff;stroke-width:10;stroke-linecap:round;stroke-linejoin:round;stroke-dasharray:none;stroke-opacity:0.329412;paint-order:stroke fill markers"
           d="m 276.36,660.36 v -12.00001 c 0,-6.62741 -5.37259,-11.99999 -12,-11.99999 h -12"
           sodipodi:nodetypes="cssc" /><path
           id="path643-7-5-5-4-1"
           style="fill:none;stroke:#cceaff;stroke-width:10;stroke-linecap:round;stroke-linejoin:round;stroke-dasharray:none;stroke-opacity:0.329412;paint-order:stroke fill markers"
           d="m 372.36,660.36 h 12 c 6.62741,0 12,5.37258 12,12 0,6.62742 5.37259,12 12,12 h 96 c 6.62741,0 12,5.37258 12,11.99999 V 732.36"
           sodipodi:nodetypes="cszsssc" /><path
           id="path643-7-5-5-4-2"
           style="fill:none;stroke:#cceaff;stroke-width:10;stroke-linecap:round;stroke-linejoin:round;stroke-dasharray:none;stroke-opacity:0.329412;paint-order:stroke fill markers"
           d="M 300.36,612.36 V 504.35999 c 0,-6.62741 -5.37259,-11.99999 -12,-11.99999 h -12"
           sodipodi:nodetypes="cssc" /><path
           id="path643-7-5-5-4-5"
           style="fill:none;stroke:#cceaff;stroke-width:10;stroke-linecap:round;stroke-linejoin:round;stroke-dasharray:none;stroke-opacity:0.329412;paint-order:stroke fill markers"
           d="m 276.36,540.36 v -12.00001 c 0,-6.62741 5.37259,-11.99999 12,-11.99999 h 36"
           sodipodi:nodetypes="cssc" /><path
           id="path643-7-5-5-4-5-2"
           style="fill:none;stroke:#cceaff;stroke-width:10;stroke-linecap:round;stroke-linejoin:round;stroke-dasharray:none;stroke-opacity:0.329412;paint-order:stroke fill markers"
           d="m 348.36,540.36 v 84.00001 c 0,6.62741 -5.37259,11.99999 -12,11.99999 -6.62741,0 -12,5.37258 -12,11.99999 V 708.36"
           sodipodi:nodetypes="cszsc" /><path
           id="path643-7-5-5-4-6"
           style="fill:none;stroke:#cceaff;stroke-width:10;stroke-linecap:round;stroke-linejoin:round;stroke-dasharray:none;stroke-opacity:0.329412;paint-order:stroke fill markers"
           d="m 252.36,732.36 h 12 c 6.62741,0 12,-5.37258 12,-12 0,-6.62742 5.37259,-12 12,-12 h 72 c 6.62741,0 12,5.37258 12,12 0,6.62742 -5.37259,12 -12,12 h -12"
           sodipodi:nodetypes="cszsszsc" /><path
           id="path643-7-5-5-4-6-7"
           style="fill:none;stroke:#cceaff;stroke-width:10;stroke-linecap:round;stroke-linejoin:round;stroke-dasharray:none;stroke-opacity:0.329412;paint-order:stroke fill markers"
           d="m 132.36,420.36 h 12 c 6.62741,0 12,-5.37258 12,-12 0,-6.62742 5.37259,-12 12,-12 h 108"
           sodipodi:nodetypes="cszsc" /><path
           id="path643-7-5-5-4-3"
           style="fill:none;stroke:#cceaff;stroke-width:10;stroke-linecap:round;stroke-linejoin:round;stroke-dasharray:none;stroke-opacity:0.329412;paint-order:stroke fill markers"
           d="m 300.36,708.36 v -36.00001 c 0,-6.62741 -5.37259,-11.99999 -12,-11.99999 h -36"
           sodipodi:nodetypes="cssc" /><path
           id="path429"
           style="fill:none;stroke:#cceaff;stroke-width:10;stroke-linecap:round;stroke-linejoin:round;stroke-dasharray:none;stroke-opacity:0.329412;paint-order:stroke fill markers"
           d="m 420.36,516.36 h 24"
           sodipodi:nodetypes="cc" /><path
           id="path429-3"
           style="fill:none;stroke:#cceaff;stroke-width:10;stroke-linecap:round;stroke-linejoin:round;stroke-dasharray:none;stroke-opacity:0.329412;paint-order:stroke fill markers"
           d="m 540.36,204.36 v 108.00001 c 0,6.62741 5.37259,11.99999 12,11.99999 6.62741,0 12,-5.37258 12,-11.99999 V 300.36"
           sodipodi:nodetypes="cszsc" /></g></g></g></svg>
