<?xml version="1.0" encoding="UTF-8" standalone="no"?>
<svg
   xml:space="preserve"
   width="924.07996"
   height="924.07996"
   viewBox="0 0 924.07996 924.07996"
   version="1.1"
   id="svg511"
   sodipodi:docname="qr-off.svg"
   inkscape:version="1.3 (0e150ed6c4, 2023-07-21)"
   xmlns:inkscape="http://www.inkscape.org/namespaces/inkscape"
   xmlns:sodipodi="http://sodipodi.sourceforge.net/DTD/sodipodi-0.dtd"
   xmlns="http://www.w3.org/2000/svg"
   xmlns:svg="http://www.w3.org/2000/svg"><defs
     id="defs511">&#10;&#10;&#10;&#10;&#10;&#10;&#10;&#10;&#10;&#10;&#10;&#10;&#10;&#10;&#10;&#10;&#10;&#10;&#10;&#10;&#10;&#10;&#10;&#10;&#10;&#10;&#10;&#10;&#10;&#10;&#10;&#10;&#10;&#10;&#10;&#10;&#10;&#10;&#10;&#10;&#10;&#10;&#10;&#10;&#10;&#10;&#10;&#10;&#10;&#10;&#10;&#10;&#10;&#10;&#10;&#10;&#10;&#10;&#10;&#10;&#10;&#10;&#10;&#10;&#10;&#10;&#10;&#10;&#10;&#10;&#10;&#10;&#10;&#10;&#10;&#10;&#10;&#10;&#10;&#10;&#10;&#10;&#10;&#10;&#10;&#10;&#10;&#10;&#10;&#10;&#10;&#10;&#10;&#10;&#10;&#10;&#10;&#10;&#10;&#10;&#10;&#10;&#10;&#10;&#10;&#10;&#10;&#10;&#10;&#10;&#10;&#10;&#10;&#10;&#10;&#10;&#10;&#10;&#10;&#10;&#10;&#10;&#10;&#10;&#10;&#10;&#10;&#10;&#10;&#10;&#10;&#10;&#10;&#10;&#10;&#10;&#10;&#10;&#10;&#10;&#10;&#10;&#10;&#10;&#10;&#10;&#10;&#10;&#10;&#10;&#10;&#10;&#10;&#10;&#10;&#10;&#10;&#10;&#10;&#10;&#10;&#10;&#10;&#10;&#10;&#10;&#10;&#10;&#10;&#10;&#10;&#10;&#10;&#10;&#10;&#10;&#10;&#10;&#10;&#10;&#10;&#10;&#10;&#10;&#10;&#10;&#10;&#10;&#10;&#10;&#10;&#10;&#10;&#10;&#10;&#10;&#10;&#10;&#10;&#10;&#10;&#10;&#10;&#10;&#10;&#10;&#10;&#10;&#10;&#10;&#10;&#10;&#10;&#10;&#10;&#10;&#10;&#10;&#10;&#10;&#10;&#10;&#10;&#10;&#10;&#10;&#10;&#10;&#10;&#10;&#10;&#10;&#10;&#10;&#10;&#10;&#10;&#10;&#10;&#10;&#10;&#10;&#10;&#10;&#10;&#10;&#10;&#10;&#10;&#10;&#10;&#10;&#10;&#10;&#10;&#10;&#10;&#10;&#10;&#10;&#10;&#10;&#10;&#10;&#10;&#10;&#10;&#10;&#10;&#10;&#10;&#10;&#10;&#10;&#10;&#10;&#10;&#10;&#10;&#10;&#10;&#10;&#10;&#10;&#10;&#10;&#10;&#10;&#10;&#10;&#10;&#10;&#10;&#10;&#10;&#10;&#10;&#10;&#10;&#10;&#10;&#10;&#10;&#10;&#10;&#10;&#10;&#10;&#10;&#10;&#10;&#10;&#10;&#10;&#10;&#10;&#10;&#10;&#10;&#10;&#10;&#10;&#10;&#10;&#10;&#10;&#10;&#10;&#10;&#10;&#10;&#10;&#10;&#10;&#10;&#10;&#10;&#10;&#10;&#10;&#10;&#10;&#10;&#10;&#10;&#10;&#10;&#10;&#10;&#10;&#10;&#10;&#10;&#10;&#10;&#10;&#10;&#10;&#10;&#10;&#10;&#10;&#10;&#10;&#10;&#10;&#10;&#10;&#10;&#10;&#10;&#10;&#10;&#10;&#10;&#10;&#10;&#10;&#10;&#10;&#10;&#10;&#10;&#10;&#10;&#10;&#10;&#10;&#10;&#10;&#10;&#10;&#10;&#10;&#10;&#10;&#10;&#10;&#10;&#10;&#10;&#10;&#10;&#10;&#10;&#10;&#10;&#10;&#10;&#10;&#10;&#10;&#10;&#10;&#10;&#10;&#10;&#10;&#10;&#10;&#10;&#10;&#10;&#10;&#10;&#10;&#10;&#10;&#10;&#10;&#10;&#10;&#10;&#10;&#10;&#10;&#10;&#10;&#10;&#10;&#10;&#10;&#10;&#10;&#10;&#10;&#10;&#10;&#10;&#10;&#10;&#10;&#10;&#10;&#10;&#10;&#10;&#10;&#10;&#10;&#10;&#10;&#10;&#10;&#10;&#10;&#10;&#10;&#10;&#10;&#10;&#10;&#10;&#10;&#10;&#10;&#10;&#10;&#10;&#10;&#10;&#10;&#10;</defs><sodipodi:namedview
     id="namedview511"
     pagecolor="#505050"
     bordercolor="#eeeeee"
     borderopacity="1"
     inkscape:showpageshadow="0"
     inkscape:pageopacity="0"
     inkscape:pagecheckerboard="0"
     inkscape:deskcolor="#505050"
     showgrid="false"
     inkscape:zoom="0.62276786"
     inkscape:cx="330.78136"
     inkscape:cy="622.22222"
     inkscape:window-width="1920"
     inkscape:window-height="1051"
     inkscape:window-x="-9"
     inkscape:window-y="-9"
     inkscape:window-maximized="1"
     inkscape:current-layer="svg511" /><g
     id="g3"
     style="stroke:#ccd9ff;stroke-width:10;stroke-dasharray:none;stroke-opacity:0.33000001;fill:none"
     transform="translate(17.74998,17.60998)"><path
       id="path1-7-8"
       style="fill:none;stroke:#ccd9ff;stroke-width:10;stroke-linecap:round;stroke-linejoin:round;stroke-dasharray:none;stroke-opacity:0.33000001;paint-order:stroke fill markers"
       d="m 444.36,612.36 h -36 c -6.62742,0 -12,-5.37258 -12,-12 v -24.00001 c 0,-6.62741 5.37259,-11.99999 12,-11.99999 6.62741,0 12,5.37258 12,11.99999 V 636.36"
       sodipodi:nodetypes="csssssc" /><path
       id="path643-7-5-2-8-5-0"
       style="fill:none;stroke:#ccd9ff;stroke-width:10;stroke-linecap:round;stroke-linejoin:round;stroke-dasharray:none;stroke-opacity:0.33000001;paint-order:stroke fill markers"
       d="m 252.36,228.36 v -108 c 0,-6.62741 5.37259,-11.99999 12,-11.99999 l 24,-1e-5 c 6.62741,0 12,5.37258 12,12 0,6.62742 5.37259,12 12,12 h 12"
       sodipodi:nodetypes="ccsszsc" /><path
       id="path643-7-5-3"
       style="fill:none;stroke:#ccd9ff;stroke-width:10;stroke-linecap:round;stroke-linejoin:round;stroke-dasharray:none;stroke-opacity:0.33000001;paint-order:stroke fill markers"
       d="m 300.36,204.36 v -12 c 0,-6.62741 -5.37259,-11.99999 -12,-12 -6.62741,0 -12,-5.37258 -12,-11.99999 V 96.35999 c 0,-6.62741 5.37259,-11.99999 12,-11.99999 l 48,-1e-5 c 6.62741,0 12,-5.37258 12,-11.99999 v -12"
       sodipodi:nodetypes="cszsssssc" /><path
       id="path643-7"
       style="fill:none;stroke:#ccd9ff;stroke-width:10;stroke-linecap:round;stroke-linejoin:round;stroke-dasharray:none;stroke-opacity:0.33000001;paint-order:stroke fill markers"
       d="m 108.36,396.36 v 12 c 0,6.62741 -5.37259,11.99999 -11.999999,11.99999 h -24 c -6.627417,0 -12,5.37258 -11.999999,12 5e-6,6.62741 5.372586,11.99999 11.999999,11.99999 6.627413,0 11.999999,-5.37258 11.999999,-11.99999 v -48 c 0,-6.62741 -5.372588,-11.99999 -12.000001,-12 -6.627412,0 -11.999994,-5.37258 -11.999999,-11.99999 -10e-7,-6.62742 5.372582,-12 11.999999,-12 H 132.36"
       sodipodi:nodetypes="csssssszsc" /><path
       id="path643-7-5"
       style="fill:none;stroke:#ccd9ff;stroke-width:10;stroke-linecap:round;stroke-linejoin:round;stroke-dasharray:none;stroke-opacity:0.33000001;paint-order:stroke fill markers"
       d="m 276.36,252.36 v 12 c 0,6.62741 5.37259,11.99999 12,11.99999 h 12"
       sodipodi:nodetypes="cssc" /><path
       id="path643-7-5-7"
       style="fill:none;stroke:#ccd9ff;stroke-width:10;stroke-linecap:round;stroke-linejoin:round;stroke-dasharray:none;stroke-opacity:0.33000001;paint-order:stroke fill markers"
       d="m 180.36,252.36 v 132.00001 c 0,6.62741 5.37259,11.99999 12,11.99999 h 12"
       sodipodi:nodetypes="cssc" /><path
       id="circle4"
       style="fill:none;fill-opacity:1;stroke:#ccd9ff;stroke-width:10;stroke-linecap:round;stroke-linejoin:round;stroke-dasharray:none;stroke-opacity:0.33000001;paint-order:markers stroke fill"
       d="m 409.15133,378.39567 c 0,-7.91937 -6.41992,-14.33929 -14.33929,-14.33929 -7.91937,0 -14.33929,6.41992 -14.33929,14.33929 0,7.91937 6.41992,14.33929 14.33929,14.33929 m 14.33929,20.57053 h -28.67858 v 94.22179 h 28.67858 m 98.37574,-65.60415 c 0,-15.83873 -12.83967,-28.67836 -28.67838,-28.67836 -8.03948,0 -15.30233,3.31179 -20.50957,8.64099 m 0,-8.58014 h -28.67838 v 94.22174 h 28.67838 m 10.25489,-75.85911 c 5.66351,0 10.25469,4.59118 10.25469,10.25469 v 65.60442 h 28.67837 m 18.49367,32.83267 H 361.9793 c -7.91936,0 -14.33928,-6.41991 -14.33928,-14.33928 V 361.9793 c 0,-7.91937 6.41991,-14.33929 14.33928,-14.33929 h 164.04144 c 7.91937,0 14.33928,6.41992 14.33928,14.33929"
       sodipodi:nodetypes="cssccccccsccccccscccsssssc" /><path
       id="circle483"
       style="fill:none;fill-opacity:1;stroke:#ccd9ff;stroke-width:10;stroke-linejoin:round;stroke-dasharray:none;stroke-opacity:0.33000001"
       d="m 156,132 a 24,24 0 0 1 -24,24 24,24 0 0 1 -24,-24 24,24 0 0 1 24,-24 24,24 0 0 1 24,24 z" /><path
       id="circle511"
       style="fill:none;fill-opacity:1;stroke:#ccd9ff;stroke-width:10;stroke-linejoin:round;stroke-dasharray:none;stroke-opacity:0.33000001"
       transform="scale(1,-1)"
       d="m 156,-756 a 24,24 0 0 1 -24,24 24,24 0 0 1 -24,-24 24,24 0 0 1 24,-24 24,24 0 0 1 24,24 z" /><path
       id="circle512"
       style="fill:none;fill-opacity:1;stroke:#ccd9ff;stroke-width:10;stroke-linejoin:round;stroke-dasharray:none;stroke-opacity:0.33000001"
       transform="scale(-1,1)"
       d="m -732,132 a 24,24 0 0 1 -24,24 24,24 0 0 1 -24,-24 24,24 0 0 1 24,-24 24,24 0 0 1 24,24 z" /><path
       style="fill:none;stroke:#ccd9ff;stroke-width:10;stroke-linecap:round;stroke-linejoin:round;stroke-dasharray:none;stroke-opacity:0.33000001;paint-order:stroke fill markers"
       d="m 60.36,252.36 v 0"
       id="path513" /><path
       style="fill:none;stroke:#ccd9ff;stroke-width:10;stroke-linecap:round;stroke-linejoin:round;stroke-dasharray:none;stroke-opacity:0.33000001;paint-order:stroke fill markers"
       d="m 108.36,252.36 h 96"
       id="path514" /><path
       style="fill:none;stroke:#ccd9ff;stroke-width:10;stroke-linecap:round;stroke-linejoin:round;stroke-dasharray:none;stroke-opacity:0.33000001;paint-order:stroke fill markers"
       d="m 156.36,324.36 h 24"
       id="path516" /><path
       style="fill:none;stroke:#ccd9ff;stroke-width:10;stroke-linecap:round;stroke-linejoin:round;stroke-dasharray:none;stroke-opacity:0.33000001;paint-order:stroke fill markers"
       d="m 228.36,276.36 v 96"
       id="path517"
       sodipodi:nodetypes="cc" /><path
       style="fill:none;stroke:#ccd9ff;stroke-width:10;stroke-linecap:round;stroke-linejoin:round;stroke-dasharray:none;stroke-opacity:0.33000001;paint-order:stroke fill markers"
       d="m 276.36,348.36 h -96"
       id="path518" /><path
       style="fill:none;stroke:#ccd9ff;stroke-width:10;stroke-linecap:round;stroke-linejoin:round;stroke-dasharray:none;stroke-opacity:0.33000001;paint-order:stroke fill markers"
       d="m 180.36,300.36 h 48"
       id="path519" /><path
       style="fill:none;stroke:#ccd9ff;stroke-width:10;stroke-linecap:round;stroke-linejoin:round;stroke-dasharray:none;stroke-opacity:0.33000001;paint-order:stroke fill markers"
       d="m 108.36,324.36 v 24"
       id="path521" /><path
       style="fill:none;stroke:#ccd9ff;stroke-width:10;stroke-linecap:round;stroke-linejoin:round;stroke-dasharray:none;stroke-opacity:0.33000001;paint-order:stroke fill markers"
       d="m 60.36,300.36 v 0"
       id="path522" /><path
       style="fill:none;stroke:#ccd9ff;stroke-width:10;stroke-linecap:round;stroke-linejoin:round;stroke-dasharray:none;stroke-opacity:0.33000001;paint-order:stroke fill markers"
       d="m 132.36,444.36 v 0"
       id="path523" /><path
       style="fill:none;stroke:#ccd9ff;stroke-width:10;stroke-linecap:round;stroke-linejoin:round;stroke-dasharray:none;stroke-opacity:0.33000001;paint-order:stroke fill markers"
       d="m 156.36,420.36 v 0"
       id="path524" /><path
       style="fill:none;stroke:#ccd9ff;stroke-width:10;stroke-linecap:round;stroke-linejoin:round;stroke-dasharray:none;stroke-opacity:0.33000001;paint-order:stroke fill markers"
       d="m 180.36,564.36 v 24"
       id="path527" /><path
       style="fill:none;stroke:#ccd9ff;stroke-width:10;stroke-linecap:round;stroke-linejoin:round;stroke-dasharray:none;stroke-opacity:0.33000001;paint-order:stroke fill markers"
       d="m 156.36,516.36 v 24"
       id="path528" /><path
       style="fill:none;stroke:#ccd9ff;stroke-width:10;stroke-linecap:round;stroke-linejoin:round;stroke-dasharray:none;stroke-opacity:0.33000001;paint-order:stroke fill markers"
       d="m 156.36,468.36 h 24"
       id="path530" /><path
       style="fill:none;stroke:#ccd9ff;stroke-width:10;stroke-linecap:round;stroke-linejoin:round;stroke-dasharray:none;stroke-opacity:0.33000001;paint-order:stroke fill markers"
       d="m 132.36,492.36 v 0"
       id="path531" /><path
       style="fill:none;stroke:#ccd9ff;stroke-width:10;stroke-linecap:round;stroke-linejoin:round;stroke-dasharray:none;stroke-opacity:0.33000001;paint-order:stroke fill markers"
       d="m 84.36,492.36 v 0"
       id="path532" /><path
       style="fill:none;stroke:#ccd9ff;stroke-width:10;stroke-linecap:round;stroke-linejoin:round;stroke-dasharray:none;stroke-opacity:0.33000001;paint-order:stroke fill markers"
       d="m 108.36,636.36 v 0"
       id="path533" /><path
       style="fill:none;stroke:#ccd9ff;stroke-width:10;stroke-linecap:round;stroke-linejoin:round;stroke-dasharray:none;stroke-opacity:0.33000001;paint-order:stroke fill markers"
       d="m 156.36,636.36 h 48"
       id="path534" /><path
       style="fill:none;stroke:#ccd9ff;stroke-width:10;stroke-linecap:round;stroke-linejoin:round;stroke-dasharray:none;stroke-opacity:0.33000001;paint-order:stroke fill markers"
       d="m 252.36,660.36 h 96"
       id="path535" /><path
       style="fill:none;stroke:#ccd9ff;stroke-width:10;stroke-linecap:round;stroke-linejoin:round;stroke-dasharray:none;stroke-opacity:0.33000001;paint-order:stroke fill markers"
       d="m 300.36,372.36 h 12 c 5.65685,0 12,6.34315 12,12 0,5.65685 -6.34315,12 -12,12 h -24 c -5.65685,0 -12,6.34315 -12,12 v 72 c 0,5.65685 6.34315,12 12,12 h 36"
       id="path538"
       sodipodi:nodetypes="cszsssssc" /><path
       style="fill:none;stroke:#ccd9ff;stroke-width:10;stroke-linecap:round;stroke-linejoin:round;stroke-dasharray:none;stroke-opacity:0.33000001;paint-order:stroke fill markers"
       d="m 252.36,324.36 v 84 c 0,5.65685 6.34315,12 12,12 h 12"
       id="path539"
       sodipodi:nodetypes="cssc" /><path
       style="fill:none;stroke:#ccd9ff;stroke-width:10;stroke-linecap:round;stroke-linejoin:round;stroke-dasharray:none;stroke-opacity:0.33000001;paint-order:stroke fill markers"
       d="m 276.36,468.36 h -24"
       id="path541"
       sodipodi:nodetypes="cc" /><path
       style="fill:none;stroke:#ccd9ff;stroke-width:10;stroke-linecap:round;stroke-linejoin:round;stroke-dasharray:none;stroke-opacity:0.33000001;paint-order:stroke fill markers"
       d="m 372.36,636.36 v 0"
       id="path543" /><path
       style="fill:none;stroke:#ccd9ff;stroke-width:10;stroke-linecap:round;stroke-linejoin:round;stroke-dasharray:none;stroke-opacity:0.33000001;paint-order:stroke fill markers"
       d="m 324.36,444.36 v 0"
       id="path545"
       sodipodi:nodetypes="cc" /><path
       style="fill:none;stroke:#ccd9ff;stroke-width:10;stroke-linecap:round;stroke-linejoin:round;stroke-dasharray:none;stroke-opacity:0.33000001;paint-order:stroke fill markers"
       d="m 444.36,300.36 h -72"
       id="path547" /><path
       style="fill:none;stroke:#ccd9ff;stroke-width:10;stroke-linecap:round;stroke-linejoin:round;stroke-dasharray:none;stroke-opacity:0.33000001;paint-order:stroke fill markers"
       d="m 348.36,180.36 h 48"
       id="path548" /><path
       style="fill:none;stroke:#ccd9ff;stroke-width:10;stroke-linecap:round;stroke-linejoin:round;stroke-dasharray:none;stroke-opacity:0.33000001;paint-order:stroke fill markers"
       d="m 516.36,108.36 h -48"
       id="path550" /><path
       style="fill:none;stroke:#ccd9ff;stroke-width:10;stroke-linecap:round;stroke-linejoin:round;stroke-dasharray:none;stroke-opacity:0.33000001;paint-order:stroke fill markers"
       d="m 420.36,156.36 v -72"
       id="path551" /><path
       style="fill:none;stroke:#ccd9ff;stroke-width:10;stroke-linecap:round;stroke-linejoin:round;stroke-dasharray:none;stroke-opacity:0.33000001;paint-order:stroke fill markers"
       d="m 396.36,108.36 h 24"
       id="path552" /><path
       style="fill:none;stroke:#ccd9ff;stroke-width:10;stroke-linecap:round;stroke-linejoin:round;stroke-dasharray:none;stroke-opacity:0.33000001;paint-order:stroke fill markers"
       d="m 588.36,132.36 v 72"
       id="path554"
       sodipodi:nodetypes="cc" /><path
       style="fill:none;stroke:#ccd9ff;stroke-width:10;stroke-linecap:round;stroke-linejoin:round;stroke-dasharray:none;stroke-opacity:0.33000001;paint-order:stroke fill markers"
       d="m 612.36,180.36 h -24"
       id="path555" /><path
       style="fill:none;stroke:#ccd9ff;stroke-width:10;stroke-linecap:round;stroke-linejoin:round;stroke-dasharray:none;stroke-opacity:0.33000001;paint-order:stroke fill markers"
       d="m 540.36,156.36 v 48"
       id="path556" /><path
       style="fill:none;stroke:#ccd9ff;stroke-width:10;stroke-linecap:round;stroke-linejoin:round;stroke-dasharray:none;stroke-opacity:0.33000001;paint-order:stroke fill markers"
       d="m 516.36,228.36 v 0"
       id="path557" /><path
       style="fill:none;stroke:#ccd9ff;stroke-width:10;stroke-linecap:round;stroke-linejoin:round;stroke-dasharray:none;stroke-opacity:0.33000001;paint-order:stroke fill markers"
       d="m 492.36,204.36 v 0"
       id="path558" /><path
       style="fill:none;stroke:#ccd9ff;stroke-width:10;stroke-linecap:round;stroke-linejoin:round;stroke-dasharray:none;stroke-opacity:0.33000001;paint-order:stroke fill markers"
       d="m 468.36,180.36 v -24"
       id="path559" /><path
       style="fill:none;stroke:#ccd9ff;stroke-width:10;stroke-linecap:round;stroke-linejoin:round;stroke-dasharray:none;stroke-opacity:0.33000001;paint-order:stroke fill markers"
       d="m 636.36,108.36 v 0"
       id="path560" /><path
       style="fill:none;stroke:#ccd9ff;stroke-width:10;stroke-linecap:round;stroke-linejoin:round;stroke-dasharray:none;stroke-opacity:0.33000001;paint-order:stroke fill markers"
       d="m 612.36,60.36 v 0"
       id="path561" /><path
       style="fill:none;stroke:#ccd9ff;stroke-width:10;stroke-linecap:round;stroke-linejoin:round;stroke-dasharray:none;stroke-opacity:0.33000001;paint-order:stroke fill markers"
       d="m 564.36,228.36 v 0"
       id="path562" /><path
       style="fill:none;stroke:#ccd9ff;stroke-width:10;stroke-linecap:round;stroke-linejoin:round;stroke-dasharray:none;stroke-opacity:0.33000001;paint-order:stroke fill markers"
       d="m 612.36,276.36 v -24"
       id="path564" /><path
       style="fill:none;stroke:#ccd9ff;stroke-width:10;stroke-linecap:round;stroke-linejoin:round;stroke-dasharray:none;stroke-opacity:0.33000001;paint-order:stroke fill markers"
       d="m 516.36,324.36 h 24"
       id="path566"
       sodipodi:nodetypes="cc" /><path
       style="fill:none;stroke:#ccd9ff;stroke-width:10;stroke-linecap:round;stroke-linejoin:round;stroke-dasharray:none;stroke-opacity:0.33000001;paint-order:stroke fill markers"
       d="m 564.36,348.36 v 0"
       id="path567" /><path
       style="fill:none;stroke:#ccd9ff;stroke-width:10;stroke-linecap:round;stroke-linejoin:round;stroke-dasharray:none;stroke-opacity:0.33000001;paint-order:stroke fill markers"
       d="m 588.36,324.36 v 0"
       id="path568" /><path
       style="fill:none;stroke:#ccd9ff;stroke-width:10;stroke-linecap:round;stroke-linejoin:round;stroke-dasharray:none;stroke-opacity:0.33000001;paint-order:stroke fill markers"
       d="m 612.36,348.36 v 0"
       id="path569" /><path
       style="fill:none;stroke:#ccd9ff;stroke-width:10;stroke-linecap:round;stroke-linejoin:round;stroke-dasharray:none;stroke-opacity:0.33000001;paint-order:stroke fill markers"
       d="m 588.36,372.36 v 0"
       id="path570" /><path
       style="fill:none;stroke:#ccd9ff;stroke-width:10;stroke-linecap:round;stroke-linejoin:round;stroke-dasharray:none;stroke-opacity:0.33000001;paint-order:stroke fill markers"
       d="m 396.36,60.36 v 0"
       id="path573" /><path
       style="fill:none;stroke:#ccd9ff;stroke-width:10;stroke-linecap:round;stroke-linejoin:round;stroke-dasharray:none;stroke-opacity:0.33000001;paint-order:stroke fill markers"
       d="m 444.36,204.36 v 24"
       id="path574" /><path
       style="fill:none;stroke:#ccd9ff;stroke-width:10;stroke-linecap:round;stroke-linejoin:round;stroke-dasharray:none;stroke-opacity:0.33000001;paint-order:stroke fill markers"
       d="M 468.36,252.36 Z"
       id="path575" /><path
       style="fill:none;stroke:#ccd9ff;stroke-width:10;stroke-linecap:round;stroke-linejoin:round;stroke-dasharray:none;stroke-opacity:0.33000001;paint-order:stroke fill markers"
       d="m 468.36,252.36 v 0"
       id="path576" /><path
       style="fill:none;stroke:#ccd9ff;stroke-width:10;stroke-linecap:round;stroke-linejoin:round;stroke-dasharray:none;stroke-opacity:0.33000001;paint-order:stroke fill markers"
       d="m 276.36,828.36 h -24"
       id="path582" /><path
       style="fill:none;stroke:#ccd9ff;stroke-width:10;stroke-linecap:round;stroke-linejoin:round;stroke-dasharray:none;stroke-opacity:0.33000001;paint-order:stroke fill markers"
       d="m 372.36,684.36 v 0"
       id="path583" /><path
       style="fill:none;stroke:#ccd9ff;stroke-width:10;stroke-linecap:round;stroke-linejoin:round;stroke-dasharray:none;stroke-opacity:0.33000001;paint-order:stroke fill markers"
       d="m 420.36,684.36 v 0"
       id="path584" /><path
       style="fill:none;stroke:#ccd9ff;stroke-width:10;stroke-linecap:round;stroke-linejoin:round;stroke-dasharray:none;stroke-opacity:0.33000001;paint-order:stroke fill markers"
       d="m 516.36,828.36 v -24"
       id="path585" /><path
       style="fill:none;stroke:#ccd9ff;stroke-width:10;stroke-linecap:round;stroke-linejoin:round;stroke-dasharray:none;stroke-opacity:0.33000001;paint-order:stroke fill markers"
       d="m 468.36,828.36 v 0"
       id="path586"
       sodipodi:nodetypes="cc" /><path
       style="fill:none;stroke:#ccd9ff;stroke-width:10;stroke-linecap:round;stroke-linejoin:round;stroke-dasharray:none;stroke-opacity:0.33000001;paint-order:stroke fill markers"
       d="m 588.36,780.36 v -72"
       id="path589"
       sodipodi:nodetypes="cc" /><path
       style="fill:none;stroke:#ccd9ff;stroke-width:10;stroke-linecap:round;stroke-linejoin:round;stroke-dasharray:none;stroke-opacity:0.33000001;paint-order:stroke fill markers"
       d="m 516.36,636.36 v 24"
       id="path591" /><path
       style="fill:none;stroke:#ccd9ff;stroke-width:10;stroke-linecap:round;stroke-linejoin:round;stroke-dasharray:none;stroke-opacity:0.33000001;paint-order:stroke fill markers"
       d="m 468.36,636.36 v 0"
       id="path592" /><path
       style="fill:none;stroke:#ccd9ff;stroke-width:10;stroke-linecap:round;stroke-linejoin:round;stroke-dasharray:none;stroke-opacity:0.33000001;paint-order:stroke fill markers"
       d="m 468.36,588.36 v -24"
       id="path593" /><path
       style="fill:none;stroke:#ccd9ff;stroke-width:10;stroke-linecap:round;stroke-linejoin:round;stroke-dasharray:none;stroke-opacity:0.33000001;paint-order:stroke fill markers"
       d="m 516.36,588.36 v 0"
       id="path594" /><path
       style="fill:none;stroke:#ccd9ff;stroke-width:10;stroke-linecap:round;stroke-linejoin:round;stroke-dasharray:none;stroke-opacity:0.33000001;paint-order:stroke fill markers"
       d="m 588.36,828.36 h 72"
       id="path595"
       sodipodi:nodetypes="cc" /><path
       style="fill:none;stroke:#ccd9ff;stroke-width:10;stroke-linecap:round;stroke-linejoin:round;stroke-dasharray:none;stroke-opacity:0.33000001;paint-order:stroke fill markers"
       d="m 684.36,804.36 v -24"
       id="path597" /><path
       style="fill:none;stroke:#ccd9ff;stroke-width:10;stroke-linecap:round;stroke-linejoin:round;stroke-dasharray:none;stroke-opacity:0.33000001;paint-order:stroke fill markers"
       d="m 660.36,780.36 v -48"
       id="path598" /><path
       style="fill:none;stroke:#ccd9ff;stroke-width:10;stroke-linecap:round;stroke-linejoin:round;stroke-dasharray:none;stroke-opacity:0.33000001;paint-order:stroke fill markers"
       d="m 708.36,828.36 v 0"
       id="path599" /><path
       style="fill:none;stroke:#ccd9ff;stroke-width:10;stroke-linecap:round;stroke-linejoin:round;stroke-dasharray:none;stroke-opacity:0.33000001;paint-order:stroke fill markers"
       d="m 732.36,804.36 v 0"
       id="path600" /><path
       style="fill:none;stroke:#ccd9ff;stroke-width:10;stroke-linecap:round;stroke-linejoin:round;stroke-dasharray:none;stroke-opacity:0.33000001;paint-order:stroke fill markers"
       d="m 756.36,828.36 h 48"
       id="path601" /><path
       style="fill:none;stroke:#ccd9ff;stroke-width:10;stroke-linecap:round;stroke-linejoin:round;stroke-dasharray:none;stroke-opacity:0.33000001;paint-order:stroke fill markers"
       d="m 612.36,684.36 h 24"
       id="path602" /><path
       style="fill:none;stroke:#ccd9ff;stroke-width:10;stroke-linecap:round;stroke-linejoin:round;stroke-dasharray:none;stroke-opacity:0.33000001;paint-order:stroke fill markers"
       d="m 660.36,540.36 v 48"
       id="path606" /><path
       style="fill:none;stroke:#ccd9ff;stroke-width:10;stroke-linecap:round;stroke-linejoin:round;stroke-dasharray:none;stroke-opacity:0.33000001;paint-order:stroke fill markers"
       d="m 684.36,684.36 v 0"
       id="path607" /><path
       style="fill:none;stroke:#ccd9ff;stroke-width:10;stroke-linecap:round;stroke-linejoin:round;stroke-dasharray:none;stroke-opacity:0.33000001;paint-order:stroke fill markers"
       d="m 756.36,612.36 h -72"
       id="path609" /><path
       style="fill:none;stroke:#ccd9ff;stroke-width:10;stroke-linecap:round;stroke-linejoin:round;stroke-dasharray:none;stroke-opacity:0.33000001;paint-order:stroke fill markers"
       d="m 708.36,588.36 v 24"
       id="path610" /><path
       style="fill:none;stroke:#ccd9ff;stroke-width:10;stroke-linecap:round;stroke-linejoin:round;stroke-dasharray:none;stroke-opacity:0.33000001;paint-order:stroke fill markers"
       d="m 804.36,588.36 v 0"
       id="path611" /><path
       style="fill:none;stroke:#ccd9ff;stroke-width:10;stroke-linecap:round;stroke-linejoin:round;stroke-dasharray:none;stroke-opacity:0.33000001;paint-order:stroke fill markers"
       d="m 828.36,564.36 v 0"
       id="path612" /><path
       style="fill:none;stroke:#ccd9ff;stroke-width:10;stroke-linecap:round;stroke-linejoin:round;stroke-dasharray:none;stroke-opacity:0.33000001;paint-order:stroke fill markers"
       d="m 780.36,564.36 v 0"
       id="path613" /><path
       style="fill:none;stroke:#ccd9ff;stroke-width:10;stroke-linecap:round;stroke-linejoin:round;stroke-dasharray:none;stroke-opacity:0.33000001;paint-order:stroke fill markers"
       d="m 828.36,444.36 v 48"
       id="path614" /><path
       style="fill:none;stroke:#ccd9ff;stroke-width:10;stroke-linecap:round;stroke-linejoin:round;stroke-dasharray:none;stroke-opacity:0.33000001;paint-order:stroke fill markers"
       d="m 828.36,276.36 v 0"
       id="path615" /><path
       style="fill:none;stroke:#ccd9ff;stroke-width:10;stroke-linecap:round;stroke-linejoin:round;stroke-dasharray:none;stroke-opacity:0.33000001;paint-order:stroke fill markers"
       d="m 636.36,492.36 v 0"
       id="path616"
       sodipodi:nodetypes="cc" /><path
       style="fill:none;stroke:#ccd9ff;stroke-width:10;stroke-linecap:round;stroke-linejoin:round;stroke-dasharray:none;stroke-opacity:0.33000001;paint-order:stroke fill markers"
       d="m 756.36,516.36 v 24"
       id="path619" /><path
       style="fill:none;stroke:#ccd9ff;stroke-width:10;stroke-linecap:round;stroke-linejoin:round;stroke-dasharray:none;stroke-opacity:0.33000001;paint-order:stroke fill markers"
       d="m 780.36,516.36 v -120"
       id="path620" /><path
       style="fill:none;stroke:#ccd9ff;stroke-width:10;stroke-linecap:round;stroke-linejoin:round;stroke-dasharray:none;stroke-opacity:0.33000001;paint-order:stroke fill markers"
       d="m 756.36,468.36 h 24"
       id="path621" /><path
       style="fill:none;stroke:#ccd9ff;stroke-width:10;stroke-linecap:round;stroke-linejoin:round;stroke-dasharray:none;stroke-opacity:0.33000001;paint-order:stroke fill markers"
       d="m 708.36,396.36 h -48"
       id="path622" /><path
       style="fill:none;stroke:#ccd9ff;stroke-width:10;stroke-linecap:round;stroke-linejoin:round;stroke-dasharray:none;stroke-opacity:0.33000001;paint-order:stroke fill markers"
       d="m 564.36,420.36 h 120"
       id="path624" /><path
       style="fill:none;stroke:#ccd9ff;stroke-width:10;stroke-linecap:round;stroke-linejoin:round;stroke-dasharray:none;stroke-opacity:0.33000001;paint-order:stroke fill markers"
       d="m 612.36,444.36 v 24"
       id="path625" /><path
       style="fill:none;stroke:#ccd9ff;stroke-width:10;stroke-linecap:round;stroke-linejoin:round;stroke-dasharray:none;stroke-opacity:0.33000001;paint-order:stroke fill markers"
       d="m 684.36,252.36 h 96"
       id="path628" /><path
       style="fill:none;stroke:#ccd9ff;stroke-width:10;stroke-linecap:round;stroke-linejoin:round;stroke-dasharray:none;stroke-opacity:0.33000001;paint-order:stroke fill markers"
       d="m 732.36,372.36 h 24"
       id="path631"
       sodipodi:nodetypes="cc" /><path
       style="fill:none;stroke:#ccd9ff;stroke-width:10;stroke-linecap:round;stroke-linejoin:round;stroke-dasharray:none;stroke-opacity:0.33000001;paint-order:stroke fill markers"
       d="m 828.36,372.36 h -24"
       id="path632" /><path
       style="fill:none;stroke:#ccd9ff;stroke-width:10;stroke-linecap:round;stroke-linejoin:round;stroke-dasharray:none;stroke-opacity:0.33000001;paint-order:stroke fill markers"
       d="m 660.36,300.36 v 24"
       id="path633" /><path
       style="fill:none;stroke:#ccd9ff;stroke-width:10;stroke-linecap:round;stroke-linejoin:round;stroke-dasharray:none;stroke-opacity:0.33000001;paint-order:stroke fill markers"
       d="m 828.36,708.36 v 24"
       id="path634" /><path
       style="fill:none;stroke:#ccd9ff;stroke-width:10;stroke-linecap:round;stroke-linejoin:round;stroke-dasharray:none;stroke-opacity:0.33000001;paint-order:stroke fill markers"
       d="m 804.36,756.36 v 0"
       id="path635" /><path
       style="fill:none;stroke:#ccd9ff;stroke-width:10;stroke-linecap:round;stroke-linejoin:round;stroke-dasharray:none;stroke-opacity:0.33000001;paint-order:stroke fill markers"
       d="m 780.36,780.36 v 0"
       id="path636" /><path
       style="fill:none;stroke:#ccd9ff;stroke-width:10;stroke-linecap:round;stroke-linejoin:round;stroke-dasharray:none;stroke-opacity:0.33000001;paint-order:stroke fill markers"
       d="m 204,180.36 v -96 C 204,73.045019 191.67498,60 180.36,60 h -96 C 72.876586,60 60,72.876586 60,84.36 v 96 C 60,191.67498 73.045019,204 84.36,204 h 96"
       id="path637"
       sodipodi:nodetypes="cssssssc" /><path
       style="fill:none;stroke:#ccd9ff;stroke-width:10;stroke-linecap:round;stroke-linejoin:round;stroke-dasharray:none;stroke-opacity:0.33000001;paint-order:stroke fill markers"
       d="m 803.64,204 h -96 C 696.496,204 684,191.504 684,180.36 v -96 C 684,73.045019 696.32502,60 707.64,60 h 96 C 815.12341,60 828,72.876586 828,84.36 v 96"
       id="path640"
       sodipodi:nodetypes="cssssssc" /><path
       style="fill:none;stroke:#ccd9ff;stroke-width:10;stroke-linecap:round;stroke-linejoin:round;stroke-dasharray:none;stroke-opacity:0.33000001;paint-order:stroke fill markers"
       d="m 180.36,828 h -96 C 72.876586,828 60,815.12341 60,803.64 v -96 C 60,696.32502 73.045019,684 84.36,684 h 96 c 11.144,0 23.64,12.496 23.64,23.64 v 96"
       id="path641"
       sodipodi:nodetypes="cssssssc" /><path
       id="path1-7"
       style="fill:none;stroke:#ccd9ff;stroke-width:10;stroke-linecap:round;stroke-linejoin:round;stroke-dasharray:none;stroke-opacity:0.33000001;paint-order:stroke fill markers"
       d="m 396.36,276.36 h -36 c -6.62742,0 -12,5.37258 -12,12 v 24.00001 c 0,6.62741 5.37259,11.99999 12,11.99999 6.62741,0 12,-5.37258 12,-11.99999 v -72.00002 c 0,-6.62741 -5.37259,-11.99999 -12,-11.99999 -6.62741,0 -12,-5.37258 -12,-11.99999 V 156.36"
       sodipodi:nodetypes="csssssszsc" /><path
       id="path643-7-5-0-4"
       style="fill:none;stroke:#ccd9ff;stroke-width:10;stroke-linecap:round;stroke-linejoin:round;stroke-dasharray:none;stroke-opacity:0.33000001;paint-order:stroke fill markers"
       d="m 492.36,60.36 v 84.00001 c 0,6.62741 -5.37259,11.99999 -12,11.99999 h -72 c -6.62741,0 -12,5.37258 -12,11.99999 V 204.36"
       sodipodi:nodetypes="cssssc" /><path
       id="path1"
       style="fill:none;stroke:#ccd9ff;stroke-width:10;stroke-linecap:round;stroke-linejoin:round;stroke-dasharray:none;stroke-opacity:0.33000001;paint-order:stroke fill markers"
       d="m 540.36,684.36 v -12 c 0,-6.62741 -5.37259,-11.99999 -12,-11.99999 h -24 c -6.62741,0 -12,5.37258 -12,11.99999 0,6.62742 -5.37259,12 -12,12 h -12"
       sodipodi:nodetypes="cssszsc" /><path
       id="path1-714-1"
       style="fill:none;stroke:#ccd9ff;stroke-width:10;stroke-linecap:round;stroke-linejoin:round;stroke-dasharray:none;stroke-opacity:0.33000001;paint-order:stroke fill markers"
       d="m 612.36,636.36 v -36.00001 c 0,-6.62741 -5.37259,-11.99999 -12,-11.99999 h -24 c -6.62741,0 -12,-5.37258 -12,-11.99999 v -72 c 0,-6.62741 5.37259,-11.99999 12,-11.99999 6.62741,0 12,5.37258 12,11.99999 0,6.62742 5.37259,12 12,12 6.62741,0 12,5.37258 12,11.99999 0,6.62742 5.37259,12 12,12 6.62741,0 12,5.37258 12,11.99999 0,6.62742 5.37259,12 12,12 h 12"
       sodipodi:nodetypes="cssssszzzzzzcc" /><path
       id="path1-71"
       style="fill:none;stroke:#ccd9ff;stroke-width:10;stroke-linecap:round;stroke-linejoin:round;stroke-dasharray:none;stroke-opacity:0.33000001;paint-order:stroke fill markers"
       d="m 732.36,516.36 v -12 c 0,-6.62741 -5.37259,-12 -12,-12 -6.62741,0 -12,-5.37259 -12,-12 v -24 c 0,-6.62741 5.37259,-12 12,-12 6.62741,0 12,-5.37259 12,-12 v -12"
       sodipodi:nodetypes="cszsszsc" /><path
       id="path1-3"
       style="fill:none;stroke:#ccd9ff;stroke-width:10;stroke-linecap:round;stroke-linejoin:round;stroke-dasharray:none;stroke-opacity:0.33000001;paint-order:stroke fill markers"
       d="m 396.36,780.36 v -36 c 0,-6.62741 -5.37259,-11.99999 -12,-11.99999 h -96 c -6.62741,0 -12,5.37258 -12,11.99999 v 36"
       sodipodi:nodetypes="cssssc" /><path
       id="path1-0"
       style="fill:none;stroke:#ccd9ff;stroke-width:10;stroke-linecap:round;stroke-linejoin:round;stroke-dasharray:none;stroke-opacity:0.33000001;paint-order:stroke fill markers"
       d="m 420.36,804.36 v -12 c 0,-6.62741 -5.37259,-11.99999 -12,-11.99999 h -24 c -6.62741,0 -12,5.37258 -12,11.99999 0,6.62742 -5.37259,12 -12,12 -6.62741,10e-6 -12,5.37259 -12,12 0,6.62742 -5.37259,12 -12,12 h -12"
       sodipodi:nodetypes="cssszzzsc" /><path
       id="path1-0-6"
       style="fill:none;stroke:#ccd9ff;stroke-width:10;stroke-linecap:round;stroke-linejoin:round;stroke-dasharray:none;stroke-opacity:0.33000001;paint-order:stroke fill markers"
       d="m 708.36,780.36001 h -60 c -6.62741,0 -12,5.37258 -12,11.99999 0,6.62742 -5.37259,12 -12,12 -6.62741,10e-6 -12,5.37259 -12,12 v 12"
       sodipodi:nodetypes="cszzsc" /><path
       id="path1-0-1-2"
       style="fill:none;stroke:#ccd9ff;stroke-width:10;stroke-linecap:round;stroke-linejoin:round;stroke-dasharray:none;stroke-opacity:0.33000001;paint-order:stroke fill markers"
       d="m 492.36,780.36 v -12 c 0,-6.62741 -5.37259,-11.99999 -12,-11.99999 l -144,-2e-5 c -6.62741,0 -12,-5.37258 -12,-11.99999 v -24.00001 c 0,-6.62741 -5.37259,-11.99999 -12,-11.99999 h -12"
       sodipodi:nodetypes="cssssssc" /><path
       id="path1-0-8"
       style="fill:none;stroke:#ccd9ff;stroke-width:10;stroke-linecap:round;stroke-linejoin:round;stroke-dasharray:none;stroke-opacity:0.33000001;paint-order:stroke fill markers"
       d="m 444.36,708.36 v 11.99999 c 0,6.62742 5.37259,12 12,12 6.62741,10e-6 12,5.37259 12,12 v 12"
       sodipodi:nodetypes="cszsc" /><path
       id="path1-0-8-3"
       style="fill:none;stroke:#ccd9ff;stroke-width:10;stroke-linecap:round;stroke-linejoin:round;stroke-dasharray:none;stroke-opacity:0.33000001;paint-order:stroke fill markers"
       d="m 804.36,636.36 v 11.99999 c 0,6.62742 -5.37259,12 -12,12 -6.62741,10e-6 -12,5.37259 -12,12 V 696.36 c 0,6.62742 -5.37259,12 -12,12 -6.62741,10e-6 -12,5.37258 -12,12 0,6.62742 -5.37259,12 -12,12 h -96 c -6.62741,0 -12,-5.37259 -12,-12 v -96 c 0,-6.62741 -5.37259,-11.99999 -12,-11.99999 h -84"
       sodipodi:nodetypes="cszsszzsssssc" /><path
       id="path643-7-5-0"
       style="fill:none;stroke:#ccd9ff;stroke-width:10;stroke-linecap:round;stroke-linejoin:round;stroke-dasharray:none;stroke-opacity:0.33000001;paint-order:stroke fill markers"
       d="m 324.36,660.36 v -12 c 0,-6.62741 -5.37259,-11.99999 -12,-11.99999 h -24 c -6.62741,0 -12,5.37258 -12,11.99999 v 12"
       sodipodi:nodetypes="cssssc" /><path
       id="path643-7-5-0-9"
       style="fill:none;stroke:#ccd9ff;stroke-width:10;stroke-linecap:round;stroke-linejoin:round;stroke-dasharray:none;stroke-opacity:0.33000001;paint-order:stroke fill markers"
       d="M 804.36,324.35999 V 384.36 c 0,6.62741 -5.37259,11.99999 -12,11.99999 h -24 c -6.62741,0 -12,-5.37258 -12,-11.99999 v -60.00001"
       sodipodi:nodetypes="cssssc" /><path
       id="path643-7-5-2"
       style="fill:none;stroke:#ccd9ff;stroke-width:10;stroke-linecap:round;stroke-linejoin:round;stroke-dasharray:none;stroke-opacity:0.33000001;paint-order:stroke fill markers"
       d="m 252.36,708.36 v 60.00001 c 0,6.62741 5.37259,11.99999 12,11.99999 h 36"
       sodipodi:nodetypes="cssc" /><path
       id="path643-7-7-4-8"
       style="fill:none;stroke:#ccd9ff;stroke-width:10;stroke-linecap:round;stroke-linejoin:round;stroke-dasharray:none;stroke-opacity:0.33000001;paint-order:stroke fill markers"
       d="m 108.36,540.36 h -12 c -6.62741,0 -11.99999,5.37258 -12,11.99999 -1e-5,6.62741 -5.372585,11.99999 -12,11.99999 -6.627415,0 -12,5.37258 -12,12 V 636.36"
       sodipodi:nodetypes="cszzsc" /><path
       id="path643-7-5-6"
       style="fill:none;stroke:#ccd9ff;stroke-width:10;stroke-linecap:round;stroke-linejoin:round;stroke-dasharray:none;stroke-opacity:0.33000001;paint-order:stroke fill markers"
       d="m 228.36,444.36 h -36 c -6.62741,0 -12,5.37258 -12,11.99999 V 480.36 c 0,6.62741 5.37259,11.99999 12,11.99999 h 24 c 6.62741,0 12,5.37258 12,11.99999 V 588.36"
       sodipodi:nodetypes="cssssssc" /><path
       id="path643-7-5-6-0"
       style="fill:none;stroke:#ccd9ff;stroke-width:10;stroke-linecap:round;stroke-linejoin:round;stroke-dasharray:none;stroke-opacity:0.33000001;paint-order:stroke fill markers"
       d="m 204.36,540.36 h 36 c 6.62741,0 12,5.37258 12,11.99999 V 576.36 c 0,6.62741 -5.37259,11.99999 -12,11.99999 h -132"
       sodipodi:nodetypes="cssssc" /><path
       id="path643-7-5-1"
       style="fill:none;stroke:#ccd9ff;stroke-width:10;stroke-linecap:round;stroke-linejoin:round;stroke-dasharray:none;stroke-opacity:0.33000001;paint-order:stroke fill markers"
       d="m 324.36,564.36 v -36.00001 c 0,-6.62741 -5.37259,-11.99999 -12,-11.99999 h -12"
       sodipodi:nodetypes="cssc" /><path
       id="path643-7-5-1-0"
       style="fill:none;stroke:#ccd9ff;stroke-width:10;stroke-linecap:round;stroke-linejoin:round;stroke-dasharray:none;stroke-opacity:0.33000001;paint-order:stroke fill markers"
       d="m 564.36,804.36 v -60.00001 c 0,-6.62741 -5.37259,-11.99999 -12,-11.99999 h -36"
       sodipodi:nodetypes="cssc" /><path
       id="path643-7-5-1-7"
       style="fill:none;stroke:#ccd9ff;stroke-width:10;stroke-linecap:round;stroke-linejoin:round;stroke-dasharray:none;stroke-opacity:0.33000001;paint-order:stroke fill markers"
       d="m 348.36,612.36 v -36.00001 c 0,-6.62741 -5.37259,-11.99999 -12,-11.99999 h -36"
       sodipodi:nodetypes="cssc" /><path
       id="path2"
       style="fill:none;stroke:#ccd9ff;stroke-width:10;stroke-linecap:round;stroke-linejoin:round;stroke-dasharray:none;stroke-opacity:0.33000001;paint-order:stroke fill markers"
       d="m 540.36,732.36 v 12.00001 c 0,6.62741 5.37259,11.99999 12,11.99999 h 36"
       sodipodi:nodetypes="cssc" /><path
       id="path3-6-8-1"
       style="fill:none;stroke:#ccd9ff;stroke-width:10;stroke-linecap:round;stroke-linejoin:round;stroke-dasharray:none;stroke-opacity:0.33000001;paint-order:stroke fill markers"
       d="m 540.36,564.36 h 36 c 6.62741,0 12,5.37259 12,12 v 48 c 0,6.62741 5.37259,12 12,12 h 120 c 6.62741,0 12,5.37259 12,12 v 108"
       sodipodi:nodetypes="cssssssc" /><path
       id="path643-7-5-00"
       style="fill:none;stroke:#ccd9ff;stroke-width:10;stroke-linecap:round;stroke-linejoin:round;stroke-dasharray:none;stroke-opacity:0.33000001;paint-order:stroke fill markers"
       d="m 492.36,300.36 v -12 c 0,-6.62741 5.37259,-11.99999 12,-11.99999 h 36"
       sodipodi:nodetypes="cssc" /><path
       id="path643-7-5-00-16"
       style="fill:none;stroke:#ccd9ff;stroke-width:10;stroke-linecap:round;stroke-linejoin:round;stroke-dasharray:none;stroke-opacity:0.33000001;paint-order:stroke fill markers"
       d="m 708.36,252.36 v 12 c 0,6.62741 -5.37259,11.99999 -12,12 -6.62741,10e-6 -12,5.37259 -12,12 0,6.62741 -5.37259,11.99999 -12,11.99999 h -36"
       sodipodi:nodetypes="cszzsc" /><path
       id="path643-7-5-00-16-8"
       style="fill:none;stroke:#ccd9ff;stroke-width:10;stroke-linecap:round;stroke-linejoin:round;stroke-dasharray:none;stroke-opacity:0.33000001;paint-order:stroke fill markers"
       d="m 756.36,252.36 v 12 c 0,6.62741 5.37259,11.99999 12,12 6.62741,10e-6 12,5.37259 12,12 v 36"
       sodipodi:nodetypes="cszsc" /><path
       id="path643-7-5-00-5"
       style="fill:none;stroke:#ccd9ff;stroke-width:10;stroke-linecap:round;stroke-linejoin:round;stroke-dasharray:none;stroke-opacity:0.33000001;paint-order:stroke fill markers"
       d="m 756.36,588.36 v 36.00001 c 0,6.62741 5.37259,11.99999 12,11.99999 h 60"
       sodipodi:nodetypes="cssc" /><path
       id="path643-7-5-00-5-7"
       style="fill:none;stroke:#ccd9ff;stroke-width:10;stroke-linecap:round;stroke-linejoin:round;stroke-dasharray:none;stroke-opacity:0.33000001;paint-order:stroke fill markers"
       d="m 684.36,468.36 v 36.00001 c 0,6.62741 5.37259,11.99999 12,11.99999 h 96 c 6.62741,0 12,5.37258 12,11.99999 V 540.36"
       sodipodi:nodetypes="cssssc" /><path
       id="path643-7-5-00-85"
       style="fill:none;stroke:#ccd9ff;stroke-width:10;stroke-linecap:round;stroke-linejoin:round;stroke-dasharray:none;stroke-opacity:0.33000001;paint-order:stroke fill markers"
       d="m 732.36,300.36 v 12 c 0,6.62741 5.37259,11.99999 12,11.99999 h 84"
       sodipodi:nodetypes="cssc" /><path
       id="path643-7-5-00-85-7"
       style="fill:none;stroke:#ccd9ff;stroke-width:10;stroke-linecap:round;stroke-linejoin:round;stroke-dasharray:none;stroke-opacity:0.33000001;paint-order:stroke fill markers"
       d="m 588.36,420.36 v 12 c 0,6.62741 5.37259,11.99999 12,11.99999 h 48 c 6.62741,0 12,-5.37258 12,-11.99999 v -60"
       sodipodi:nodetypes="cssssc" /><path
       id="path643-7-5-00-8"
       style="fill:none;stroke:#ccd9ff;stroke-width:10;stroke-linecap:round;stroke-linejoin:round;stroke-dasharray:none;stroke-opacity:0.33000001;paint-order:stroke fill markers"
       d="m 636.36,204.36 v 36.00001 c 0,6.62741 -5.37259,11.99999 -12,11.99999 h -36"
       sodipodi:nodetypes="cssc" /><path
       id="path643-7-5-61"
       style="fill:none;stroke:#ccd9ff;stroke-width:10;stroke-linecap:round;stroke-linejoin:round;stroke-dasharray:none;stroke-opacity:0.33000001;paint-order:stroke fill markers"
       d="m 468.36,60.5 h 60 c 6.62741,0 12,5.37258 12,11.929995 0,6.557415 5.37259,11.929995 12,11.93 6.62741,5e-6 12,5.372585 12,11.999995 v 24 c 0,6.62741 5.37259,11.99999 12,11.99999 h 36"
       sodipodi:nodetypes="cszzsssc" /></g></svg>
