<?xml version="1.0" encoding="UTF-8" standalone="no"?>
<!-- Created with Inkscape (http://www.inkscape.org/) -->

<svg
   width="157.38144mm"
   height="123.5935mm"
   viewBox="0 0 157.38144 123.5935"
   version="1.1"
   id="svg1"
   xml:space="preserve"
   inkscape:version="1.3 (0e150ed6c4, 2023-07-21)"
   sodipodi:docname="sass.svg"
   xmlns:inkscape="http://www.inkscape.org/namespaces/inkscape"
   xmlns:sodipodi="http://sodipodi.sourceforge.net/DTD/sodipodi-0.dtd"
   xmlns="http://www.w3.org/2000/svg"
   xmlns:svg="http://www.w3.org/2000/svg"><sodipodi:namedview
     id="namedview1"
     pagecolor="#505050"
     bordercolor="#eeeeee"
     borderopacity="1"
     inkscape:showpageshadow="0"
     inkscape:pageopacity="0"
     inkscape:pagecheckerboard="0"
     inkscape:deskcolor="#505050"
     inkscape:document-units="mm"
     inkscape:zoom="1.0847363"
     inkscape:cx="415.76924"
     inkscape:cy="243.83806"
     inkscape:window-width="1920"
     inkscape:window-height="1057"
     inkscape:window-x="-8"
     inkscape:window-y="-8"
     inkscape:window-maximized="1"
     inkscape:current-layer="layer1" /><defs
     id="defs1"><filter
       inkscape:collect="always"
       style="color-interpolation-filters:sRGB"
       id="filter3"
       x="-0.044091299"
       y="-0.059723073"
       width="1.0881891"
       height="1.1192511"><feGaussianBlur
         inkscape:collect="always"
         stdDeviation="1.2510126"
         id="feGaussianBlur3" /></filter><filter
       inkscape:collect="always"
       style="color-interpolation-filters:sRGB"
       id="filter4"
       x="-0.11442105"
       y="-0.15521015"
       width="1.2288486"
       height="1.3102253"><feGaussianBlur
         inkscape:collect="always"
         stdDeviation="5.0040505"
         id="feGaussianBlur4" /></filter></defs><g
     inkscape:label="Layer 1"
     inkscape:groupmode="layer"
     id="layer1"
     transform="translate(-38.147554,-43.020244)"><path
       style="mix-blend-mode:normal;fill:none;stroke:#db579a;stroke-width:5.29167;stroke-linecap:round;stroke-linejoin:round;stroke-miterlimit:155;stroke-dasharray:none;stroke-opacity:1;filter:url(#filter4)"
       d="M 79.682927,94.343205 C 99.884902,106.32964 138.2173,83.768206 128.83798,67.437282 119.22676,50.702595 94.55177,58.83148 79.165505,66.91986 67.355046,73.128481 51.079691,82.980548 52.949476,96.41289 c 2.681899,19.26648 25.789552,19.34287 28.113242,34.14983 1.652998,10.5332 -17.076526,27.10717 -23.628921,19.48954 -12.920009,-15.02043 35.662795,-34.57336 36.047039,-33.80487 m 13.108014,-5.17422 c -1.6498,-8.11538 -11.500328,-0.61733 -15.608886,10.43467 -2.32474,6.25354 -1.995371,18.94846 3.708189,17.67857 3.941665,-0.8776 14.660277,-22.93903 14.660277,-22.93903 -1.48274,9.51346 -8.95742,22.26132 -1.72474,21.55924 4.50135,-0.43696 17.93729,-34.32236 17.93729,-35.44338 -2.49139,11.97143 11.378,20.19794 6.89895,28.7169 -2.20625,4.1962 -11.18346,8.19459 -11.98693,4.74303 -0.33242,-1.42802 6.0737,-8.15261 12.53137,-16.36483 5.09922,-6.48468 11.61497,-19.869484 11.61497,-21.234473 -2.26466,16.289403 9.76432,17.774633 6.98519,25.784843 -1.59055,4.5844 -8.95025,10.13114 -10.60714,8.27874 -3.73174,-4.17207 7.44774,-19.92317 25.09494,-17.7648 11.90283,1.45579 19.26362,11.30118 11.72823,18.4547"
       id="path4"
       sodipodi:nodetypes="csssssccsscscssscsssc" /><path
       style="mix-blend-mode:normal;fill:none;stroke:#db579a;stroke-width:5.29167;stroke-linecap:round;stroke-linejoin:round;stroke-miterlimit:155;stroke-dasharray:none;stroke-opacity:1;filter:url(#filter3)"
       d="M 79.682927,94.343205 C 99.884902,106.32964 138.2173,83.768206 128.83798,67.437282 119.22676,50.702595 94.55177,58.83148 79.165505,66.91986 67.355046,73.128481 51.079691,82.980548 52.949476,96.41289 c 2.681899,19.26648 25.789552,19.34287 28.113242,34.14983 1.652998,10.5332 -17.076526,27.10717 -23.628921,19.48954 -12.920009,-15.02043 35.662795,-34.57336 36.047039,-33.80487 m 13.108014,-5.17422 c -1.6498,-8.11538 -11.500328,-0.61733 -15.608886,10.43467 -2.32474,6.25354 -1.995371,18.94846 3.708189,17.67857 3.941665,-0.8776 14.660277,-22.93903 14.660277,-22.93903 -1.48274,9.51346 -8.95742,22.26132 -1.72474,21.55924 4.50135,-0.43696 17.93729,-34.32236 17.93729,-35.44338 -2.49139,11.97143 11.378,20.19794 6.89895,28.7169 -2.20625,4.1962 -11.18346,8.19459 -11.98693,4.74303 -0.33242,-1.42802 6.0737,-8.15261 12.53137,-16.36483 5.09922,-6.48468 11.61497,-19.869484 11.61497,-21.234473 -2.26466,16.289403 9.76432,17.774633 6.98519,25.784843 -1.59055,4.5844 -8.95025,10.13114 -10.60714,8.27874 -3.73174,-4.17207 7.44774,-19.92317 25.09494,-17.7648 11.90283,1.45579 19.26362,11.30118 11.72823,18.4547"
       id="path3"
       sodipodi:nodetypes="csssssccsscscssscsssc" /><path
       style="fill:none;stroke:#f9b8d9;stroke-width:2.64583;stroke-linecap:round;stroke-linejoin:round;stroke-miterlimit:155;stroke-dasharray:none;stroke-opacity:1"
       d="M 79.682927,94.343205 C 99.884902,106.32964 138.2173,83.768206 128.83798,67.437282 119.22676,50.702595 94.55177,58.83148 79.165505,66.91986 67.355046,73.128481 51.079691,82.980548 52.949476,96.41289 c 2.681899,19.26648 25.789552,19.34287 28.113242,34.14983 1.652998,10.5332 -17.076526,27.10717 -23.628921,19.48954 -12.920009,-15.02043 35.662795,-34.57336 36.047039,-33.80487 m 13.108014,-5.17422 c -1.6498,-8.11538 -11.500328,-0.61733 -15.608886,10.43467 -2.32474,6.25354 -1.995371,18.94846 3.708189,17.67857 3.941665,-0.8776 14.660277,-22.93903 14.660277,-22.93903 -1.48274,9.51346 -8.95742,22.26132 -1.72474,21.55924 4.50135,-0.43696 17.93729,-34.32236 17.93729,-35.44338 -2.49139,11.97143 11.378,20.19794 6.89895,28.7169 -2.20625,4.1962 -11.18346,8.19459 -11.98693,4.74303 -0.33242,-1.42802 6.0737,-8.15261 12.53137,-16.36483 5.09922,-6.48468 11.61497,-19.869484 11.61497,-21.234473 -2.26466,16.289403 9.76432,17.774633 6.98519,25.784843 -1.59055,4.5844 -8.95025,10.13114 -10.60714,8.27874 -3.73174,-4.17207 7.44774,-19.92317 25.09494,-17.7648 11.90283,1.45579 19.26362,11.30118 11.72823,18.4547"
       id="path2"
       sodipodi:nodetypes="csssssccsscscssscsssc" /></g></svg>
