<?xml version="1.0" encoding="UTF-8" standalone="no"?>
<!-- Created with Inkscape (http://www.inkscape.org/) -->

<svg
   width="300"
   height="300"
   viewBox="0 0 79.375 79.375"
   version="1.1"
   id="svg1"
   xml:space="preserve"
   inkscape:version="1.3 (0e150ed6c4, 2023-07-21)"
   sodipodi:docname="WP-off.svg"
   xmlns:inkscape="http://www.inkscape.org/namespaces/inkscape"
   xmlns:sodipodi="http://sodipodi.sourceforge.net/DTD/sodipodi-0.dtd"
   xmlns="http://www.w3.org/2000/svg"
   xmlns:svg="http://www.w3.org/2000/svg"><sodipodi:namedview
     id="namedview1"
     pagecolor="#505050"
     bordercolor="#eeeeee"
     borderopacity="1"
     inkscape:showpageshadow="0"
     inkscape:pageopacity="0"
     inkscape:pagecheckerboard="0"
     inkscape:deskcolor="#505050"
     inkscape:document-units="mm"
     inkscape:zoom="2.8284273"
     inkscape:cx="170.23595"
     inkscape:cy="114.37452"
     inkscape:window-width="1920"
     inkscape:window-height="1051"
     inkscape:window-x="-9"
     inkscape:window-y="-9"
     inkscape:window-maximized="1"
     inkscape:current-layer="layer1" /><defs
     id="defs1" /><g
     inkscape:label="Layer 1"
     inkscape:groupmode="layer"
     id="layer1"
     transform="translate(-65.340195,-114.17442)"><path
       id="path3"
       style="opacity:0.33;fill:none;fill-opacity:0.999999;stroke:#ccf2ff;stroke-width:1.32292;stroke-linecap:round;stroke-linejoin:round;stroke-dasharray:none;stroke-opacity:1"
       d="m 134.89617,160.31114 c 0.0148,-16.49391 -13.37093,-29.86796 -29.86485,-29.86485 -9.98578,0.002 -19.30461,5.01474 -24.833117,13.33046 h 9.84281 l 3.807003,33.6336 c 0.02368,0.20921 0.223604,0.45579 0.430464,0.45579 m 4.237468,-34.08939 h 10.973492 l 3.807,33.6336 c 0.0237,0.20921 0.2236,0.45579 0.43047,0.45579 m -1.69396,-30.13098 c -0.004,-4.43916 3.63748,-8.12546 8.12509,-8.1256 4.48759,-1.4e-4 8.13058,3.63791 8.1256,8.1256 -3.2e-4,0.29034 -0.0204,0.58083 -0.062,0.86817 l -4.77077,32.95974 c -0.15624,1.07938 -0.66477,2.21976 -1.38493,3.20652 M 79.288698,145.29862 c -2.67698,4.55177 -4.121856,9.73191 -4.121713,15.01252 2.24e-4,8.24765 3.455516,16.11859 9.484176,21.74699 0,0 -0.05687,-0.32959 -0.08097,-0.49506 z m 38.266402,42.11422 h -7.85792 c -2.69069,0 -5.31368,-3.12624 -5.69423,-5.84977 -0.38072,2.72353 -3.00406,5.84977 -5.694741,5.84977 h -5.800163 c 3.925079,1.81704 8.198004,2.7631 12.523264,2.76314"
       sodipodi:nodetypes="csccscccsccssssccccscccscsc" /><g
       id="g2"
       transform="matrix(0.49999999,0,0,0.49999999,9.9159274,11.59201)"
       style="stroke:#ffffff;stroke-opacity:1;fill:none;opacity:0.33;stroke-width:0.79375002;stroke-dasharray:none"><path
         sodipodi:nodetypes="cssssccssccsss"
         inkscape:connector-curvature="0"
         id="path2620"
         d="m 171.70277,209.42447 h 7.93752 c 2.92248,0 5.29162,2.36914 5.29162,5.29168 v 7.93743 c 0,2.92252 -2.36914,5.29164 -5.29162,5.29164 h -7.93752 z m 7.93746,3.96874 c 0,-0.73066 -0.59226,-1.32294 -1.3229,-1.32294 h -1.32288 v 13.22917 h 1.32288 c 0.73064,0 1.3229,-0.5923 1.3229,-1.32294 z"
         style="fill:none;fill-opacity:1;fill-rule:evenodd;stroke:#ffffff;stroke-width:0.79375002;stroke-linecap:round;stroke-linejoin:round;stroke-miterlimit:4;stroke-dasharray:none;stroke-dashoffset:0;stroke-opacity:1" /><path
         sodipodi:nodetypes="ccccccccccccc"
         inkscape:connector-curvature="0"
         id="path2493"
         d="m 224.61939,220.00776 h 7.93744 v -2.64582 h -7.93744 v -5.29163 h 7.93744 v -2.64584 h -13.22906 l -6e-5,18.52075 h 13.22908 v -2.64582 h -7.93744 z"
         style="fill:none;fill-opacity:1;fill-rule:evenodd;stroke:#ffffff;stroke-width:0.79375002;stroke-linecap:round;stroke-linejoin:round;stroke-miterlimit:4;stroke-dasharray:none;stroke-dashoffset:0;stroke-opacity:1" /><path
         sodipodi:nodetypes="sssccsszssssssccsszssss"
         inkscape:connector-curvature="0"
         id="path929"
         d="m 259.01518,223.97654 c 0,0.7306 -0.5923,1.3229 -1.3229,1.3229 -0.73066,0 -1.3229,-0.5923 -1.3229,-1.3229 v -1.32294 h -5.29168 c -4e-5,2.92252 2.36914,5.29162 5.29162,5.29162 h 2.64588 c 2.92253,0 5.29167,-2.3691 5.29167,-5.2916 0,-2.9225 -2.36914,-5.29164 -5.29167,-5.29164 h -1.32292 c -0.73066,0 -1.3229,-0.59227 -1.3229,-1.32293 v -2.64586 c 0,-0.73062 0.5923,-1.3229 1.3229,-1.3229 0.73062,0 1.3229,0.59228 1.3229,1.3229 v 1.32296 h 5.29169 c 0,-2.9225 -2.36914,-5.29166 -5.29167,-5.29166 h -2.64588 c -2.92248,0 -5.29162,2.36916 -5.29162,5.29164 0,2.92249 2.36914,5.29163 5.29162,5.29163 h 1.32296 c 0.73062,0 1.3229,0.59232 1.3229,1.32294 z"
         style="fill:none;fill-opacity:1;fill-rule:evenodd;stroke:#ffffff;stroke-width:0.79375002;stroke-linecap:round;stroke-linejoin:round;stroke-miterlimit:4;stroke-dasharray:none;stroke-dashoffset:0;stroke-opacity:1" /><path
         sodipodi:nodetypes="csssscccsscccccccc"
         inkscape:connector-curvature="0"
         id="path931"
         d="m 161.11936,217.36196 h 1.32296 c 0.73064,0 1.3229,-0.59227 1.3229,-1.32293 v -2.64588 c 0,-0.73058 -0.5923,-1.3229 -1.3229,-1.3229 h -1.32288 z m -5.2916,-7.93749 h 7.9375 c 2.92252,0 5.29166,2.36914 5.29166,5.29162 0,2.0365 -1.15038,3.80425 -2.83672,4.68897 l 2.83668,8.54018 h -5.02708 l -2.64578,-7.9375 h -0.26458 v 7.9375 h -5.29164 z"
         style="fill:none;fill-opacity:1;fill-rule:evenodd;stroke:#ffffff;stroke-width:0.79375002;stroke-linecap:round;stroke-linejoin:round;stroke-miterlimit:4;stroke-dasharray:none;stroke-dashoffset:0;stroke-opacity:1" /><path
         style="fill:none;fill-opacity:1;fill-rule:evenodd;stroke:#ffffff;stroke-width:0.79375002;stroke-linecap:round;stroke-linejoin:round;stroke-miterlimit:4;stroke-dasharray:none;stroke-dashoffset:0;stroke-opacity:1"
         d="m 139.95271,222.65362 c 0,2.92248 2.36916,5.29162 5.29166,5.29162 h 2.64586 c 2.92253,0 5.29167,-2.36914 5.29167,-5.29162 v -7.93749 c 0,-2.92252 -2.36914,-5.29166 -5.29167,-5.29166 h -2.64586 c -2.9225,0 -5.29166,2.36914 -5.29166,5.29166 z m 5.2917,-9.26045 c 0,-0.73062 0.5922,-1.3229 1.32288,-1.3229 0.73062,0 1.32292,0.59228 1.32292,1.3229 v 10.58335 c 0,0.73064 -0.5923,1.32292 -1.32292,1.32292 -0.73068,0 -1.32288,-0.59228 -1.32288,-1.32292 z"
         id="path933"
         inkscape:connector-curvature="0"
         sodipodi:nodetypes="ssssssssssssssss" /><path
         sodipodi:nodetypes="cccszscccsssscc"
         inkscape:connector-curvature="0"
         id="path939"
         d="m 187.57797,227.94524 h 5.29158 l -8e-5,-7.93746 2.64567,2e-5 c 2.92242,0 5.29162,-2.36914 5.29172,-5.29165 1e-4,-2.92252 -2.3691,-5.29168 -5.29152,-5.29168 h -7.93757 z m 5.29158,-15.87493 1.32281,-4e-5 c 0.73062,0 1.32306,0.59228 1.32298,1.32294 l -2e-4,2.64584 c -4e-5,0.73066 -0.59236,1.32297 -1.32296,1.32295 l -1.32281,-6e-5 z"
         style="fill:none;fill-opacity:1;fill-rule:evenodd;stroke:#ffffff;stroke-width:0.79375002;stroke-linecap:round;stroke-linejoin:round;stroke-miterlimit:4;stroke-dasharray:none;stroke-dashoffset:0;stroke-opacity:1" /><path
         sodipodi:nodetypes="ccszsccszsccssscsssc"
         inkscape:connector-curvature="0"
         id="path947"
         d="m 116.1402,209.42449 h 4.65764 l 1.61588,14.27521 c 0.01,0.0888 0.0948,0.1934 0.1826,0.1934 0.0876,0 0.1724,-0.1044 0.1826,-0.1934 l 1.6159,-14.27521 h 4.65763 l 1.6159,14.27521 c 0.01,0.0888 0.0948,0.1934 0.1826,0.1934 0.0876,0 0.1724,-0.1044 0.1826,-0.1934 l 1.61588,-14.27521 h 4.65762 l -2.3288,16.03785 c -0.1678,1.15508 -1.27494,2.48288 -2.41698,2.48288 h -3.42056 c -1.14204,0 -2.25545,-1.32692 -2.41697,-2.48288 -0.1616,1.15596 -1.27494,2.48288 -2.41698,2.48288 h -3.42056 c -1.14204,0 -2.24924,-1.3278 -2.41698,-2.48288 z"
         style="fill:none;fill-opacity:1;fill-rule:evenodd;stroke:#ffffff;stroke-width:0.79375002;stroke-linecap:round;stroke-linejoin:round;stroke-miterlimit:4;stroke-dasharray:none;stroke-dashoffset:0;stroke-opacity:1" /><path
         sodipodi:nodetypes="csssscccsscccccccc"
         inkscape:connector-curvature="0"
         id="path1"
         d="m 208.7443,217.36196 h 1.32296 c 0.73064,0 1.3229,-0.59227 1.3229,-1.32293 v -2.64588 c 0,-0.73058 -0.5923,-1.3229 -1.3229,-1.3229 h -1.32288 z m -5.2916,-7.93749 h 7.9375 c 2.92252,0 5.29167,2.36914 5.29167,5.29162 0,2.0365 -1.15039,3.80425 -2.83673,4.68897 l 2.83669,8.54018 h -5.02709 l -2.64578,-7.9375 h -0.26458 v 7.9375 h -5.29164 z"
         style="fill:none;fill-opacity:1;fill-rule:evenodd;stroke:#ffffff;stroke-width:0.79375002;stroke-linecap:round;stroke-linejoin:round;stroke-miterlimit:4;stroke-dasharray:none;stroke-dashoffset:0;stroke-opacity:1" /><path
         sodipodi:nodetypes="sssccsszssssssccsszssss"
         inkscape:connector-curvature="0"
         id="path2"
         d="m 243.14016,223.97654 c 0,0.7306 -0.5923,1.3229 -1.3229,1.3229 -0.73066,0 -1.3229,-0.5923 -1.3229,-1.3229 v -1.32294 h -5.29169 c -4e-5,2.92252 2.36914,5.29162 5.29163,5.29162 h 2.64588 c 2.92252,0 5.29166,-2.3691 5.29166,-5.2916 0,-2.9225 -2.36914,-5.29164 -5.29166,-5.29164 h -1.32292 c -0.73066,0 -1.3229,-0.59227 -1.3229,-1.32293 v -2.64586 c 0,-0.73062 0.5923,-1.3229 1.3229,-1.3229 0.73062,0 1.3229,0.59228 1.3229,1.3229 v 1.32296 h 5.29168 c 0,-2.9225 -2.36914,-5.29166 -5.29166,-5.29166 h -2.64588 c -2.92249,0 -5.29163,2.36916 -5.29163,5.29164 0,2.92249 2.36914,5.29163 5.29163,5.29163 h 1.32296 c 0.73062,0 1.3229,0.59232 1.3229,1.32294 z"
         style="fill:none;fill-opacity:1;fill-rule:evenodd;stroke:#ffffff;stroke-width:0.79375002;stroke-linecap:round;stroke-linejoin:round;stroke-miterlimit:4;stroke-dasharray:none;stroke-dashoffset:0;stroke-opacity:1" /></g></g></svg>
