<?xml version="1.0" encoding="UTF-8" standalone="no"?>
<!-- Created with Inkscape (http://www.inkscape.org/) -->

<svg
   width="300"
   height="300"
   viewBox="0 0 79.375 79.375"
   version="1.1"
   id="svg1"
   xml:space="preserve"
   inkscape:version="1.3 (0e150ed6c4, 2023-07-21)"
   sodipodi:docname="WP-off.svg"
   xmlns:inkscape="http://www.inkscape.org/namespaces/inkscape"
   xmlns:sodipodi="http://sodipodi.sourceforge.net/DTD/sodipodi-0.dtd"
   xmlns="http://www.w3.org/2000/svg"
   xmlns:svg="http://www.w3.org/2000/svg"><sodipodi:namedview
     id="namedview1"
     pagecolor="#505050"
     bordercolor="#eeeeee"
     borderopacity="1"
     inkscape:showpageshadow="0"
     inkscape:pageopacity="0"
     inkscape:pagecheckerboard="0"
     inkscape:deskcolor="#505050"
     inkscape:document-units="mm"
     inkscape:zoom="1.4142136"
     inkscape:cx="158.03836"
     inkscape:cy="111.36932"
     inkscape:window-width="1920"
     inkscape:window-height="1009"
     inkscape:window-x="-8"
     inkscape:window-y="-8"
     inkscape:window-maximized="1"
     inkscape:current-layer="layer1" /><defs
     id="defs1" /><g
     inkscape:label="Layer 1"
     inkscape:groupmode="layer"
     id="layer1"
     transform="translate(-65.340195,-114.17442)"><path
       id="path15"
       style="opacity:0.33;fill:none;fill-opacity:1;stroke:#c0d0ff;stroke-width:1.323;stroke-linecap:round;stroke-linejoin:round;stroke-dasharray:none;stroke-opacity:1"
       d="m 121.56416,140.58058 h 5.82755 c -5.64927,-6.43856 -13.79978,-10.13538 -22.36401,-10.13427 -8.564232,10e-4 -16.708775,3.69775 -22.35626,10.13427 h 5.819799 L 94.279,174.22865 m 5.78776,-33.64807 h 9.92188 l 5.78776,33.64807 m 19.01692,-14.01671 c 0.003,-5.29307 -1.41525,-10.4899 -4.09432,-15.0549 l -6.50038,37.79098 M 79.371899,145.24644 c -2.669202,4.53731 -4.105133,9.7013 -4.109826,14.9655 -0.0078,8.76935 3.886381,17.08807 10.594702,22.73608 z m 38.763011,41.63622 h -7.31945 c -1.59579,0 -2.97724,-1.12068 -3.23753,-2.63395 l -2.55023,-14.82648 -2.55023,14.82648 c -0.26029,1.51327 -1.64176,2.63395 -3.237533,2.63395 h -7.31945 c 4.075242,2.01947 8.559043,3.0949 13.107213,3.0949"
       sodipodi:nodetypes="cczccccccccccscccsscsscc" /><g
       id="g2"
       transform="matrix(0.49999999,0,0,0.49999999,9.9159274,11.59201)"
       style="stroke:#ffffff;stroke-opacity:1;fill:none;opacity:0.33;stroke-width:0.79375002;stroke-dasharray:none"><path
         sodipodi:nodetypes="cssssccssccsss"
         inkscape:connector-curvature="0"
         id="path2620"
         d="m 171.70277,209.42447 h 7.93752 c 2.92248,0 5.29162,2.36914 5.29162,5.29168 v 7.93743 c 0,2.92252 -2.36914,5.29164 -5.29162,5.29164 h -7.93752 z m 7.93746,3.96874 c 0,-0.73066 -0.59226,-1.32294 -1.3229,-1.32294 h -1.32288 v 13.22917 h 1.32288 c 0.73064,0 1.3229,-0.5923 1.3229,-1.32294 z"
         style="fill:none;fill-opacity:1;fill-rule:evenodd;stroke:#ffffff;stroke-width:0.79375002;stroke-linecap:round;stroke-linejoin:round;stroke-miterlimit:4;stroke-dasharray:none;stroke-dashoffset:0;stroke-opacity:1" /><path
         sodipodi:nodetypes="ccccccccccccc"
         inkscape:connector-curvature="0"
         id="path2493"
         d="m 224.61939,220.00776 h 7.93744 v -2.64582 h -7.93744 v -5.29163 h 7.93744 v -2.64584 h -13.22906 l -6e-5,18.52075 h 13.22908 v -2.64582 h -7.93744 z"
         style="fill:none;fill-opacity:1;fill-rule:evenodd;stroke:#ffffff;stroke-width:0.79375002;stroke-linecap:round;stroke-linejoin:round;stroke-miterlimit:4;stroke-dasharray:none;stroke-dashoffset:0;stroke-opacity:1" /><path
         sodipodi:nodetypes="sssccsszssssssccsszssss"
         inkscape:connector-curvature="0"
         id="path929"
         d="m 259.01518,223.97654 c 0,0.7306 -0.5923,1.3229 -1.3229,1.3229 -0.73066,0 -1.3229,-0.5923 -1.3229,-1.3229 v -1.32294 h -5.29168 c -4e-5,2.92252 2.36914,5.29162 5.29162,5.29162 h 2.64588 c 2.92253,0 5.29167,-2.3691 5.29167,-5.2916 0,-2.9225 -2.36914,-5.29164 -5.29167,-5.29164 h -1.32292 c -0.73066,0 -1.3229,-0.59227 -1.3229,-1.32293 v -2.64586 c 0,-0.73062 0.5923,-1.3229 1.3229,-1.3229 0.73062,0 1.3229,0.59228 1.3229,1.3229 v 1.32296 h 5.29169 c 0,-2.9225 -2.36914,-5.29166 -5.29167,-5.29166 h -2.64588 c -2.92248,0 -5.29162,2.36916 -5.29162,5.29164 0,2.92249 2.36914,5.29163 5.29162,5.29163 h 1.32296 c 0.73062,0 1.3229,0.59232 1.3229,1.32294 z"
         style="fill:none;fill-opacity:1;fill-rule:evenodd;stroke:#ffffff;stroke-width:0.79375002;stroke-linecap:round;stroke-linejoin:round;stroke-miterlimit:4;stroke-dasharray:none;stroke-dashoffset:0;stroke-opacity:1" /><path
         sodipodi:nodetypes="csssscccsscccccccc"
         inkscape:connector-curvature="0"
         id="path931"
         d="m 161.11936,217.36196 h 1.32296 c 0.73064,0 1.3229,-0.59227 1.3229,-1.32293 v -2.64588 c 0,-0.73058 -0.5923,-1.3229 -1.3229,-1.3229 h -1.32288 z m -5.2916,-7.93749 h 7.9375 c 2.92252,0 5.29166,2.36914 5.29166,5.29162 0,2.0365 -1.15038,3.80425 -2.83672,4.68897 l 2.83668,8.54018 h -5.02708 l -2.64578,-7.9375 h -0.26458 v 7.9375 h -5.29164 z"
         style="fill:none;fill-opacity:1;fill-rule:evenodd;stroke:#ffffff;stroke-width:0.79375002;stroke-linecap:round;stroke-linejoin:round;stroke-miterlimit:4;stroke-dasharray:none;stroke-dashoffset:0;stroke-opacity:1" /><path
         style="fill:none;fill-opacity:1;fill-rule:evenodd;stroke:#ffffff;stroke-width:0.79375002;stroke-linecap:round;stroke-linejoin:round;stroke-miterlimit:4;stroke-dasharray:none;stroke-dashoffset:0;stroke-opacity:1"
         d="m 139.95271,222.65362 c 0,2.92248 2.36916,5.29162 5.29166,5.29162 h 2.64586 c 2.92253,0 5.29167,-2.36914 5.29167,-5.29162 v -7.93749 c 0,-2.92252 -2.36914,-5.29166 -5.29167,-5.29166 h -2.64586 c -2.9225,0 -5.29166,2.36914 -5.29166,5.29166 z m 5.2917,-9.26045 c 0,-0.73062 0.5922,-1.3229 1.32288,-1.3229 0.73062,0 1.32292,0.59228 1.32292,1.3229 v 10.58335 c 0,0.73064 -0.5923,1.32292 -1.32292,1.32292 -0.73068,0 -1.32288,-0.59228 -1.32288,-1.32292 z"
         id="path933"
         inkscape:connector-curvature="0"
         sodipodi:nodetypes="ssssssssssssssss" /><path
         sodipodi:nodetypes="cccszscccsssscc"
         inkscape:connector-curvature="0"
         id="path939"
         d="m 187.57797,227.94524 h 5.29158 l -8e-5,-7.93746 2.64567,2e-5 c 2.92242,0 5.29162,-2.36914 5.29172,-5.29165 1e-4,-2.92252 -2.3691,-5.29168 -5.29152,-5.29168 h -7.93757 z m 5.29158,-15.87493 1.32281,-4e-5 c 0.73062,0 1.32306,0.59228 1.32298,1.32294 l -2e-4,2.64584 c -4e-5,0.73066 -0.59236,1.32297 -1.32296,1.32295 l -1.32281,-6e-5 z"
         style="fill:none;fill-opacity:1;fill-rule:evenodd;stroke:#ffffff;stroke-width:0.79375002;stroke-linecap:round;stroke-linejoin:round;stroke-miterlimit:4;stroke-dasharray:none;stroke-dashoffset:0;stroke-opacity:1" /><path
         sodipodi:nodetypes="ccszsccszsccssscsssc"
         inkscape:connector-curvature="0"
         id="path947"
         d="m 116.1402,209.42449 h 4.65764 l 1.61588,14.27521 c 0.01,0.0888 0.0948,0.1934 0.1826,0.1934 0.0876,0 0.1724,-0.1044 0.1826,-0.1934 l 1.6159,-14.27521 h 4.65763 l 1.6159,14.27521 c 0.01,0.0888 0.0948,0.1934 0.1826,0.1934 0.0876,0 0.1724,-0.1044 0.1826,-0.1934 l 1.61588,-14.27521 h 4.65762 l -2.3288,16.03785 c -0.1678,1.15508 -1.27494,2.48288 -2.41698,2.48288 h -3.42056 c -1.14204,0 -2.25545,-1.32692 -2.41697,-2.48288 -0.1616,1.15596 -1.27494,2.48288 -2.41698,2.48288 h -3.42056 c -1.14204,0 -2.24924,-1.3278 -2.41698,-2.48288 z"
         style="fill:none;fill-opacity:1;fill-rule:evenodd;stroke:#ffffff;stroke-width:0.79375002;stroke-linecap:round;stroke-linejoin:round;stroke-miterlimit:4;stroke-dasharray:none;stroke-dashoffset:0;stroke-opacity:1" /><path
         sodipodi:nodetypes="csssscccsscccccccc"
         inkscape:connector-curvature="0"
         id="path1"
         d="m 208.7443,217.36196 h 1.32296 c 0.73064,0 1.3229,-0.59227 1.3229,-1.32293 v -2.64588 c 0,-0.73058 -0.5923,-1.3229 -1.3229,-1.3229 h -1.32288 z m -5.2916,-7.93749 h 7.9375 c 2.92252,0 5.29167,2.36914 5.29167,5.29162 0,2.0365 -1.15039,3.80425 -2.83673,4.68897 l 2.83669,8.54018 h -5.02709 l -2.64578,-7.9375 h -0.26458 v 7.9375 h -5.29164 z"
         style="fill:none;fill-opacity:1;fill-rule:evenodd;stroke:#ffffff;stroke-width:0.79375002;stroke-linecap:round;stroke-linejoin:round;stroke-miterlimit:4;stroke-dasharray:none;stroke-dashoffset:0;stroke-opacity:1" /><path
         sodipodi:nodetypes="sssccsszssssssccsszssss"
         inkscape:connector-curvature="0"
         id="path2"
         d="m 243.14016,223.97654 c 0,0.7306 -0.5923,1.3229 -1.3229,1.3229 -0.73066,0 -1.3229,-0.5923 -1.3229,-1.3229 v -1.32294 h -5.29169 c -4e-5,2.92252 2.36914,5.29162 5.29163,5.29162 h 2.64588 c 2.92252,0 5.29166,-2.3691 5.29166,-5.2916 0,-2.9225 -2.36914,-5.29164 -5.29166,-5.29164 h -1.32292 c -0.73066,0 -1.3229,-0.59227 -1.3229,-1.32293 v -2.64586 c 0,-0.73062 0.5923,-1.3229 1.3229,-1.3229 0.73062,0 1.3229,0.59228 1.3229,1.3229 v 1.32296 h 5.29168 c 0,-2.9225 -2.36914,-5.29166 -5.29166,-5.29166 h -2.64588 c -2.92249,0 -5.29163,2.36916 -5.29163,5.29164 0,2.92249 2.36914,5.29163 5.29163,5.29163 h 1.32296 c 0.73062,0 1.3229,0.59232 1.3229,1.32294 z"
         style="fill:none;fill-opacity:1;fill-rule:evenodd;stroke:#ffffff;stroke-width:0.79375002;stroke-linecap:round;stroke-linejoin:round;stroke-miterlimit:4;stroke-dasharray:none;stroke-dashoffset:0;stroke-opacity:1" /></g></g></svg>
