<?xml version="1.0" encoding="UTF-8" standalone="no"?>
<!-- Created with Inkscape (http://www.inkscape.org/) -->

<svg
   width="300"
   height="300"
   viewBox="0 0 79.375 79.375"
   version="1.1"
   id="svg1"
   xml:space="preserve"
   inkscape:version="1.3 (0e150ed6c4, 2023-07-21)"
   sodipodi:docname="WP.svg"
   xmlns:inkscape="http://www.inkscape.org/namespaces/inkscape"
   xmlns:sodipodi="http://sodipodi.sourceforge.net/DTD/sodipodi-0.dtd"
   xmlns="http://www.w3.org/2000/svg"
   xmlns:svg="http://www.w3.org/2000/svg"><sodipodi:namedview
     id="namedview1"
     pagecolor="#505050"
     bordercolor="#eeeeee"
     borderopacity="1"
     inkscape:showpageshadow="0"
     inkscape:pageopacity="0"
     inkscape:pagecheckerboard="0"
     inkscape:deskcolor="#505050"
     inkscape:document-units="mm"
     inkscape:zoom="1.4142136"
     inkscape:cx="53.386562"
     inkscape:cy="-1.0606602"
     inkscape:window-width="1920"
     inkscape:window-height="1009"
     inkscape:window-x="-8"
     inkscape:window-y="131"
     inkscape:window-maximized="1"
     inkscape:current-layer="layer1" /><defs
     id="defs1"><filter
       inkscape:collect="always"
       style="color-interpolation-filters:sRGB"
       id="filter17"
       x="-0.034222186"
       y="-0.034222194"
       width="1.0684444"
       height="1.0684444"><feGaussianBlur
         inkscape:collect="always"
         stdDeviation="0.29765628"
         id="feGaussianBlur17" /></filter><filter
       inkscape:collect="always"
       style="color-interpolation-filters:sRGB"
       id="filter18"
       x="-0.070222181"
       y="-0.070222196"
       width="1.1404444"
       height="1.1404444"><feGaussianBlur
         inkscape:collect="always"
         stdDeviation="1.1906251"
         id="feGaussianBlur18" /></filter></defs><g
     inkscape:label="Layer 1"
     inkscape:groupmode="layer"
     id="layer1"
     transform="translate(-65.340195,-114.17442)"><g
       id="g18"><path
         id="path16"
         style="fill:none;fill-opacity:1;stroke:#4080ff;stroke-width:2.64583;stroke-linecap:round;stroke-linejoin:round;stroke-dasharray:none;stroke-opacity:1;filter:url(#filter18)"
         d="m 121.56416,134.23057 h 5.82755 c -5.64927,-6.43856 -13.79978,-10.13538 -22.36401,-10.13427 -8.564232,0.001 -16.708775,3.69775 -22.35626,10.13427 h 5.819799 L 94.279,167.87864 m 5.78776,-33.64807 h 9.92188 l 5.78776,33.64807 m 19.01692,-14.01671 c 0.003,-5.29307 -1.41525,-10.4899 -4.09432,-15.0549 l -6.50038,37.79098 M 79.371899,138.89643 c -2.669202,4.53731 -4.105133,9.7013 -4.109826,14.9655 -0.0078,8.76935 3.886381,17.08807 10.594702,22.73608 z m 38.763011,41.63622 h -7.31945 c -1.59579,0 -2.97724,-1.12068 -3.23753,-2.63395 l -2.55023,-14.82648 -2.55023,14.82648 c -0.26029,1.51327 -1.64176,2.63395 -3.237533,2.63395 h -7.31945 c 4.075242,2.01947 8.559043,3.0949 13.107213,3.0949"
         sodipodi:nodetypes="cczccccccccccscccsscsscc" /><path
         id="path17"
         style="fill:none;fill-opacity:1;stroke:#4080ff;stroke-width:2.64583;stroke-linecap:round;stroke-linejoin:round;stroke-dasharray:none;stroke-opacity:1;filter:url(#filter17)"
         d="m 121.56416,134.23057 h 5.82755 c -5.64927,-6.43856 -13.79978,-10.13538 -22.36401,-10.13427 -8.564232,0.001 -16.708775,3.69775 -22.35626,10.13427 h 5.819799 L 94.279,167.87864 m 5.78776,-33.64807 h 9.92188 l 5.78776,33.64807 m 19.01692,-14.01671 c 0.003,-5.29307 -1.41525,-10.4899 -4.09432,-15.0549 l -6.50038,37.79098 M 79.371899,138.89643 c -2.669202,4.53731 -4.105133,9.7013 -4.109826,14.9655 -0.0078,8.76935 3.886381,17.08807 10.594702,22.73608 z m 38.763011,41.63622 h -7.31945 c -1.59579,0 -2.97724,-1.12068 -3.23753,-2.63395 l -2.55023,-14.82648 -2.55023,14.82648 c -0.26029,1.51327 -1.64176,2.63395 -3.237533,2.63395 h -7.31945 c 4.075242,2.01947 8.559043,3.0949 13.107213,3.0949"
         sodipodi:nodetypes="cczccccccccccscccsscsscc" /><path
         id="path15"
         style="fill:none;fill-opacity:1;stroke:#c0d0ff;stroke-width:1.32292;stroke-linecap:round;stroke-linejoin:round;stroke-dasharray:none;stroke-opacity:1"
         d="m 121.56416,134.23057 h 5.82755 c -5.64927,-6.43856 -13.79978,-10.13538 -22.36401,-10.13427 -8.564232,0.001 -16.708775,3.69775 -22.35626,10.13427 h 5.819799 L 94.279,167.87864 m 5.78776,-33.64807 h 9.92188 l 5.78776,33.64807 m 19.01692,-14.01671 c 0.003,-5.29307 -1.41525,-10.4899 -4.09432,-15.0549 l -6.50038,37.79098 M 79.371899,138.89643 c -2.669202,4.53731 -4.105133,9.7013 -4.109826,14.9655 -0.0078,8.76935 3.886381,17.08807 10.594702,22.73608 z m 38.763011,41.63622 h -7.31945 c -1.59579,0 -2.97724,-1.12068 -3.23753,-2.63395 l -2.55023,-14.82648 -2.55023,14.82648 c -0.26029,1.51327 -1.64176,2.63395 -3.237533,2.63395 h -7.31945 c 4.075242,2.01947 8.559043,3.0949 13.107213,3.0949"
         sodipodi:nodetypes="cczccccccccccscccsscsscc" /></g></g></svg>
